<?xml version="1.0" encoding="UTF-8"?>
<svg width="162px" height="792px" viewBox="0 0 162 792" version="1.1" xmlns="http://www.w3.org/2000/svg" xmlns:xlink="http://www.w3.org/1999/xlink">
    <!-- Generator: Sketch 52.6 (67491) - http://www.bohemiancoding.com/sketch -->
    <title>blue-rectangle</title>
    <desc>Created with Sketch.</desc>
    <g id="Page-1" stroke="none" stroke-width="1" fill="none" fill-rule="evenodd">
        <g id="Report-Template" transform="translate(-422.000000, 0.000000)">
            <g id="blue-rectangle" transform="translate(422.000000, 0.000000)">
                <rect id="Rectangle" fill="#324261" x="0.65" y="0" width="161.35" height="792"></rect>
                <g id="Group" transform="translate(59.000000, 718.000000)"></g>
                <path d="M75.22,731.45 C75.22,725.72 79.87,721.07 85.6,721.07 C91.33,721.07 95.98,725.72 95.98,731.45 C95.98,731.58 95.97,731.7 95.96,731.83 C96.08,731.16 96.16,730.47 96.16,729.76 C96.16,723.39 91,718.23 84.62,718.23 C78.25,718.23 73.08,723.39 73.08,729.76 C73.08,734.72 76.22,738.94 80.61,740.57 C77.41,738.79 75.22,735.38 75.22,731.45 Z" id="Path" fill="#FFFFFF"></path>
                <path d="M85.21,723.28 C84.95,723.28 84.69,723.3 84.44,723.32 C88.69,723.35 92.12,726.8 92.12,731.05 C92.12,735.32 88.66,738.78 84.38,738.78 C80.13,738.78 76.68,735.35 76.65,731.1 C76.63,731.35 76.61,731.61 76.61,731.87 C76.61,736.62 80.46,740.46 85.21,740.46 C89.96,740.46 93.8,736.61 93.8,731.87 C93.8,727.13 89.96,723.28 85.21,723.28 Z" id="Path" fill="#FFFFFF"></path>
                <path d="M66.19,758.43 C67.57,758.43 70.44,757.63 70.44,753.15 C70.44,749.46 68.19,747.47 65.76,747.47 C63.19,747.47 61.27,749.16 61.27,752.53 C61.26,756.13 63.42,758.43 66.19,758.43 Z M65.86,746.96 C69.32,746.96 71.91,749.14 71.91,752.73 C71.91,756.18 69.48,759.02 65.77,759.02 C61.56,759.02 59.8,755.74 59.8,752.97 C59.8,750.48 61.62,746.96 65.86,746.96 Z" id="Shape" fill="#FFFFFF" fill-rule="nonzero"></path>
                <path d="M86.92,756.82 C86.98,757.37 87.09,758.23 87.75,758.45 C88.2,758.59 88.6,758.59 88.75,758.59 C88.83,758.59 88.87,758.61 88.87,758.67 C88.87,758.76 88.73,758.81 88.55,758.81 C88.21,758.81 86.55,758.76 85.98,758.72 C85.63,758.69 85.55,758.64 85.55,758.57 C85.55,758.51 85.58,758.48 85.66,758.46 C85.74,758.44 85.75,758.18 85.72,757.91 L84.98,749.97 L84.93,749.97 L81.16,757.97 C80.84,758.65 80.79,758.79 80.65,758.79 C80.54,758.79 80.47,758.64 80.17,758.08 C79.77,757.33 78.45,754.66 78.37,754.51 C78.23,754.23 76.51,750.54 76.34,750.13 L76.28,750.13 L75.66,757.27 C75.65,757.52 75.65,757.79 75.65,758.05 C75.65,758.28 75.82,758.48 76.05,758.53 C76.31,758.59 76.54,758.61 76.64,758.61 C76.7,758.61 76.76,758.64 76.76,758.69 C76.76,758.8 76.67,758.83 76.48,758.83 C75.91,758.83 75.17,758.78 75.05,758.78 C74.91,758.78 74.17,758.83 73.76,758.83 C73.61,758.83 73.5,758.8 73.5,758.69 C73.5,758.64 73.58,758.61 73.65,758.61 C73.77,758.61 73.88,758.61 74.11,758.56 C74.62,758.47 74.66,757.87 74.73,757.28 L75.84,747.25 C75.87,747.08 75.92,746.97 76.01,746.97 C76.1,746.97 76.16,747.03 76.24,747.2 L80.95,756.87 L85.47,747.21 C85.53,747.07 85.59,746.96 85.7,746.96 C85.81,746.96 85.85,747.08 85.89,747.38 L86.92,756.82 Z" id="Path" fill="#FFFFFF"></path>
                <path d="M92.05,756.71 C92.08,757.97 92.23,758.37 92.65,758.5 C92.94,758.58 93.28,758.59 93.42,758.59 C93.5,758.59 93.54,758.62 93.54,758.68 C93.54,758.77 93.45,758.8 93.26,758.8 C92.38,758.8 91.77,758.75 91.63,758.75 C91.49,758.75 90.85,758.8 90.15,758.8 C90,758.8 89.9,758.78 89.9,758.68 C89.9,758.62 89.95,758.59 90.02,758.59 C90.14,758.59 90.42,758.57 90.65,758.5 C91.03,758.39 91.11,757.95 91.11,756.55 L91.13,747.74 C91.13,747.14 91.18,746.97 91.3,746.97 C91.42,746.97 91.69,747.31 91.84,747.46 C92.07,747.72 94.36,750.2 96.73,752.74 C98.25,754.37 99.93,756.25 100.42,756.75 L100.25,748.94 C100.24,747.94 100.13,747.6 99.65,747.48 C99.37,747.42 99.02,747.4 98.9,747.4 C98.79,747.4 98.78,747.35 98.78,747.29 C98.78,747.2 98.9,747.18 99.09,747.18 C99.78,747.18 100.52,747.23 100.69,747.23 C100.86,747.23 101.37,747.18 102,747.18 C102.17,747.18 102.28,747.2 102.28,747.29 C102.28,747.35 102.22,747.4 102.11,747.4 C102.03,747.4 101.93,747.4 101.74,747.45 C101.23,747.56 101.17,747.9 101.17,748.82 L101.14,757.83 C101.14,758.84 101.11,758.92 101,758.92 C100.88,758.92 100.69,758.75 99.88,757.94 C99.71,757.79 97.5,755.53 95.87,753.77 C94.09,751.85 92.35,749.91 91.86,749.36 L92.05,756.71 Z" id="Path" fill="#FFFFFF"></path>
                <path d="M107.49,754.34 C107.49,755.82 107.49,757.03 107.57,757.68 C107.62,758.13 107.71,758.46 108.17,758.53 C108.39,758.56 108.72,758.59 108.86,758.59 C108.95,758.59 108.98,758.64 108.98,758.68 C108.98,758.76 108.9,758.8 108.73,758.8 C107.88,758.8 106.91,758.75 106.84,758.75 C106.76,758.75 105.79,758.8 105.33,758.8 C105.16,758.8 105.08,758.77 105.08,758.68 C105.08,758.63 105.11,758.59 105.2,758.59 C105.34,758.59 105.52,758.56 105.66,758.53 C105.97,758.47 106.05,758.13 106.11,757.68 C106.19,757.03 106.19,755.82 106.19,754.34 L106.19,751.63 C106.19,749.23 106.19,748.8 106.16,748.31 C106.13,747.79 105.97,747.53 105.64,747.45 C105.47,747.4 105.27,747.39 105.16,747.39 C105.1,747.39 105.04,747.36 105.04,747.3 C105.04,747.21 105.12,747.18 105.28,747.18 C105.79,747.18 106.76,747.23 106.83,747.23 C106.91,747.23 107.88,747.18 108.34,747.18 C108.51,747.18 108.59,747.21 108.59,747.3 C108.59,747.36 108.53,747.39 108.47,747.39 C108.36,747.39 108.27,747.41 108.09,747.44 C107.67,747.52 107.55,747.78 107.52,748.32 C107.49,748.81 107.49,749.24 107.49,751.64 L107.49,754.34 Z" id="Path" fill="#FFFFFF"></path>
            </g>
        </g>
    </g>
</svg>