<svg width="380" height="316" viewBox="0 0 380 316" fill="none" xmlns="http://www.w3.org/2000/svg">
<path fill-rule="evenodd" clip-rule="evenodd" d="M118.882 103.12C118.882 58.8435 154.731 22.9637 198.958 22.9637C243.182 22.9637 279.027 58.8435 279.027 103.12C279.027 104.099 278.926 105.062 278.883 106.032C279.833 100.829 280.391 95.4934 280.391 90.014C280.391 40.8284 240.565 0.957214 191.425 0.957214C142.292 0.957214 102.459 40.8284 102.459 90.014C102.459 128.327 126.669 160.899 160.569 173.472C135.743 159.856 118.882 133.462 118.882 103.12Z" fill="#7F8269"/>
<mask id="mask0" mask-type="alpha" maskUnits="userSpaceOnUse" x="0" y="40" width="263" height="276">
<path d="M0.184082 40.0799H262.209V315.816H0.184082V40.0799Z" fill="white"/>
</mask>
<g mask="url(#mask0)">
<path fill-rule="evenodd" clip-rule="evenodd" d="M195.936 40.0799C193.905 40.0799 191.934 40.2057 189.964 40.3836C222.732 40.5984 249.231 67.2314 249.231 100.083C249.231 133.064 222.524 159.798 189.574 159.798C156.775 159.798 130.184 133.294 129.948 100.503C129.777 102.467 129.651 104.43 129.651 106.431C129.651 143.081 159.322 172.788 195.936 172.788C232.536 172.788 262.21 143.081 262.21 106.431C262.21 69.79 232.536 40.0799 195.936 40.0799Z" fill="#7F8269"/>
<path fill-rule="evenodd" clip-rule="evenodd" d="M49.2253 311.484C59.9021 311.484 81.9666 305.299 81.9666 270.751C81.9666 242.24 64.6429 226.931 45.9003 226.931C26.0944 226.931 11.2652 240.001 11.2652 265.998C11.2652 293.665 27.8748 311.484 49.2253 311.484ZM46.7369 222.894C73.4258 222.894 93.3574 239.758 93.3574 267.422C93.3574 294.027 74.6118 316 46.026 316C13.5206 316 0 290.699 0 269.321C0 250.079 13.9926 222.894 46.7369 222.894Z" fill="#1A1919"/>
</g>
<path fill-rule="evenodd" clip-rule="evenodd" d="M209.154 299.019C209.625 303.283 210.453 309.941 215.558 311.601C219 312.668 222.083 312.668 223.269 312.668C223.86 312.668 224.213 312.791 224.213 313.263C224.213 313.981 223.143 314.334 221.727 314.334C219.113 314.334 206.31 313.981 201.915 313.619C199.194 313.38 198.596 313.027 198.596 312.435C198.596 311.963 198.832 311.72 199.421 311.601C200.021 311.484 200.135 309.465 199.896 307.321L194.208 246.044H193.843L164.789 307.799C162.3 313.027 161.942 314.092 160.872 314.092C160.048 314.092 159.45 312.904 157.201 308.637C154.106 302.817 143.913 282.262 143.325 281.087C142.252 278.939 128.964 250.444 127.662 247.232H127.187L122.437 302.341C122.324 304.234 122.324 306.379 122.324 308.401C122.324 310.18 123.629 311.72 125.406 312.073C127.423 312.549 129.2 312.668 129.92 312.668C130.386 312.668 130.861 312.904 130.861 313.263C130.861 314.092 130.16 314.334 128.728 314.334C124.343 314.334 118.643 313.981 117.696 313.981C116.63 313.981 110.939 314.334 107.733 314.334C106.547 314.334 105.714 314.092 105.714 313.263C105.714 312.904 106.311 312.668 106.909 312.668C107.847 312.668 108.683 312.668 110.464 312.309C114.368 311.601 114.733 306.971 115.208 302.452L123.742 225.035C123.981 223.719 124.343 222.894 125.051 222.894C125.762 222.894 126.234 223.366 126.828 224.676L163.128 299.369L198.002 224.796C198.477 223.719 198.958 222.894 199.782 222.894C200.61 222.894 200.971 223.845 201.21 226.106L209.154 299.019Z" fill="#1A1919"/>
<path fill-rule="evenodd" clip-rule="evenodd" d="M248.655 298.178C248.891 307.925 250.071 311.012 253.27 311.963C255.532 312.549 258.134 312.668 259.212 312.668C259.801 312.668 260.153 312.904 260.153 313.38C260.153 314.092 259.442 314.334 258.023 314.334C251.257 314.334 246.513 313.981 245.447 313.981C244.38 313.981 239.394 314.334 234.059 314.334C232.867 314.334 232.168 314.218 232.168 313.38C232.168 312.904 232.517 312.668 233.103 312.668C234.059 312.668 236.198 312.549 237.978 311.963C240.936 311.122 241.533 307.683 241.533 296.877L241.65 228.83C241.65 224.194 242.014 222.894 242.949 222.894C243.905 222.894 245.922 225.501 247.111 226.692C248.891 228.713 266.561 247.833 284.832 267.422C296.569 280.019 309.498 294.506 313.295 298.414L311.989 238.095C311.879 230.376 311.036 227.762 307.368 226.814C305.232 226.342 302.505 226.216 301.555 226.216C300.73 226.216 300.605 225.866 300.605 225.388C300.605 224.676 301.555 224.559 302.971 224.559C308.318 224.559 314.006 224.912 315.314 224.912C316.614 224.912 320.536 224.559 325.4 224.559C326.696 224.559 327.536 224.676 327.536 225.388C327.536 225.866 327.061 226.216 326.224 226.216C325.636 226.216 324.805 226.216 323.377 226.578C319.464 227.403 318.992 230.014 318.992 237.135L318.756 306.735C318.756 314.57 318.52 315.159 317.692 315.159C316.739 315.159 315.314 313.856 309.023 307.56C307.717 306.379 290.645 288.922 278.065 275.377C264.312 260.537 250.907 245.578 247.111 241.301L248.655 298.178Z" fill="#1A1919"/>
<path fill-rule="evenodd" clip-rule="evenodd" d="M367.739 279.893C367.739 291.294 367.739 300.676 368.337 305.661C368.689 309.1 369.406 311.72 372.961 312.199C374.628 312.435 377.23 312.668 378.297 312.668C379.011 312.668 379.247 313.027 379.247 313.38C379.247 313.981 378.664 314.334 377.353 314.334C370.828 314.334 363.351 313.981 362.763 313.981C362.168 313.981 354.697 314.334 351.136 314.334C349.836 314.334 349.236 314.092 349.236 313.38C349.236 313.027 349.475 312.668 350.186 312.668C351.255 312.668 352.68 312.435 353.744 312.199C356.113 311.72 356.713 309.1 357.191 305.661C357.78 300.676 357.78 291.294 357.78 279.893V259C357.78 240.467 357.78 237.135 357.541 233.337C357.305 229.299 356.113 227.278 353.505 226.692C352.205 226.342 350.664 226.216 349.836 226.216C349.358 226.216 348.886 225.98 348.886 225.501C348.886 224.796 349.475 224.559 350.774 224.559C354.697 224.559 362.168 224.912 362.763 224.912C363.351 224.912 370.828 224.559 374.383 224.559C375.692 224.559 376.28 224.796 376.28 225.501C376.28 225.98 375.808 226.216 375.333 226.216C374.506 226.216 373.789 226.342 372.373 226.578C369.164 227.167 368.214 229.189 367.978 233.337C367.739 237.135 367.739 240.467 367.739 259V279.893Z" fill="#1A1919"/>
</svg>
