<?xml version="1.0" encoding="UTF-8"?>
<svg width="200px" height="57px" viewBox="0 0 200 57" version="1.1" xmlns="http://www.w3.org/2000/svg" xmlns:xlink="http://www.w3.org/1999/xlink">
    <!-- Generator: Sketch 52.6 (67491) - http://www.bohemiancoding.com/sketch -->
    <title>OMNI Logo_Horizontal_COLOR</title>
    <desc>Created with Sketch.</desc>
    <defs>
        <polygon id="path-1" points="0.06 0.769 58.063 0.769 58.063 57 0.06 57"></polygon>
    </defs>
    <g id="OMNI-Logo_Horizontal_COLOR" stroke="none" stroke-width="1" fill="none" fill-rule="evenodd">
        <g id="Group-3">
            <mask id="mask-2" fill="white">
                <use xlink:href="#path-1"></use>
            </mask>
            <g id="Clip-2"></g>
            <path d="M5.359,34.068 C5.359,19.637 17.058,7.941 31.489,7.941 C45.92,7.941 57.617,19.637 57.617,34.068 C57.617,34.388 57.584,34.701 57.57,35.018 C57.881,33.321 58.063,31.583 58.063,29.797 C58.063,13.765 45.066,0.769 29.031,0.769 C12.998,0.769 0,13.765 0,29.797 C0,42.284 7.9,52.901 18.962,57 C10.861,52.562 5.359,43.959 5.359,34.068" id="Fill-1" fill="#7F8269" mask="url(#mask-2)"></path>
        </g>
        <path d="M30.503,13.521 C29.841,13.521 29.197,13.562 28.555,13.619 C39.247,13.689 47.895,22.371 47.895,33.078 C47.895,43.828 39.18,52.543 28.428,52.543 C17.725,52.543 9.048,43.903 8.971,33.216 C8.914,33.856 8.873,34.495 8.873,35.147 C8.873,47.094 18.556,56.776 30.503,56.776 C42.446,56.776 52.13,47.094 52.13,35.147 C52.13,23.205 42.446,13.521 30.503,13.521" id="Fill-4" fill="#7F8269"></path>
        <path d="M91.812,43.587 C95.296,43.587 102.496,41.571 102.496,30.311 C102.496,21.018 96.843,16.027 90.727,16.027 C84.264,16.027 79.425,20.287 79.425,28.761 C79.425,37.779 84.845,43.587 91.812,43.587 Z M91,14.711 C99.709,14.711 106.213,20.208 106.213,29.226 C106.213,37.897 100.096,45.059 90.768,45.059 C80.161,45.059 75.749,36.813 75.749,29.844 C75.749,23.572 80.315,14.711 91,14.711 Z" id="Fill-5" fill="#1A1919"></path>
        <path d="M143.999,39.525 C144.153,40.914 144.423,43.084 146.089,43.625 C147.212,43.973 148.218,43.973 148.605,43.973 C148.798,43.973 148.913,44.013 148.913,44.167 C148.913,44.401 148.564,44.516 148.102,44.516 C147.249,44.516 143.071,44.401 141.637,44.283 C140.749,44.205 140.554,44.09 140.554,43.897 C140.554,43.743 140.631,43.664 140.823,43.625 C141.019,43.587 141.056,42.929 140.978,42.23 L139.122,22.257 L139.003,22.257 L129.521,42.386 C128.71,44.09 128.593,44.437 128.244,44.437 C127.975,44.437 127.78,44.05 127.046,42.659 C126.036,40.762 122.71,34.063 122.518,33.679 C122.168,32.98 117.832,23.692 117.407,22.645 L117.252,22.645 L115.702,40.608 C115.665,41.225 115.665,41.923 115.665,42.582 C115.665,43.162 116.091,43.664 116.671,43.779 C117.329,43.934 117.909,43.973 118.144,43.973 C118.296,43.973 118.451,44.05 118.451,44.167 C118.451,44.437 118.222,44.516 117.755,44.516 C116.324,44.516 114.464,44.401 114.155,44.401 C113.807,44.401 111.95,44.516 110.904,44.516 C110.517,44.516 110.245,44.437 110.245,44.167 C110.245,44.05 110.44,43.973 110.635,43.973 C110.941,43.973 111.214,43.973 111.795,43.856 C113.069,43.625 113.188,42.116 113.343,40.644 L116.128,15.409 C116.206,14.98 116.324,14.711 116.555,14.711 C116.787,14.711 116.941,14.865 117.135,15.292 L128.98,39.638 L140.36,15.331 C140.515,14.98 140.672,14.711 140.941,14.711 C141.211,14.711 141.329,15.021 141.407,15.758 L143.999,39.525" id="Fill-6" fill="#1A1919"></path>
        <path d="M156.889,39.25 C156.966,42.427 157.351,43.433 158.396,43.743 C159.133,43.934 159.982,43.973 160.334,43.973 C160.526,43.973 160.641,44.05 160.641,44.205 C160.641,44.437 160.409,44.516 159.946,44.516 C157.738,44.516 156.19,44.401 155.842,44.401 C155.494,44.401 153.867,44.516 152.126,44.516 C151.737,44.516 151.509,44.479 151.509,44.205 C151.509,44.05 151.623,43.973 151.814,43.973 C152.126,43.973 152.824,43.934 153.405,43.743 C154.37,43.469 154.565,42.349 154.565,38.826 L154.604,16.646 C154.604,15.135 154.722,14.711 155.027,14.711 C155.339,14.711 155.997,15.562 156.385,15.949 C156.966,16.608 162.732,22.84 168.694,29.226 C172.524,33.331 176.743,38.053 177.982,39.327 L177.556,19.666 C177.52,17.15 177.245,16.298 176.048,15.989 C175.351,15.835 174.461,15.794 174.151,15.794 C173.882,15.794 173.841,15.68 173.841,15.525 C173.841,15.292 174.151,15.254 174.613,15.254 C176.358,15.254 178.214,15.369 178.641,15.369 C179.065,15.369 180.345,15.254 181.932,15.254 C182.355,15.254 182.629,15.292 182.629,15.525 C182.629,15.68 182.474,15.794 182.201,15.794 C182.009,15.794 181.738,15.794 181.272,15.912 C179.995,16.182 179.841,17.032 179.841,19.354 L179.764,42.039 C179.764,44.593 179.687,44.785 179.417,44.785 C179.106,44.785 178.641,44.36 176.588,42.309 C176.162,41.923 170.591,36.233 166.486,31.818 C161.998,26.982 157.624,22.105 156.385,20.711 L156.889,39.25" id="Fill-7" fill="#1A1919"></path>
        <path d="M195.748,33.29 C195.748,37.006 195.748,40.065 195.943,41.689 C196.058,42.811 196.292,43.664 197.452,43.82 C197.996,43.897 198.845,43.973 199.193,43.973 C199.426,43.973 199.503,44.09 199.503,44.205 C199.503,44.401 199.313,44.516 198.885,44.516 C196.756,44.516 194.316,44.401 194.124,44.401 C193.93,44.401 191.492,44.516 190.33,44.516 C189.906,44.516 189.71,44.437 189.71,44.205 C189.71,44.09 189.788,43.973 190.02,43.973 C190.369,43.973 190.834,43.897 191.181,43.82 C191.954,43.664 192.15,42.811 192.306,41.689 C192.498,40.065 192.498,37.006 192.498,33.29 L192.498,26.481 C192.498,20.44 192.498,19.354 192.42,18.115 C192.343,16.799 191.954,16.141 191.104,15.949 C190.679,15.835 190.176,15.794 189.906,15.794 C189.75,15.794 189.596,15.717 189.596,15.562 C189.596,15.331 189.788,15.254 190.212,15.254 C191.492,15.254 193.93,15.369 194.124,15.369 C194.316,15.369 196.756,15.254 197.916,15.254 C198.343,15.254 198.535,15.331 198.535,15.562 C198.535,15.717 198.381,15.794 198.226,15.794 C197.956,15.794 197.722,15.835 197.26,15.912 C196.213,16.104 195.903,16.763 195.826,18.115 C195.748,19.354 195.748,20.44 195.748,26.481 L195.748,33.29" id="Fill-8" fill="#1A1919"></path>
    </g>
</svg>