<?xml version="1.0" encoding="utf-8"?>
<!-- Generator: Adobe Illustrator 23.0.3, SVG Export Plug-In . SVG Version: 6.00 Build 0)  -->
<svg version="1.1" id="Layer_1" xmlns="http://www.w3.org/2000/svg" xmlns:xlink="http://www.w3.org/1999/xlink" x="0px" y="0px"
	 viewBox="0 0 612 792" style="enable-background:new 0 0 612 792;" xml:space="preserve">
<style type="text/css">
	.st0{fill:#324261;}
	.st1{fill:#8CC1B2;}
	.st2{fill:#FFFFFF;}
	.st3{font-family:'LineAwesome';}
	.st4{font-size:18px;}
	.st5{fill:#357787;}
	.st6{fill:none;}
	.st7{font-size:15px;}
	.st8{fill:#010101;}
	.st9{font-family:'Lato-Light';}
	.st10{font-size:9px;}
	.st11{display:none;}
	.st12{display:inline;fill:#CCCCCC;}
</style>
<rect x="450.65" y="0" class="st0" width="161.35" height="792"/>
<g>
	<path class="st1" d="M142.71,739.17c0,8.16-6.62,14.78-14.78,14.78c-8.16,0-14.78-6.62-14.78-14.78c0-8.16,6.62-14.78,14.78-14.78
		C136.09,724.39,142.71,731.01,142.71,739.17z"/>
	<text transform="matrix(1 0 0 1 118.9265 744.8909)" class="st2 st3 st4"></text>
</g>
<g>
	<path class="st5" d="M73.06,739.17c0,8.16-6.62,14.78-14.78,14.78c-8.16,0-14.78-6.62-14.78-14.78c0-8.16,6.62-14.78,14.78-14.78
		C66.44,724.39,73.06,731.01,73.06,739.17z"/>
	<rect x="51.2" y="731.77" class="st6" width="19.86" height="18.66"/>
	<text transform="matrix(1 0 0 1 51.1968 744.9733)" class="st2 st3 st7"></text>
</g>
<rect x="28.16" y="762.05" class="st6" width="60.22" height="15.98"/>
<text transform="matrix(1 0 0 1 28.1626 768.6042)" class="st8 st9 st10">303-839-9422</text>
<rect x="111.08" y="762.05" class="st6" width="35" height="16.18"/>
<text transform="matrix(1 0 0 1 111.0822 768.6042)" class="st8 st9 st10">omni.org</text>
<rect x="156.92" y="763.48" class="st6" width="85.09" height="19.93"/>
<text transform="matrix(1 0 0 1 159.9054 770.0388)"><tspan x="0" y="0" class="st8 st9 st10">899 Logan St, St 600</tspan><tspan x="2.7" y="10.8" class="st8 st9 st10">Denver, CO 80203</tspan></text>
<g class="st11">
	<polyline class="st12" points="175.23,764.36 175.56,764.36 175.56,766.64 176.65,766.64 176.65,766.91 175.23,766.91 	"/>
	<path class="st12" d="M178.61,765.98c0,0.68-0.47,0.97-0.91,0.97c-0.5,0-0.88-0.36-0.88-0.94c0-0.61,0.4-0.97,0.91-0.97
		C178.26,765.04,178.61,765.42,178.61,765.98z M177.16,766c0,0.4,0.23,0.7,0.56,0.7c0.32,0,0.56-0.3,0.56-0.71
		c0-0.31-0.16-0.7-0.55-0.7C177.33,765.29,177.16,765.65,177.16,766z"/>
	<path class="st12" d="M179.03,765.65c0-0.22,0-0.4-0.01-0.57h0.29l0.01,0.36h0.02c0.08-0.25,0.28-0.4,0.51-0.4
		c0.04,0,0.06,0,0.09,0.01v0.31c-0.03-0.01-0.07-0.01-0.11-0.01c-0.24,0-0.4,0.18-0.45,0.43c-0.01,0.05-0.01,0.1-0.01,0.15v0.98
		h-0.33V765.65z"/>
	<path class="st12" d="M180.42,766.06c0.01,0.45,0.3,0.64,0.63,0.64c0.24,0,0.38-0.04,0.51-0.09l0.06,0.24
		c-0.12,0.05-0.32,0.11-0.61,0.11c-0.56,0-0.9-0.37-0.9-0.92c0-0.55,0.33-0.99,0.86-0.99c0.6,0,0.76,0.53,0.76,0.86
		c0,0.07-0.01,0.12-0.01,0.15H180.42z M181.4,765.82c0-0.21-0.09-0.54-0.46-0.54c-0.34,0-0.48,0.31-0.51,0.54H181.4z"/>
	<path class="st12" d="M182.13,765.58c0-0.19,0-0.34-0.02-0.5h0.29l0.02,0.3h0.01c0.1-0.17,0.27-0.34,0.58-0.34
		c0.25,0,0.44,0.15,0.52,0.37h0.01c0.06-0.1,0.13-0.18,0.2-0.24c0.11-0.08,0.23-0.13,0.41-0.13c0.24,0,0.6,0.16,0.6,0.79v1.08h-0.33
		v-1.04c0-0.35-0.13-0.56-0.4-0.56c-0.19,0-0.34,0.14-0.39,0.3c-0.01,0.04-0.03,0.11-0.03,0.17v1.13h-0.33v-1.1
		c0-0.29-0.13-0.5-0.38-0.5c-0.21,0-0.36,0.17-0.41,0.33c-0.02,0.05-0.03,0.11-0.03,0.16v1.11h-0.33V765.58z"/>
	<path class="st12" d="M186.47,764.57c0,0.11-0.08,0.2-0.21,0.2c-0.12,0-0.2-0.09-0.2-0.2c0-0.12,0.09-0.21,0.21-0.21
		C186.39,764.36,186.47,764.45,186.47,764.57z M186.1,766.91v-1.83h0.33v1.83H186.1z"/>
	<path class="st12" d="M186.98,765.68c0-0.23-0.01-0.42-0.01-0.6h0.3l0.01,0.31h0.01c0.14-0.22,0.35-0.36,0.65-0.36
		c0.44,0,0.78,0.38,0.78,0.93c0,0.66-0.4,0.98-0.83,0.98c-0.24,0-0.45-0.11-0.56-0.29h-0.01v1h-0.33V765.68z M187.31,766.17
		c0,0.05,0.01,0.09,0.01,0.14c0.06,0.23,0.26,0.39,0.5,0.39c0.35,0,0.56-0.29,0.56-0.71c0-0.37-0.19-0.68-0.54-0.68
		c-0.23,0-0.44,0.16-0.5,0.41c-0.01,0.04-0.02,0.09-0.02,0.14V766.17z"/>
	<path class="st12" d="M189.09,766.57c0.1,0.06,0.27,0.13,0.44,0.13c0.24,0,0.36-0.12,0.36-0.27c0-0.16-0.09-0.25-0.34-0.34
		c-0.33-0.12-0.48-0.3-0.48-0.52c0-0.3,0.24-0.54,0.63-0.54c0.19,0,0.35,0.05,0.45,0.11l-0.08,0.24c-0.07-0.05-0.2-0.11-0.37-0.11
		c-0.2,0-0.31,0.11-0.31,0.25c0,0.15,0.11,0.22,0.35,0.31c0.32,0.12,0.48,0.28,0.48,0.55c0,0.32-0.25,0.55-0.68,0.55
		c-0.2,0-0.39-0.05-0.52-0.12L189.09,766.57z"/>
	<path class="st12" d="M192.17,766.41c0,0.19,0,0.36,0.02,0.5h-0.3l-0.02-0.3h-0.01c-0.09,0.15-0.28,0.34-0.61,0.34
		c-0.29,0-0.63-0.16-0.63-0.8v-1.07h0.33v1.01c0,0.35,0.11,0.58,0.41,0.58c0.22,0,0.38-0.16,0.44-0.3c0.02-0.05,0.03-0.11,0.03-0.17
		v-1.12h0.33V766.41z"/>
	<path class="st12" d="M192.73,765.58c0-0.19,0-0.34-0.01-0.5H193l0.02,0.3h0.01c0.1-0.17,0.27-0.34,0.58-0.34
		c0.25,0,0.44,0.15,0.52,0.37h0.01c0.06-0.1,0.13-0.18,0.2-0.24c0.11-0.08,0.23-0.13,0.41-0.13c0.24,0,0.6,0.16,0.6,0.79v1.08h-0.33
		v-1.04c0-0.35-0.13-0.56-0.4-0.56c-0.19,0-0.34,0.14-0.39,0.3c-0.02,0.04-0.03,0.11-0.03,0.17v1.13h-0.33v-1.1
		c0-0.29-0.13-0.5-0.38-0.5c-0.21,0-0.36,0.17-0.41,0.33c-0.02,0.05-0.03,0.11-0.03,0.16v1.11h-0.32V765.58z"/>
	<path class="st12" d="M198.27,764.23v2.22c0,0.16,0,0.35,0.02,0.47h-0.3l-0.01-0.32h-0.01c-0.1,0.2-0.33,0.36-0.63,0.36
		c-0.44,0-0.78-0.38-0.78-0.93c0-0.61,0.37-0.98,0.82-0.98c0.28,0,0.47,0.13,0.55,0.28h0.01v-1.1H198.27z M197.94,765.83
		c0-0.04,0-0.1-0.02-0.14c-0.05-0.21-0.23-0.39-0.48-0.39c-0.34,0-0.55,0.3-0.55,0.71c0,0.37,0.18,0.68,0.54,0.68
		c0.22,0,0.43-0.15,0.49-0.4c0.01-0.05,0.02-0.09,0.02-0.14V765.83z"/>
	<path class="st12" d="M200.48,765.98c0,0.68-0.47,0.97-0.91,0.97c-0.5,0-0.88-0.36-0.88-0.94c0-0.61,0.4-0.97,0.91-0.97
		C200.13,765.04,200.48,765.42,200.48,765.98z M199.03,766c0,0.4,0.23,0.7,0.56,0.7c0.32,0,0.56-0.3,0.56-0.71
		c0-0.31-0.16-0.7-0.55-0.7C199.2,765.29,199.03,765.65,199.03,766z"/>
	<path class="st12" d="M200.91,764.23h0.33v2.69h-0.33V764.23z"/>
	<path class="st12" d="M203.46,765.98c0,0.68-0.47,0.97-0.91,0.97c-0.5,0-0.88-0.36-0.88-0.94c0-0.61,0.4-0.97,0.91-0.97
		C203.1,765.04,203.46,765.42,203.46,765.98z M202,766c0,0.4,0.23,0.7,0.56,0.7c0.32,0,0.56-0.3,0.56-0.71c0-0.31-0.16-0.7-0.55-0.7
		C202.17,765.29,202,765.65,202,766z"/>
	<path class="st12" d="M203.88,765.65c0-0.22,0-0.4-0.01-0.57h0.29l0.01,0.36h0.02c0.08-0.25,0.28-0.4,0.51-0.4
		c0.04,0,0.07,0,0.1,0.01v0.31c-0.03-0.01-0.07-0.01-0.11-0.01c-0.23,0-0.4,0.18-0.45,0.43c-0.01,0.05-0.01,0.1-0.01,0.15v0.98
		h-0.33V765.65z"/>
	<path class="st12" d="M205.88,766.57c0.1,0.06,0.27,0.13,0.44,0.13c0.24,0,0.36-0.12,0.36-0.27c0-0.16-0.09-0.25-0.34-0.34
		c-0.33-0.12-0.48-0.3-0.48-0.52c0-0.3,0.24-0.54,0.63-0.54c0.19,0,0.35,0.05,0.45,0.11l-0.08,0.24c-0.07-0.05-0.2-0.11-0.37-0.11
		c-0.2,0-0.31,0.11-0.31,0.25c0,0.15,0.11,0.22,0.35,0.31c0.32,0.12,0.48,0.28,0.48,0.55c0,0.32-0.25,0.55-0.69,0.55
		c-0.2,0-0.39-0.05-0.52-0.12L205.88,766.57z"/>
	<path class="st12" d="M207.79,764.57c0,0.11-0.08,0.2-0.21,0.2c-0.12,0-0.2-0.09-0.2-0.2c0-0.12,0.09-0.21,0.21-0.21
		C207.71,764.36,207.79,764.45,207.79,764.57z M207.42,766.91v-1.83h0.33v1.83H207.42z"/>
	<path class="st12" d="M208.71,764.56v0.53h0.48v0.25h-0.48v0.99c0,0.23,0.06,0.36,0.25,0.36c0.09,0,0.15-0.01,0.19-0.02l0.01,0.25
		c-0.06,0.03-0.17,0.05-0.3,0.05c-0.16,0-0.28-0.05-0.36-0.14c-0.1-0.1-0.13-0.26-0.13-0.48v-1h-0.28v-0.25h0.28v-0.44
		L208.71,764.56z"/>
	<path class="st12" d="M211.38,766.91l-0.03-0.23h-0.01c-0.1,0.14-0.3,0.27-0.56,0.27c-0.37,0-0.56-0.26-0.56-0.53
		c0-0.44,0.39-0.69,1.1-0.68v-0.04c0-0.15-0.04-0.42-0.42-0.42c-0.17,0-0.35,0.05-0.48,0.14l-0.08-0.22c0.15-0.1,0.37-0.16,0.6-0.16
		c0.56,0,0.7,0.38,0.7,0.75v0.69c0,0.16,0.01,0.31,0.03,0.44H211.38z M211.33,765.98c-0.36-0.01-0.78,0.06-0.78,0.41
		c0,0.22,0.14,0.32,0.31,0.32c0.24,0,0.39-0.15,0.44-0.31c0.01-0.03,0.02-0.07,0.02-0.11V765.98z"/>
	<path class="st12" d="M212.19,765.58c0-0.19,0-0.34-0.01-0.5h0.29l0.01,0.3h0.01c0.1-0.17,0.27-0.34,0.58-0.34
		c0.25,0,0.44,0.15,0.52,0.37h0.01c0.06-0.1,0.13-0.18,0.2-0.24c0.11-0.08,0.23-0.13,0.41-0.13c0.24,0,0.6,0.16,0.6,0.79v1.08h-0.33
		v-1.04c0-0.35-0.13-0.56-0.4-0.56c-0.19,0-0.34,0.14-0.39,0.3c-0.02,0.04-0.03,0.11-0.03,0.17v1.13h-0.33v-1.1
		c0-0.29-0.13-0.5-0.38-0.5c-0.21,0-0.36,0.17-0.41,0.33c-0.02,0.05-0.03,0.11-0.03,0.16v1.11h-0.33V765.58z"/>
	<path class="st12" d="M215.54,766.06c0.01,0.45,0.3,0.64,0.63,0.64c0.24,0,0.38-0.04,0.51-0.09l0.06,0.24
		c-0.12,0.05-0.32,0.11-0.61,0.11c-0.56,0-0.9-0.37-0.9-0.92c0-0.55,0.33-0.99,0.86-0.99c0.6,0,0.76,0.53,0.76,0.86
		c0,0.07-0.01,0.12-0.01,0.15H215.54z M216.51,765.82c0-0.21-0.09-0.54-0.46-0.54c-0.34,0-0.48,0.31-0.51,0.54H216.51z"/>
	<path class="st12" d="M217.65,764.56v0.53h0.48v0.25h-0.48v0.99c0,0.23,0.07,0.36,0.25,0.36c0.09,0,0.15-0.01,0.19-0.02l0.01,0.25
		c-0.06,0.03-0.17,0.05-0.3,0.05c-0.16,0-0.28-0.05-0.36-0.14c-0.09-0.1-0.13-0.26-0.13-0.48v-1h-0.28v-0.25h0.28v-0.44
		L217.65,764.56z"/>
	<path class="st12" d="M218.28,767.38c0.08-0.22,0.19-0.63,0.23-0.9l0.37-0.04c-0.09,0.32-0.25,0.74-0.36,0.92L218.28,767.38z"/>
	<path class="st12" d="M221.33,766.63L221.33,766.63c-0.11,0.18-0.31,0.33-0.61,0.33c-0.43,0-0.78-0.37-0.78-0.93
		c0-0.69,0.44-0.99,0.83-0.99c0.28,0,0.47,0.14,0.57,0.32h0.01l0.01-0.28h0.31c-0.01,0.16-0.01,0.31-0.01,0.5v2.08h-0.33V766.63z
		 M221.33,765.82c0-0.05,0-0.1-0.02-0.14c-0.05-0.2-0.23-0.38-0.48-0.38c-0.34,0-0.55,0.29-0.55,0.7c0,0.36,0.17,0.68,0.54,0.68
		c0.22,0,0.4-0.13,0.48-0.36c0.02-0.05,0.03-0.11,0.03-0.16V765.82z"/>
	<path class="st12" d="M223.74,766.41c0,0.19,0,0.36,0.01,0.5h-0.29l-0.02-0.3h-0.01c-0.09,0.15-0.28,0.34-0.61,0.34
		c-0.29,0-0.63-0.16-0.63-0.8v-1.07h0.33v1.01c0,0.35,0.11,0.58,0.41,0.58c0.22,0,0.38-0.16,0.44-0.3c0.02-0.05,0.03-0.11,0.03-0.17
		v-1.12h0.33V766.41z"/>
	<path class="st12" d="M175.18,769.11c0-0.12,0.09-0.21,0.21-0.21c0.12,0,0.2,0.09,0.2,0.21c0,0.11-0.08,0.2-0.21,0.2
		C175.26,769.32,175.18,769.23,175.18,769.11"/>
	<polyline class="st12" points="175.22,769.63 175.55,769.63 175.55,771.46 175.22,771.46 	"/>
	<path class="st12" d="M176.26,769.63l0.26,0.39c0.07,0.1,0.12,0.2,0.19,0.3h0.01c0.06-0.11,0.12-0.2,0.18-0.3l0.26-0.39h0.36
		l-0.62,0.89l0.64,0.95h-0.38l-0.27-0.41c-0.07-0.1-0.13-0.21-0.2-0.32h-0.01c-0.06,0.11-0.13,0.21-0.19,0.32l-0.26,0.41h-0.37
		l0.65-0.93l-0.62-0.9H176.26z"/>
	<path class="st12" d="M178.85,770.6c0.01,0.45,0.3,0.64,0.63,0.64c0.24,0,0.38-0.04,0.51-0.09l0.06,0.24
		c-0.12,0.05-0.32,0.11-0.61,0.11c-0.56,0-0.9-0.37-0.9-0.92c0-0.55,0.33-0.99,0.86-0.99c0.6,0,0.76,0.53,0.76,0.86
		c0,0.07-0.01,0.12-0.01,0.15H178.85z M179.82,770.37c0-0.21-0.09-0.54-0.46-0.54c-0.34,0-0.48,0.31-0.51,0.54H179.82z"/>
	<path class="st12" d="M180.93,769.11c0,0.11-0.08,0.2-0.21,0.2c-0.12,0-0.2-0.09-0.2-0.2c0-0.12,0.09-0.21,0.21-0.21
		C180.85,768.91,180.93,769,180.93,769.11z M180.56,771.46v-1.83h0.33v1.83H180.56z"/>
	<path class="st12" d="M182.62,769.11c0,0.11-0.08,0.2-0.21,0.2c-0.12,0-0.2-0.09-0.2-0.2c0-0.12,0.09-0.21,0.21-0.21
		C182.54,768.91,182.62,769,182.62,769.11z M182.25,771.46v-1.83h0.33v1.83H182.25z"/>
	<path class="st12" d="M184.72,768.77v2.22c0,0.16,0,0.35,0.02,0.47h-0.3l-0.01-0.32h-0.01c-0.1,0.2-0.32,0.36-0.63,0.36
		c-0.44,0-0.78-0.38-0.78-0.93c0-0.61,0.38-0.98,0.82-0.98c0.28,0,0.47,0.13,0.55,0.28h0.01v-1.09H184.72z M184.39,770.37
		c0-0.04,0-0.1-0.02-0.14c-0.05-0.21-0.23-0.39-0.48-0.39c-0.34,0-0.55,0.3-0.55,0.71c0,0.37,0.18,0.68,0.54,0.68
		c0.22,0,0.43-0.15,0.49-0.4c0.01-0.05,0.02-0.09,0.02-0.14V770.37z"/>
	<path class="st12" d="M186.52,771.18L186.52,771.18c-0.11,0.18-0.31,0.33-0.61,0.33c-0.43,0-0.78-0.37-0.78-0.93
		c0-0.69,0.44-0.99,0.83-0.99c0.28,0,0.47,0.14,0.56,0.32h0.01l0.01-0.28h0.31c-0.01,0.15-0.01,0.31-0.01,0.5v2.08h-0.33V771.18z
		 M186.52,770.37c0-0.05,0-0.1-0.02-0.14c-0.05-0.2-0.23-0.38-0.48-0.38c-0.34,0-0.55,0.29-0.55,0.7c0,0.36,0.17,0.68,0.54,0.68
		c0.22,0,0.4-0.13,0.48-0.36c0.01-0.04,0.03-0.11,0.03-0.16V770.37z"/>
	<path class="st12" d="M188.94,770.96c0,0.19,0,0.36,0.02,0.5h-0.3l-0.02-0.3h-0.01c-0.09,0.15-0.28,0.34-0.61,0.34
		c-0.29,0-0.63-0.16-0.63-0.8v-1.07h0.33v1.01c0,0.35,0.11,0.58,0.41,0.58c0.22,0,0.38-0.16,0.44-0.3c0.02-0.05,0.03-0.11,0.03-0.17
		v-1.12h0.33V770.96z"/>
	<path class="st12" d="M189.68,770.6c0.01,0.45,0.3,0.64,0.63,0.64c0.24,0,0.38-0.04,0.51-0.09l0.06,0.24
		c-0.12,0.05-0.32,0.11-0.61,0.11c-0.56,0-0.9-0.37-0.9-0.92c0-0.55,0.33-0.99,0.86-0.99c0.6,0,0.76,0.53,0.76,0.86
		c0,0.07-0.01,0.12-0.01,0.15H189.68z M190.66,770.37c0-0.21-0.09-0.54-0.46-0.54c-0.34,0-0.48,0.31-0.51,0.54H190.66z"/>
	<path class="st12" d="M192.57,769.11c0,0.11-0.08,0.2-0.21,0.2c-0.12,0-0.2-0.09-0.2-0.2c0-0.12,0.09-0.21,0.21-0.21
		C192.49,768.91,192.57,769,192.57,769.11z M192.2,771.46v-1.83h0.33v1.83H192.2z"/>
	<path class="st12" d="M193.08,770.12c0-0.19,0-0.34-0.01-0.5h0.3l0.02,0.3h0.01c0.09-0.17,0.3-0.34,0.61-0.34
		c0.25,0,0.65,0.15,0.65,0.78v1.09h-0.33v-1.06c0-0.3-0.11-0.54-0.42-0.54c-0.22,0-0.39,0.15-0.45,0.34
		c-0.01,0.04-0.02,0.1-0.02,0.16v1.1h-0.33V770.12z"/>
	<path class="st12" d="M195.57,769.1v0.53h0.48v0.25h-0.48v0.99c0,0.23,0.06,0.36,0.25,0.36c0.09,0,0.15-0.01,0.19-0.02l0.01,0.25
		c-0.06,0.03-0.17,0.05-0.3,0.05c-0.15,0-0.28-0.05-0.36-0.14c-0.09-0.1-0.13-0.26-0.13-0.48v-1h-0.28v-0.25h0.28v-0.44
		L195.57,769.1z"/>
	<path class="st12" d="M196.59,770.6c0.01,0.45,0.29,0.64,0.63,0.64c0.24,0,0.38-0.04,0.51-0.09l0.06,0.24
		c-0.12,0.05-0.32,0.11-0.61,0.11c-0.56,0-0.9-0.37-0.9-0.92c0-0.55,0.33-0.99,0.86-0.99c0.6,0,0.76,0.53,0.76,0.86
		c0,0.07-0.01,0.12-0.01,0.15H196.59z M197.56,770.37c0.01-0.21-0.09-0.54-0.46-0.54c-0.34,0-0.48,0.31-0.51,0.54H197.56z"/>
	<path class="st12" d="M198.3,768.77h0.33v2.69h-0.33V768.77z"/>
	<path class="st12" d="M199.19,768.77h0.33v2.69h-0.33V768.77z"/>
	<path class="st12" d="M200.27,770.6c0.01,0.45,0.3,0.64,0.63,0.64c0.24,0,0.38-0.04,0.51-0.09l0.06,0.24
		c-0.12,0.05-0.32,0.11-0.61,0.11c-0.56,0-0.9-0.37-0.9-0.92c0-0.55,0.33-0.99,0.86-0.99c0.6,0,0.76,0.53,0.76,0.86
		c0,0.07-0.01,0.12-0.01,0.15H200.27z M201.25,770.37c0-0.21-0.09-0.54-0.46-0.54c-0.34,0-0.48,0.31-0.51,0.54H201.25z"/>
	<path class="st12" d="M203.56,769.63c-0.01,0.13-0.02,0.28-0.02,0.5v1.06c0,0.42-0.08,0.68-0.26,0.84
		c-0.18,0.17-0.44,0.22-0.67,0.22c-0.22,0-0.46-0.05-0.61-0.15l0.08-0.25c0.12,0.08,0.31,0.14,0.54,0.14c0.34,0,0.59-0.18,0.59-0.64
		v-0.2h-0.01c-0.1,0.17-0.3,0.31-0.58,0.31c-0.45,0-0.78-0.39-0.78-0.89c0-0.62,0.4-0.97,0.83-0.97c0.32,0,0.49,0.17,0.57,0.32h0.01
		l0.02-0.28H203.56z M203.22,770.35c0-0.06,0-0.11-0.02-0.15c-0.06-0.19-0.22-0.35-0.47-0.35c-0.32,0-0.55,0.27-0.55,0.69
		c0,0.36,0.18,0.66,0.54,0.66c0.2,0,0.39-0.13,0.46-0.34c0.02-0.06,0.03-0.12,0.03-0.18V770.35z"/>
	<path class="st12" d="M205.12,771.46l-0.03-0.23h-0.01c-0.1,0.14-0.3,0.27-0.56,0.27c-0.37,0-0.56-0.26-0.56-0.53
		c0-0.44,0.39-0.69,1.1-0.68v-0.04c0-0.15-0.04-0.42-0.42-0.42c-0.17,0-0.35,0.05-0.48,0.14l-0.08-0.22c0.15-0.1,0.37-0.16,0.6-0.16
		c0.56,0,0.7,0.38,0.7,0.75v0.69c0,0.16,0.01,0.31,0.03,0.44H205.12z M205.07,770.53c-0.36-0.01-0.78,0.06-0.78,0.41
		c0,0.22,0.14,0.32,0.31,0.32c0.24,0,0.39-0.15,0.44-0.31c0.01-0.03,0.02-0.07,0.02-0.11V770.53z"/>
	<path class="st12" d="M206.31,769.1v0.53h0.48v0.25h-0.48v0.99c0,0.23,0.06,0.36,0.25,0.36c0.09,0,0.15-0.01,0.19-0.02l0.02,0.25
		c-0.07,0.03-0.17,0.05-0.3,0.05c-0.16,0-0.28-0.05-0.36-0.14c-0.09-0.1-0.13-0.26-0.13-0.48v-1h-0.28v-0.25h0.28v-0.44
		L206.31,769.1z"/>
	<path class="st12" d="M207.97,770.2c0-0.22,0-0.4-0.01-0.57h0.29l0.01,0.36h0.02c0.08-0.25,0.28-0.4,0.51-0.4
		c0.04,0,0.06,0,0.09,0.01v0.31c-0.03-0.01-0.07-0.01-0.11-0.01c-0.23,0-0.4,0.18-0.45,0.43c-0.01,0.05-0.02,0.1-0.02,0.15v0.98
		h-0.33V770.2z"/>
	<path class="st12" d="M209.36,770.6c0.01,0.45,0.3,0.64,0.63,0.64c0.24,0,0.38-0.04,0.51-0.09l0.06,0.24
		c-0.12,0.05-0.32,0.11-0.61,0.11c-0.56,0-0.9-0.37-0.9-0.92c0-0.55,0.33-0.99,0.86-0.99c0.6,0,0.76,0.53,0.76,0.86
		c0,0.07-0.01,0.12-0.01,0.15H209.36z M210.33,770.37c0-0.21-0.09-0.54-0.46-0.54c-0.34,0-0.48,0.31-0.51,0.54H210.33z"/>
	<path class="st12" d="M211.1,771.46v-1.58h-0.26v-0.25h0.26v-0.09c0-0.26,0.06-0.49,0.21-0.64c0.12-0.12,0.29-0.17,0.45-0.17
		c0.12,0,0.22,0.03,0.28,0.05l-0.05,0.26c-0.05-0.02-0.12-0.04-0.21-0.04c-0.28,0-0.36,0.25-0.36,0.53v0.1h0.44v0.25h-0.44v1.58
		H211.1z"/>
	<path class="st12" d="M212.31,770.6c0.01,0.45,0.3,0.64,0.63,0.64c0.24,0,0.38-0.04,0.51-0.09l0.06,0.24
		c-0.12,0.05-0.32,0.11-0.61,0.11c-0.56,0-0.9-0.37-0.9-0.92c0-0.55,0.33-0.99,0.86-0.99c0.6,0,0.76,0.53,0.76,0.86
		c0,0.07-0.01,0.12-0.01,0.15H212.31z M213.29,770.37c0.01-0.21-0.09-0.54-0.46-0.54c-0.34,0-0.49,0.31-0.51,0.54H213.29z"/>
	<path class="st12" d="M214.02,770.2c0-0.22,0-0.4-0.01-0.57h0.29l0.01,0.36h0.02c0.08-0.25,0.28-0.4,0.51-0.4
		c0.04,0,0.06,0,0.1,0.01v0.31c-0.03-0.01-0.07-0.01-0.11-0.01c-0.24,0-0.4,0.18-0.45,0.43c-0.01,0.05-0.02,0.1-0.02,0.15v0.98
		h-0.33V770.2z"/>
	<path class="st12" d="M215.28,770.2c0-0.22,0-0.4-0.01-0.57h0.29l0.01,0.36h0.02c0.08-0.25,0.28-0.4,0.51-0.4
		c0.04,0,0.06,0,0.1,0.01v0.31c-0.03-0.01-0.07-0.01-0.11-0.01c-0.24,0-0.4,0.18-0.45,0.43c-0.01,0.05-0.02,0.1-0.02,0.15v0.98
		h-0.33V770.2z"/>
	<path class="st12" d="M216.66,770.6c0.01,0.45,0.29,0.64,0.63,0.64c0.24,0,0.38-0.04,0.51-0.09l0.06,0.24
		c-0.12,0.05-0.32,0.11-0.61,0.11c-0.56,0-0.9-0.37-0.9-0.92c0-0.55,0.33-0.99,0.86-0.99c0.6,0,0.76,0.53,0.76,0.86
		c0,0.07-0.01,0.12-0.01,0.15H216.66z M217.64,770.37c0-0.21-0.09-0.54-0.46-0.54c-0.34,0-0.48,0.31-0.51,0.54H217.64z"/>
	<path class="st12" d="M218.38,770.12c0-0.19,0-0.34-0.02-0.5h0.3l0.02,0.3h0.01c0.09-0.17,0.3-0.34,0.61-0.34
		c0.25,0,0.65,0.15,0.65,0.78v1.09h-0.33v-1.06c0-0.3-0.11-0.54-0.42-0.54c-0.22,0-0.39,0.15-0.45,0.34
		c-0.01,0.04-0.02,0.1-0.02,0.16v1.1h-0.33V770.12z"/>
</g>
<g>
	<path class="st0" d="M214.25,739.17c0,8.16-6.62,14.78-14.78,14.78c-8.16,0-14.78-6.62-14.78-14.78c0-8.16,6.62-14.78,14.78-14.78
		C207.63,724.39,214.25,731.01,214.25,739.17z"/>
	<g>
		<polygon class="st2" points="196.13,738.62 196.13,743.47 198.38,743.47 198.38,739.95 200.56,739.95 200.56,743.47 
			202.81,743.47 202.81,738.62 		"/>
		<polygon class="st2" points="199.47,734.52 194.56,738.74 204.38,738.74 		"/>
	</g>
</g>
<g>
	<path class="st2" d="M525.22,731.45c0-5.73,4.65-10.38,10.38-10.38c5.73,0,10.38,4.65,10.38,10.38c0,0.13-0.01,0.25-0.02,0.38
		c0.12-0.67,0.2-1.36,0.2-2.07c0-6.37-5.16-11.53-11.54-11.53c-6.37,0-11.54,5.16-11.54,11.53c0,4.96,3.14,9.18,7.53,10.81
		C527.41,738.79,525.22,735.38,525.22,731.45L525.22,731.45L525.22,731.45z"/>
	<path class="st2" d="M535.21,723.28c-0.26,0-0.52,0.02-0.77,0.04c4.25,0.03,7.68,3.48,7.68,7.73c0,4.27-3.46,7.73-7.74,7.73
		c-4.25,0-7.7-3.43-7.73-7.68c-0.02,0.25-0.04,0.51-0.04,0.77c0,4.75,3.85,8.59,8.6,8.59c4.75,0,8.59-3.85,8.59-8.59
		C543.8,727.13,539.96,723.28,535.21,723.28L535.21,723.28L535.21,723.28z"/>
	<path class="st2" d="M516.19,758.43c1.38,0,4.25-0.8,4.25-5.28c0-3.69-2.25-5.68-4.68-5.68c-2.57,0-4.49,1.69-4.49,5.06
		C511.26,756.13,513.42,758.43,516.19,758.43L516.19,758.43z M515.86,746.96c3.46,0,6.05,2.18,6.05,5.77c0,3.45-2.43,6.29-6.14,6.29
		c-4.21,0-5.97-3.28-5.97-6.05C509.8,750.48,511.62,746.96,515.86,746.96L515.86,746.96z"/>
	<path class="st2" d="M536.92,756.82c0.06,0.55,0.17,1.41,0.83,1.63c0.45,0.14,0.85,0.14,1,0.14c0.08,0,0.12,0.02,0.12,0.08
		c0,0.09-0.14,0.14-0.32,0.14c-0.34,0-2-0.05-2.57-0.09c-0.35-0.03-0.43-0.08-0.43-0.15c0-0.06,0.03-0.09,0.11-0.11
		c0.08-0.02,0.09-0.28,0.06-0.55l-0.74-7.94h-0.05l-3.77,8c-0.32,0.68-0.37,0.82-0.51,0.82c-0.11,0-0.18-0.15-0.48-0.71
		c-0.4-0.75-1.72-3.42-1.8-3.57c-0.14-0.28-1.86-3.97-2.03-4.38h-0.06l-0.62,7.14c-0.01,0.25-0.01,0.52-0.01,0.78
		c0,0.23,0.17,0.43,0.4,0.48c0.26,0.06,0.49,0.08,0.59,0.08c0.06,0,0.12,0.03,0.12,0.08c0,0.11-0.09,0.14-0.28,0.14
		c-0.57,0-1.31-0.05-1.43-0.05c-0.14,0-0.88,0.05-1.29,0.05c-0.15,0-0.26-0.03-0.26-0.14c0-0.05,0.08-0.08,0.15-0.08
		c0.12,0,0.23,0,0.46-0.05c0.51-0.09,0.55-0.69,0.62-1.28l1.11-10.03c0.03-0.17,0.08-0.28,0.17-0.28c0.09,0,0.15,0.06,0.23,0.23
		l4.71,9.67l4.52-9.66c0.06-0.14,0.12-0.25,0.23-0.25c0.11,0,0.15,0.12,0.19,0.42L536.92,756.82L536.92,756.82z"/>
	<path class="st2" d="M542.05,756.71c0.03,1.26,0.18,1.66,0.6,1.79c0.29,0.08,0.63,0.09,0.77,0.09c0.08,0,0.12,0.03,0.12,0.09
		c0,0.09-0.09,0.12-0.28,0.12c-0.88,0-1.49-0.05-1.63-0.05c-0.14,0-0.78,0.05-1.48,0.05c-0.15,0-0.25-0.02-0.25-0.12
		c0-0.06,0.05-0.09,0.12-0.09c0.12,0,0.4-0.02,0.63-0.09c0.38-0.11,0.46-0.55,0.46-1.95l0.02-8.81c0-0.6,0.05-0.77,0.17-0.77
		c0.12,0,0.39,0.34,0.54,0.49c0.23,0.26,2.52,2.74,4.89,5.28c1.52,1.63,3.2,3.51,3.69,4.01l-0.17-7.81c-0.01-1-0.12-1.34-0.6-1.46
		c-0.28-0.06-0.63-0.08-0.75-0.08c-0.11,0-0.12-0.05-0.12-0.11c0-0.09,0.12-0.11,0.31-0.11c0.69,0,1.43,0.05,1.6,0.05
		c0.17,0,0.68-0.05,1.31-0.05c0.17,0,0.28,0.02,0.28,0.11c0,0.06-0.06,0.11-0.17,0.11c-0.08,0-0.18,0-0.37,0.05
		c-0.51,0.11-0.57,0.45-0.57,1.37l-0.03,9.01c0,1.01-0.03,1.09-0.14,1.09c-0.12,0-0.31-0.17-1.12-0.98
		c-0.17-0.15-2.38-2.41-4.01-4.17c-1.78-1.92-3.52-3.86-4.01-4.41L542.05,756.71L542.05,756.71z"/>
	<path class="st2" d="M557.49,754.34c0,1.48,0,2.69,0.08,3.34c0.05,0.45,0.14,0.78,0.6,0.85c0.22,0.03,0.55,0.06,0.69,0.06
		c0.09,0,0.12,0.05,0.12,0.09c0,0.08-0.08,0.12-0.25,0.12c-0.85,0-1.82-0.05-1.89-0.05c-0.08,0-1.05,0.05-1.51,0.05
		c-0.17,0-0.25-0.03-0.25-0.12c0-0.05,0.03-0.09,0.12-0.09c0.14,0,0.32-0.03,0.46-0.06c0.31-0.06,0.39-0.4,0.45-0.85
		c0.08-0.65,0.08-1.86,0.08-3.34v-2.71c0-2.4,0-2.83-0.03-3.32c-0.03-0.52-0.19-0.78-0.52-0.86c-0.17-0.05-0.37-0.06-0.48-0.06
		c-0.06,0-0.12-0.03-0.12-0.09c0-0.09,0.08-0.12,0.24-0.12c0.51,0,1.48,0.05,1.55,0.05c0.08,0,1.05-0.05,1.51-0.05
		c0.17,0,0.25,0.03,0.25,0.12c0,0.06-0.06,0.09-0.12,0.09c-0.11,0-0.2,0.02-0.38,0.05c-0.42,0.08-0.54,0.34-0.57,0.88
		c-0.03,0.49-0.03,0.92-0.03,3.32V754.34L557.49,754.34z"/>
</g>
</svg>
