<?xml version="1.0" encoding="UTF-8" standalone="no"?>
<!DOCTYPE svg PUBLIC "-//W3C//DTD SVG 1.1//EN" "http://www.w3.org/Graphics/SVG/1.1/DTD/svg11.dtd">
<svg width="100%" height="100%" viewBox="0 0 612 792" version="1.1" xmlns="http://www.w3.org/2000/svg" xmlns:xlink="http://www.w3.org/1999/xlink" xml:space="preserve" xmlns:serif="http://www.serif.com/" style="fill-rule:evenodd;clip-rule:evenodd;stroke-linejoin:round;stroke-miterlimit:2;">
    <rect x="450.65" y="0" width="161.35" height="792" style="fill:rgb(50,66,97);fill-rule:nonzero;"/>
    <g transform="matrix(0.24,0,0,0.24,128.2,739.4)">
        <g transform="matrix(1,0,0,1,-62.5,-62.5)">
            <clipPath id="_clip1">
                <rect x="0" y="0" width="125" height="125"/>
            </clipPath>
            <g clip-path="url(#_clip1)">
                <g transform="matrix(4.16667,0,0,4.16667,0,0)">
                    <path d="M29.559,15.22C29.559,23.383 22.942,30 14.779,30C6.617,30 0,23.383 0,15.22C0,7.058 6.617,0.44 14.779,0.44C22.942,0.44 29.559,7.058 29.559,15.22Z" style="fill:rgb(140,193,179);fill-rule:nonzero;"/>
                    <path d="M7.579,12.156L8.389,12.966C10.135,11.148 12.277,10.248 14.779,10.248C17.281,10.248 19.423,11.148 21.169,12.966L21.979,12.156C19.999,10.14 17.587,9.132 14.779,9.132C11.971,9.132 9.559,10.14 7.579,12.156ZM9.577,14.154L10.351,14.964C11.575,13.704 13.051,13.056 14.779,13.056C16.507,13.056 17.983,13.704 19.207,14.964L19.981,14.154C18.559,12.678 16.813,11.94 14.779,11.94C12.745,11.94 10.999,12.678 9.577,14.154ZM11.539,16.152L12.313,16.926C12.997,16.224 13.825,15.882 14.779,15.882C15.733,15.882 16.561,16.224 17.245,16.926L18.019,16.152C17.119,15.216 16.039,14.748 14.779,14.748C13.519,14.748 12.439,15.216 11.539,16.152ZM13.519,18.132L14.779,19.392L16.039,18.132C15.697,17.754 15.265,17.556 14.779,17.556C14.293,17.556 13.861,17.754 13.519,18.132Z" style="fill:white;fill-rule:nonzero;"/>
                </g>
            </g>
        </g>
    </g>
    <g transform="matrix(0.24,0,0,0.24,58.5,739.4)">
        <g transform="matrix(1,0,0,1,-62.5,-62.5)">
            <clipPath id="_clip2">
                <rect x="0" y="0" width="125" height="125"/>
            </clipPath>
            <g clip-path="url(#_clip2)">
                <g transform="matrix(4.16667,0,0,4.16667,0,0)">
                    <path d="M29.559,15.22C29.559,23.383 22.942,30 14.779,30C6.617,30 0,23.383 0,15.22C0,7.058 6.617,0.44 14.779,0.44C22.942,0.44 29.559,7.058 29.559,15.22Z" style="fill:rgb(53,120,135);fill-rule:nonzero;"/>
                    <path d="M20.06,9.87L19.805,10.08C19.625,10.185 19.34,10.365 18.965,10.605C18.59,10.83 18.2,11.055 17.81,11.25C16.055,12.15 14.51,12.585 13.205,12.585L9.11,12.585L8.645,12.585L8.645,16.935L9.575,20.205L9.695,20.565L12.53,20.565L12.395,19.98L11.63,17.28L13.205,17.28C14.48,17.28 15.995,17.73 17.78,18.63C18.68,19.095 19.445,19.56 20.06,20.01L20.825,20.565L20.825,19.62L20.825,16.26C21.455,16.02 21.77,15.585 21.77,14.94C21.77,14.295 21.455,13.845 20.825,13.62L20.825,10.245L20.825,9.315L20.06,9.87ZM19.895,13.53L19.895,18.81C19.295,18.39 18.74,18.06 18.215,17.805C16.385,16.845 14.75,16.365 13.325,16.335L13.325,13.53C14.75,13.515 16.385,13.02 18.245,12.06C18.755,11.79 19.295,11.46 19.895,11.07L19.895,13.53ZM12.395,13.53L12.395,16.335L9.575,16.335L9.575,13.53L12.395,13.53ZM10.625,17.28L11.27,19.62L10.4,19.62L9.755,17.28L10.625,17.28Z" style="fill:white;fill-rule:nonzero;"/>
                </g>
            </g>
        </g>
    </g>
    <rect x="51.2" y="731.77" width="19.86" height="18.66" style="fill:none;fill-rule:nonzero;"/>
    <rect x="28.16" y="762.05" width="60.22" height="15.98" style="fill:none;fill-rule:nonzero;"/>
    <g transform="matrix(1,0,0,1,28.1626,768.604)">
        <text x="0px" y="0px" style="font-family:'Lato-Light', 'Lato', sans-serif;font-weight:300;font-size:9px;fill:rgb(1,1,1);">303-839-9422</text>
    </g>
    <rect x="111.08" y="762.05" width="35" height="16.18" style="fill:none;fill-rule:nonzero;"/>
    <g transform="matrix(1,0,0,1,111.082,768.604)">
        <text x="0px" y="0px" style="font-family:'Lato-Light', 'Lato', sans-serif;font-weight:300;font-size:9px;fill:rgb(1,1,1);">omni.org</text>
    </g>
    <rect x="156.92" y="763.48" width="85.09" height="19.93" style="fill:none;fill-rule:nonzero;"/>
    <g transform="matrix(1,0,0,1,159.905,770.039)">
        <text x="0px" y="0px" style="font-family:'Lato-Light', 'Lato', sans-serif;font-weight:300;font-size:9px;fill:rgb(1,1,1);">899 L<tspan x="21.852px 26.721px " y="0px 0px ">og</tspan>an St, St 600</text>
        <g transform="matrix(1,0,0,1,2.7,10.8)">
            <text x="0px" y="0px" style="font-family:'Lato-Light', 'Lato', sans-serif;font-weight:300;font-size:9px;fill:rgb(1,1,1);">Den<tspan x="16.196px 20.498px 25.097px 28.107px 29.885px " y="0px 0px 0px 0px 0px ">ver, </tspan>CO 80203</text>
        </g>
    </g>
    <path d="M214.25,739.17C214.25,747.33 207.63,753.95 199.47,753.95C191.31,753.95 184.69,747.33 184.69,739.17C184.69,731.01 191.31,724.39 199.47,724.39C207.63,724.39 214.25,731.01 214.25,739.17Z" style="fill:rgb(50,66,97);fill-rule:nonzero;"/>
    <g>
        <path d="M196.13,738.62L196.13,743.47L198.38,743.47L198.38,739.95L200.56,739.95L200.56,743.47L202.81,743.47L202.81,738.62L196.13,738.62Z" style="fill:white;fill-rule:nonzero;"/>
        <path d="M199.47,734.52L194.56,738.74L204.38,738.74L199.47,734.52Z" style="fill:white;fill-rule:nonzero;"/>
        <path d="M525.22,731.45C525.22,725.72 529.87,721.07 535.6,721.07C541.33,721.07 545.98,725.72 545.98,731.45C545.98,731.58 545.97,731.7 545.96,731.83C546.08,731.16 546.16,730.47 546.16,729.76C546.16,723.39 541,718.23 534.62,718.23C528.25,718.23 523.08,723.39 523.08,729.76C523.08,734.72 526.22,738.94 530.61,740.57C527.41,738.79 525.22,735.38 525.22,731.45Z" style="fill:white;fill-rule:nonzero;"/>
        <path d="M535.21,723.28C534.95,723.28 534.69,723.3 534.44,723.32C538.69,723.35 542.12,726.8 542.12,731.05C542.12,735.32 538.66,738.78 534.38,738.78C530.13,738.78 526.68,735.35 526.65,731.1C526.63,731.35 526.61,731.61 526.61,731.87C526.61,736.62 530.46,740.46 535.21,740.46C539.96,740.46 543.8,736.61 543.8,731.87C543.8,727.13 539.96,723.28 535.21,723.28Z" style="fill:white;fill-rule:nonzero;"/>
        <path d="M516.19,758.43C517.57,758.43 520.44,757.63 520.44,753.15C520.44,749.46 518.19,747.47 515.76,747.47C513.19,747.47 511.27,749.16 511.27,752.53C511.26,756.13 513.42,758.43 516.19,758.43ZM515.86,746.96C519.32,746.96 521.91,749.14 521.91,752.73C521.91,756.18 519.48,759.02 515.77,759.02C511.56,759.02 509.8,755.74 509.8,752.97C509.8,750.48 511.62,746.96 515.86,746.96Z" style="fill:white;fill-rule:nonzero;"/>
        <path d="M536.92,756.82C536.98,757.37 537.09,758.23 537.75,758.45C538.2,758.59 538.6,758.59 538.75,758.59C538.83,758.59 538.87,758.61 538.87,758.67C538.87,758.76 538.73,758.81 538.55,758.81C538.21,758.81 536.55,758.76 535.98,758.72C535.63,758.69 535.55,758.64 535.55,758.57C535.55,758.51 535.58,758.48 535.66,758.46C535.74,758.44 535.75,758.18 535.72,757.91L534.98,749.97L534.93,749.97L531.16,757.97C530.84,758.65 530.79,758.79 530.65,758.79C530.54,758.79 530.47,758.64 530.17,758.08C529.77,757.33 528.45,754.66 528.37,754.51C528.23,754.23 526.51,750.54 526.34,750.13L526.28,750.13L525.66,757.27C525.65,757.52 525.65,757.79 525.65,758.05C525.65,758.28 525.82,758.48 526.05,758.53C526.31,758.59 526.54,758.61 526.64,758.61C526.7,758.61 526.76,758.64 526.76,758.69C526.76,758.8 526.67,758.83 526.48,758.83C525.91,758.83 525.17,758.78 525.05,758.78C524.91,758.78 524.17,758.83 523.76,758.83C523.61,758.83 523.5,758.8 523.5,758.69C523.5,758.64 523.58,758.61 523.65,758.61C523.77,758.61 523.88,758.61 524.11,758.56C524.62,758.47 524.66,757.87 524.73,757.28L525.84,747.25C525.87,747.08 525.92,746.97 526.01,746.97C526.1,746.97 526.16,747.03 526.24,747.2L530.95,756.87L535.47,747.21C535.53,747.07 535.59,746.96 535.7,746.96C535.81,746.96 535.85,747.08 535.89,747.38L536.92,756.82Z" style="fill:white;fill-rule:nonzero;"/>
        <path d="M542.05,756.71C542.08,757.97 542.23,758.37 542.65,758.5C542.94,758.58 543.28,758.59 543.42,758.59C543.5,758.59 543.54,758.62 543.54,758.68C543.54,758.77 543.45,758.8 543.26,758.8C542.38,758.8 541.77,758.75 541.63,758.75C541.49,758.75 540.85,758.8 540.15,758.8C540,758.8 539.9,758.78 539.9,758.68C539.9,758.62 539.95,758.59 540.02,758.59C540.14,758.59 540.42,758.57 540.65,758.5C541.03,758.39 541.11,757.95 541.11,756.55L541.13,747.74C541.13,747.14 541.18,746.97 541.3,746.97C541.42,746.97 541.69,747.31 541.84,747.46C542.07,747.72 544.36,750.2 546.73,752.74C548.25,754.37 549.93,756.25 550.42,756.75L550.25,748.94C550.24,747.94 550.13,747.6 549.65,747.48C549.37,747.42 549.02,747.4 548.9,747.4C548.79,747.4 548.78,747.35 548.78,747.29C548.78,747.2 548.9,747.18 549.09,747.18C549.78,747.18 550.52,747.23 550.69,747.23C550.86,747.23 551.37,747.18 552,747.18C552.17,747.18 552.28,747.2 552.28,747.29C552.28,747.35 552.22,747.4 552.11,747.4C552.03,747.4 551.93,747.4 551.74,747.45C551.23,747.56 551.17,747.9 551.17,748.82L551.14,757.83C551.14,758.84 551.11,758.92 551,758.92C550.88,758.92 550.69,758.75 549.88,757.94C549.71,757.79 547.5,755.53 545.87,753.77C544.09,751.85 542.35,749.91 541.86,749.36L542.05,756.71Z" style="fill:white;fill-rule:nonzero;"/>
        <path d="M557.49,754.34C557.49,755.82 557.49,757.03 557.57,757.68C557.62,758.13 557.71,758.46 558.17,758.53C558.39,758.56 558.72,758.59 558.86,758.59C558.95,758.59 558.98,758.64 558.98,758.68C558.98,758.76 558.9,758.8 558.73,758.8C557.88,758.8 556.91,758.75 556.84,758.75C556.76,758.75 555.79,758.8 555.33,758.8C555.16,758.8 555.08,758.77 555.08,758.68C555.08,758.63 555.11,758.59 555.2,758.59C555.34,758.59 555.52,758.56 555.66,758.53C555.97,758.47 556.05,758.13 556.11,757.68C556.19,757.03 556.19,755.82 556.19,754.34L556.19,751.63C556.19,749.23 556.19,748.8 556.16,748.31C556.13,747.79 555.97,747.53 555.64,747.45C555.47,747.4 555.27,747.39 555.16,747.39C555.1,747.39 555.04,747.36 555.04,747.3C555.04,747.21 555.12,747.18 555.28,747.18C555.79,747.18 556.76,747.23 556.83,747.23C556.91,747.23 557.88,747.18 558.34,747.18C558.51,747.18 558.59,747.21 558.59,747.3C558.59,747.36 558.53,747.39 558.47,747.39C558.36,747.39 558.27,747.41 558.09,747.44C557.67,747.52 557.55,747.78 557.52,748.32C557.49,748.81 557.49,749.24 557.49,751.64L557.49,754.34Z" style="fill:white;fill-rule:nonzero;"/>
    </g>
</svg>
