<?xml version="1.0" encoding="UTF-8"?>
<svg width="124px" height="103px" viewBox="0 0 124 103" version="1.1" xmlns="http://www.w3.org/2000/svg" xmlns:xlink="http://www.w3.org/1999/xlink">
    <!-- Generator: Sketch 52.6 (67491) - http://www.bohemiancoding.com/sketch -->
    <title>OMNI Logo_Stacked_COLOR</title>
    <desc>Created with Sketch.</desc>
    <defs>
        <polygon id="path-1" points="0.06 0.064 85.563 0.064 85.563 89.94 0.06 89.94"></polygon>
    </defs>
    <g id="OMNI-Logo_Stacked_COLOR" stroke="none" stroke-width="1" fill="none" fill-rule="evenodd">
        <path d="M38.793,33.612 C38.793,19.18 50.491,7.485 64.923,7.485 C79.354,7.485 91.051,19.18 91.051,33.612 C91.051,33.931 91.018,34.245 91.004,34.561 C91.314,32.865 91.496,31.126 91.496,29.34 C91.496,13.308 78.5,0.312 62.465,0.312 C46.432,0.312 33.434,13.308 33.434,29.34 C33.434,41.828 41.334,52.445 52.396,56.543 C44.295,52.105 38.793,43.502 38.793,33.612" id="Fill-1" fill="#7F8269"></path>
        <g id="Group-5" transform="translate(0.000000, 13.000000)">
            <mask id="mask-2" fill="white">
                <use xlink:href="#path-1"></use>
            </mask>
            <g id="Clip-3"></g>
            <path d="M63.937,0.064 C63.274,0.064 62.631,0.105 61.988,0.163 C72.681,0.233 81.328,8.914 81.328,19.622 C81.328,30.372 72.613,39.086 61.861,39.086 C51.158,39.086 42.481,30.447 42.404,19.759 C42.348,20.399 42.307,21.039 42.307,21.691 C42.307,33.637 51.989,43.32 63.937,43.32 C75.88,43.32 85.563,33.637 85.563,21.691 C85.563,9.748 75.88,0.064 63.937,0.064" id="Fill-2" fill="#7F8269" mask="url(#mask-2)"></path>
            <path d="M16.063,88.528 C19.547,88.528 26.747,86.512 26.747,75.251 C26.747,65.958 21.094,60.968 14.978,60.968 C8.515,60.968 3.676,65.228 3.676,73.702 C3.676,82.72 9.096,88.528 16.063,88.528 Z M15.251,59.652 C23.96,59.652 30.464,65.149 30.464,74.166 C30.464,82.838 24.347,90 15.019,90 C4.412,90 0,81.753 0,74.785 C0,68.513 4.566,59.652 15.251,59.652 Z" id="Fill-4" fill="#1A1919" mask="url(#mask-2)"></path>
        </g>
        <path d="M68.25,97.465 C68.404,98.855 68.674,101.025 70.34,101.566 C71.463,101.914 72.469,101.914 72.856,101.914 C73.049,101.914 73.164,101.954 73.164,102.108 C73.164,102.342 72.815,102.457 72.353,102.457 C71.5,102.457 67.322,102.342 65.888,102.224 C65,102.146 64.805,102.031 64.805,101.838 C64.805,101.684 64.882,101.605 65.074,101.566 C65.27,101.528 65.307,100.87 65.229,100.171 L63.373,80.198 L63.254,80.198 L53.773,100.327 C52.961,102.031 52.844,102.378 52.495,102.378 C52.226,102.378 52.031,101.991 51.297,100.6 C50.287,98.703 46.961,92.003 46.769,91.62 C46.419,90.92 42.083,81.632 41.658,80.585 L41.503,80.585 L39.953,98.548 C39.916,99.165 39.916,99.864 39.916,100.523 C39.916,101.103 40.342,101.605 40.922,101.72 C41.58,101.875 42.16,101.914 42.395,101.914 C42.547,101.914 42.702,101.991 42.702,102.108 C42.702,102.378 42.473,102.457 42.006,102.457 C40.575,102.457 38.715,102.342 38.406,102.342 C38.058,102.342 36.201,102.457 35.155,102.457 C34.768,102.457 34.496,102.378 34.496,102.108 C34.496,101.991 34.691,101.914 34.886,101.914 C35.192,101.914 35.465,101.914 36.046,101.797 C37.32,101.566 37.439,100.057 37.594,98.584 L40.379,73.35 C40.457,72.921 40.575,72.652 40.806,72.652 C41.038,72.652 41.192,72.806 41.386,73.233 L53.231,97.579 L64.611,73.272 C64.766,72.921 64.923,72.652 65.192,72.652 C65.462,72.652 65.58,72.962 65.658,73.699 L68.25,97.465" id="Fill-6" fill="#1A1919"></path>
        <path d="M81.14,97.191 C81.217,100.368 81.602,101.374 82.646,101.684 C83.384,101.875 84.233,101.914 84.585,101.914 C84.777,101.914 84.892,101.991 84.892,102.146 C84.892,102.378 84.66,102.457 84.197,102.457 C81.989,102.457 80.441,102.342 80.093,102.342 C79.745,102.342 78.118,102.457 76.377,102.457 C75.988,102.457 75.76,102.419 75.76,102.146 C75.76,101.991 75.874,101.914 76.065,101.914 C76.377,101.914 77.075,101.875 77.656,101.684 C78.621,101.41 78.816,100.289 78.816,96.767 L78.854,74.587 C78.854,73.076 78.973,72.652 79.278,72.652 C79.59,72.652 80.248,73.502 80.636,73.89 C81.217,74.549 86.983,80.781 92.945,87.166 C96.775,91.272 100.994,95.994 102.233,97.268 L101.807,77.607 C101.771,75.091 101.496,74.239 100.299,73.93 C99.602,73.776 98.712,73.735 98.402,73.735 C98.133,73.735 98.092,73.621 98.092,73.465 C98.092,73.233 98.402,73.195 98.864,73.195 C100.609,73.195 102.465,73.31 102.892,73.31 C103.316,73.31 104.596,73.195 106.183,73.195 C106.606,73.195 106.88,73.233 106.88,73.465 C106.88,73.621 106.725,73.735 106.452,73.735 C106.26,73.735 105.989,73.735 105.523,73.853 C104.246,74.122 104.092,74.973 104.092,77.294 L104.015,99.98 C104.015,102.534 103.938,102.726 103.668,102.726 C103.357,102.726 102.892,102.301 100.839,100.249 C100.413,99.864 94.842,94.174 90.737,89.759 C86.249,84.922 81.875,80.046 80.636,78.652 L81.14,97.191" id="Fill-7" fill="#1A1919"></path>
        <path d="M119.999,91.231 C119.999,94.947 119.999,98.005 120.194,99.63 C120.309,100.751 120.543,101.605 121.703,101.761 C122.247,101.838 123.096,101.914 123.444,101.914 C123.677,101.914 123.754,102.031 123.754,102.146 C123.754,102.342 123.564,102.457 123.136,102.457 C121.007,102.457 118.567,102.342 118.375,102.342 C118.181,102.342 115.743,102.457 114.581,102.457 C114.157,102.457 113.961,102.378 113.961,102.146 C113.961,102.031 114.039,101.914 114.271,101.914 C114.62,101.914 115.085,101.838 115.432,101.761 C116.205,101.605 116.401,100.751 116.557,99.63 C116.749,98.005 116.749,94.947 116.749,91.231 L116.749,84.421 C116.749,78.38 116.749,77.294 116.671,76.056 C116.594,74.74 116.205,74.081 115.354,73.89 C114.93,73.776 114.427,73.735 114.157,73.735 C114.001,73.735 113.847,73.658 113.847,73.502 C113.847,73.272 114.039,73.195 114.463,73.195 C115.743,73.195 118.181,73.31 118.375,73.31 C118.567,73.31 121.007,73.195 122.167,73.195 C122.594,73.195 122.786,73.272 122.786,73.502 C122.786,73.658 122.632,73.735 122.477,73.735 C122.207,73.735 121.973,73.776 121.511,73.853 C120.464,74.045 120.154,74.704 120.077,76.056 C119.999,77.294 119.999,78.38 119.999,84.421 L119.999,91.231" id="Fill-8" fill="#1A1919"></path>
    </g>
</svg>