<svg width="70" height="70" viewBox="0 0 70 70" fill="none" xmlns="http://www.w3.org/2000/svg">
<g clip-path="url(#clip0_1027_276)">
<path fill-rule="evenodd" clip-rule="evenodd" d="M52.7337 32.1006C51.7818 26.2907 48.6142 21.9029 43.3182 19.06C39.8823 17.2152 36.1159 16.6051 32.124 17.2473C28.3747 17.8504 25.1081 19.5058 22.4142 22.1673C20.6595 23.9011 19.3157 25.868 18.4198 28.0139C17.5287 30.1487 17.051 32.5323 17 35.0988V35.1129L17.026 35.5315L17.0337 35.6552L17.0337 35.6553C17.0563 36.0152 17.0811 36.4122 17.1079 36.808C17.1192 36.9753 17.1393 37.1568 17.1707 37.3799C17.7621 41.6003 19.5766 45.1694 22.5628 47.9877C26.0948 51.3211 30.2123 53.0006 34.8345 53.0006C35.7364 53.0006 36.6579 52.9368 37.598 52.8086C41.8465 52.2292 45.4638 50.2934 48.3499 47.0544C52.18 42.7556 53.6547 37.7241 52.7337 32.1006ZM36.7137 31.45H33.2426V45.267H36.7137V31.45ZM33.1268 24.7294H36.8736V28.6291H33.1268V24.7294Z" fill="white"/>
</g>
<defs>
<clipPath id="clip0_1027_276">
<rect width="36" height="36" fill="white" transform="translate(17 17)"/>
</clipPath>
</defs>
</svg>
