<svg width="70" height="70" viewBox="0 0 70 70" fill="none" xmlns="http://www.w3.org/2000/svg">
<path d="M17.3161 15.0078H16.5196C15.6434 15.0078 14.9266 15.7247 14.9266 16.601V29.8722C12.6407 30.6927 10.9999 32.8754 10.9999 35.4404C10.9999 38.0054 12.6407 40.1881 14.9266 41.0086V54.2878C14.9266 55.164 15.6434 55.881 16.5196 55.881H17.3161C18.1922 55.881 18.9091 55.164 18.9091 54.2878V41.0166C21.195 40.1961 22.8438 38.0134 22.8438 35.4483C22.8438 32.8833 21.203 30.7007 18.9091 29.8802V16.609C18.9091 15.7327 18.1922 15.0158 17.3161 15.0158V15.0078Z" fill="white"/>
<path d="M35.7632 15.0082H34.9667C34.0905 15.0082 33.3737 15.7252 33.3737 16.6014V36.0223C31.0877 36.8428 29.439 39.0255 29.439 41.5905C29.439 44.1555 31.0798 46.3382 33.3737 47.1587V54.2802C33.3737 55.1565 34.0905 55.8734 34.9667 55.8734H35.7632C36.6393 55.8734 37.3561 55.1565 37.3561 54.2802V47.1507C39.6421 46.3302 41.2829 44.1475 41.2829 41.5825C41.2829 39.0175 39.6421 36.8348 37.3561 36.0143V16.5934C37.3561 15.7172 36.6393 15.0002 35.7632 15.0002V15.0082Z" fill="white"/>
<path d="M54.2021 15.0081H53.4056C52.5295 15.0081 51.8126 15.725 51.8126 16.6012V23.7228C49.5267 24.5433 47.8779 26.7259 47.8779 29.2909C47.8779 31.856 49.5187 34.0386 51.8126 34.8591V54.28C51.8126 55.1563 52.5295 55.8732 53.4056 55.8732H54.2021C55.0783 55.8732 55.7951 55.1563 55.7951 54.28V34.8591C58.0811 34.0386 59.7218 31.856 59.7218 29.2909C59.7218 26.7259 58.0811 24.5433 55.7951 23.7228V16.6012C55.7951 15.725 55.0783 15.0081 54.2021 15.0081Z" fill="white"/>
</svg>
