<svg width="70" height="70" viewBox="0 0 70 70" fill="none" xmlns="http://www.w3.org/2000/svg">
<path d="M45.8499 36.2107L36.6353 26.9882L35.8001 27.742C33.9123 29.4398 31.7937 30.8524 29.5053 31.9526C28.8195 32.2786 28.0929 32.4415 27.3392 32.4415C25.5872 32.4415 23.9915 31.5519 23.068 30.0578C22.2667 28.7539 22.4161 27.0629 23.4347 25.8473L26.8435 21.7793H18.9734L16.7936 36.7744L31.3116 51.3552C32.0314 52.0818 33.0024 52.4825 34.0278 52.4825C35.0531 52.4825 35.9427 52.109 36.6557 51.4434L31.3795 46.1666C30.9856 45.766 30.9856 45.1208 31.3795 44.7269C31.7801 44.3262 32.4252 44.3262 32.8191 44.7269L38.1903 50.092H38.1971C39.0663 50.9137 40.4515 50.8934 41.2935 50.0512L42.2713 49.0665C42.3121 49.0326 42.3121 48.9578 42.2713 48.9171L35.4538 42.0919C35.0531 41.698 35.0531 41.0528 35.4538 40.6522C35.8476 40.2583 36.4927 40.2583 36.8933 40.6522L43.7109 47.4774L43.9622 47.7286C44.4443 48.2176 45.232 48.2176 45.7141 47.7286L47.3913 46.058C47.3913 46.058 47.4253 46.0104 47.4253 45.9833C47.4253 45.9493 47.4117 45.9222 47.3913 45.9018L46.9499 45.4604L39.5144 38.0239C39.4194 37.9289 39.3447 37.8134 39.2971 37.6912C39.2971 37.6912 39.2971 37.6844 39.2971 37.6776C39.2496 37.5621 39.2224 37.4331 39.2224 37.3041C39.2224 37.175 39.2496 37.0528 39.2971 36.9373C39.2971 36.9306 39.2971 36.9238 39.2971 36.917C39.399 36.6657 39.6027 36.4688 39.854 36.3601C39.9762 36.3126 40.0984 36.2854 40.2342 36.2854C40.37 36.2854 40.4923 36.3126 40.6077 36.3601C40.6145 36.3601 40.6213 36.3601 40.6281 36.3669C40.7435 36.4144 40.8521 36.4891 40.9404 36.5774C40.9472 36.5774 40.954 36.5842 40.954 36.5842L40.9947 36.625L48.3895 44.0206C49.9649 45.5894 50.4266 45.1344 51.5403 44.0206L52.1718 43.3958C52.4027 43.1649 52.4027 42.7982 52.1718 42.5673L45.8431 36.2175L45.8499 36.2107Z" fill="white"/>
<path d="M39.2156 18.7028C36.1803 17.2699 32.5678 18.078 30.4288 20.6723L29.8245 21.4057L24.9965 27.1579C24.5483 27.6944 24.4668 28.4482 24.8064 28.9915C25.3496 29.8744 26.3002 30.4041 27.3392 30.4041C27.7874 30.4041 28.2151 30.309 28.6226 30.1121C30.7412 29.1002 32.6968 27.7895 34.4352 26.2275L35.9902 24.8285C35.9902 24.8285 36.0038 24.8217 36.0106 24.8149C36.0988 24.747 36.1939 24.6859 36.2958 24.6451C36.3026 24.6384 36.3161 24.6384 36.3297 24.6316C36.4316 24.5976 36.547 24.5704 36.6692 24.5704C36.9409 24.5704 37.1989 24.6791 37.3958 24.8693L50.2501 37.7455L53.8898 34.4721L52.0428 21.7657C47.6222 21.6434 43.2084 20.5908 39.2156 18.7028Z" fill="white"/>
<path d="M8 18.8184V38.3568H14.512C14.512 38.3092 14.512 38.2617 14.5256 38.2141L17.3436 18.8184H8Z" fill="white"/>
<path d="M53.6725 18.8184L56.4905 38.2141C56.4973 38.2617 56.5041 38.3092 56.5041 38.3568H62.3371V18.8184H53.6725Z" fill="white"/>
</svg>
