<svg width="70" height="70" viewBox="0 0 70 70" fill="none" xmlns="http://www.w3.org/2000/svg">
<path d="M37.6361 39.0371L24.1934 50.1229C24.1785 50.1355 24.1672 50.1519 24.1607 50.1703C24.1543 50.1888 24.1529 50.2086 24.1568 50.2278C25.0694 54.6926 25.652 57.5289 25.9044 58.7367C25.9603 58.9533 25.9575 59.1808 25.8962 59.3958C25.835 59.6109 25.7175 59.8058 25.5559 59.9603C24.9821 60.5297 24.4096 61.1001 23.8384 61.6713C23.6118 61.9294 23.3252 62.1278 23.0038 62.2491C22.8543 62.2919 22.6974 62.302 22.5437 62.2787C22.3899 62.2554 22.243 62.1992 22.1129 62.1141C21.8846 61.9445 21.7022 61.7207 21.582 61.4629C20.4187 59.3022 19.2746 57.1184 18.1496 54.9113C18.1419 54.8968 18.1311 54.8842 18.1179 54.8745C18.1047 54.8648 18.0895 54.8582 18.0734 54.8551C18.0573 54.8521 18.0407 54.8528 18.0248 54.857C18.009 54.8613 17.9944 54.8691 17.982 54.8798C17.1845 55.5724 16.3609 56.2515 15.5111 56.9171C15.1821 57.2076 14.7935 57.4226 14.3726 57.5471C14.0203 57.6203 13.654 57.583 13.3237 57.4404C13.0084 57.3052 12.7365 57.0859 12.5377 56.8064C12.2574 56.4444 12.1219 55.991 12.1578 55.5346C12.1936 55.0781 12.3982 54.6514 12.7316 54.3376C13.4502 53.4537 14.1603 52.5881 14.8617 51.741C14.8706 51.7302 14.8769 51.7176 14.8803 51.7041C14.8837 51.6905 14.884 51.6764 14.8812 51.6627C14.8785 51.6491 14.8727 51.6362 14.8643 51.625C14.856 51.6138 14.8452 51.6047 14.8329 51.5982C12.7333 50.5065 10.6721 49.4304 8.64931 48.3701C8.28532 48.209 7.95337 47.9836 7.66939 47.7047C7.56833 47.5747 7.49911 47.4229 7.46726 47.2613C7.4354 47.0998 7.44181 46.9331 7.48597 46.7745C7.5702 46.497 7.72613 46.2467 7.93803 46.0488C8.37107 45.5946 8.8108 45.1474 9.2572 44.7073C9.69077 44.2775 9.90911 44.0618 9.9122 44.06C10.0912 43.9299 10.2996 43.8463 10.5188 43.8164C10.7314 43.7985 10.9455 43.8148 11.1529 43.8649C13.9424 44.4282 16.7084 45.0028 19.451 45.5889C19.4893 45.5972 19.5291 45.5947 19.5661 45.5818C19.6031 45.5689 19.6358 45.546 19.6606 45.5156L30.6835 32.1462C30.6941 32.1335 30.7016 32.1186 30.7057 32.1026C30.7097 32.0865 30.7102 32.0698 30.7069 32.0536C30.7036 32.0374 30.6968 32.0221 30.6869 32.0089C30.6769 31.9957 30.6642 31.9849 30.6495 31.9772C22.4439 27.6976 14.238 23.4158 6.03182 19.1318C5.86737 19.0471 5.70731 18.9541 5.55228 18.8531C5.39686 18.7541 5.26783 18.6187 5.17626 18.4588C5.02866 18.227 4.97089 17.9493 5.01385 17.6779C5.0568 17.4066 5.19751 17.1602 5.40946 16.9854C6.47419 15.9208 7.53888 14.8566 8.60352 13.7928C8.77089 13.621 8.98729 13.5051 9.22309 13.461C9.44814 13.4361 9.67584 13.452 9.89521 13.5081C20.4002 15.6582 30.8957 17.8292 41.3816 20.0212C41.4153 20.0284 41.4501 20.0269 41.4831 20.0171C41.516 20.0073 41.546 19.9894 41.5702 19.965C45.5949 15.9396 49.592 11.9421 53.5614 7.97248C54.6069 6.92713 55.2384 6.32451 55.4558 6.16462C56.0186 5.7487 56.6501 5.43477 57.3214 5.23713C57.9811 5.04104 58.6707 4.96559 59.3572 5.01441C60.7263 5.10108 62.0169 5.68374 62.9875 6.65332C63.9845 7.60418 64.5917 8.89232 64.6905 10.2665C64.7712 11.0086 64.7026 11.7594 64.4889 12.4746C64.2751 13.1898 63.9205 13.8551 63.4459 14.4312C63.1426 14.8023 62.8194 15.1568 62.4778 15.493C58.276 19.6756 54.0449 23.8975 49.7845 28.1588C49.7605 28.1827 49.7427 28.2122 49.7329 28.2446C49.723 28.2771 49.7214 28.3114 49.7281 28.3447C51.9038 38.8934 54.0803 49.4085 56.2576 59.89C56.3201 60.1607 56.3051 60.4435 56.2143 60.7061C56.1026 60.9445 55.944 61.1579 55.7479 61.3337C54.9033 62.1773 54.0592 63.0215 53.2155 63.8661C52.9189 64.2063 52.5537 64.48 52.1439 64.6691C51.9544 64.7359 51.7492 64.7446 51.5548 64.6939C51.3603 64.6433 51.1854 64.5357 51.0526 64.3849C50.8308 64.1157 50.6442 63.8195 50.4971 63.5032C46.2533 55.345 41.9934 47.1945 37.7173 39.0518C37.7135 39.0449 37.7082 39.0389 37.7018 39.0342C37.6954 39.0296 37.688 39.0265 37.6802 39.0251C37.6724 39.0237 37.6644 39.024 37.6568 39.0261C37.6492 39.0282 37.6421 39.0319 37.6361 39.0371Z" fill="white"/>
</svg>
