<svg width="70" height="70" viewBox="0 0 70 70" fill="none" xmlns="http://www.w3.org/2000/svg">
<path fill-rule="evenodd" clip-rule="evenodd" d="M16.5577 10H52.8678C54.2779 10 55.4254 11.1476 55.4254 12.5577V58.0709C55.4254 59.481 54.2779 60.6286 52.8678 60.6286H16.5577C15.1476 60.6286 14 59.481 14 58.0709V12.5577C14 11.1476 15.1476 10 16.5577 10ZM20.0454 47.1201L27.0434 54.5907L27.0359 54.5756L37.7017 43.0623L34.7165 40.3021L27.0209 48.6202L23.0081 44.3374L20.0454 47.1201ZM50 17.3187H18.5969V20.6833H50V17.3187ZM18.5969 25H50V28.3646H18.5969V25ZM50 33H18.5969V36.3646H50V33Z" fill="white"/>
</svg>
