<svg width="70" height="70" viewBox="0 0 70 70" fill="none" xmlns="http://www.w3.org/2000/svg">
<path d="M60.7599 54.8126H12.779V12.5932C12.779 11.7169 12.0621 11 11.186 11H9.59299C8.71685 11 8 11.7169 8 12.5932V57.2023C8 58.5247 9.06731 59.5921 10.3895 59.5921H60.7599C61.6361 59.5921 62.3529 58.8752 62.3529 57.9989V56.4058C62.3529 55.5295 61.6361 54.8126 60.7599 54.8126Z" fill="white"/>
<path d="M20.6879 24.2712H19.0949C18.2152 24.2712 17.502 24.9845 17.502 25.8644V50.7101C17.502 51.59 18.2152 52.3033 19.0949 52.3033H20.6879C21.5677 52.3033 22.2809 51.59 22.2809 50.7101V25.8644C22.2809 24.9845 21.5677 24.2712 20.6879 24.2712Z" fill="white"/>
<path d="M30.1026 31.6318H28.5096C27.6298 31.6318 26.9166 32.3451 26.9166 33.225V50.7102C26.9166 51.5901 27.6298 52.3034 28.5096 52.3034H30.1026C30.9824 52.3034 31.6956 51.5901 31.6956 50.7102V33.225C31.6956 32.3451 30.9824 31.6318 30.1026 31.6318Z" fill="white"/>
<path d="M39.5252 22.0249H37.9322C37.0524 22.0249 36.3392 22.7382 36.3392 23.6181V50.7181C36.3392 51.598 37.0524 52.3113 37.9322 52.3113H39.5252C40.405 52.3113 41.1182 51.598 41.1182 50.7181V23.6181C41.1182 22.7382 40.405 22.0249 39.5252 22.0249Z" fill="white"/>
<path d="M48.9478 37.3115H47.3548C46.475 37.3115 45.7618 38.0248 45.7618 38.9047V50.7102C45.7618 51.5901 46.475 52.3034 47.3548 52.3034H48.9478C49.8276 52.3034 50.5408 51.5901 50.5408 50.7102V38.9047C50.5408 38.0248 49.8276 37.3115 48.9478 37.3115Z" fill="white"/>
</svg>
