<svg width="70" height="70" viewBox="0 0 70 70" fill="none" xmlns="http://www.w3.org/2000/svg">
<path fill-rule="evenodd" clip-rule="evenodd" d="M56.266 30.3693C61.0903 30.3693 65 34.3496 65 39.2659V54.3962C65 54.8843 64.6131 55.28 64.1192 55.28H62.3903C61.9038 55.28 61.5094 54.8745 61.5094 54.3881V44.604H9.1497V54.3881C9.1497 54.8807 8.76278 55.28 8.26884 55.28H6.53992C6.05345 55.28 5.65906 54.875 5.65906 54.3872V15.248C5.65906 14.7549 6.04598 14.3552 6.53992 14.3552H8.26884C8.75531 14.3552 9.1497 14.751 9.1497 15.2521V23.0417C9.26761 23.0217 9.39119 23.0017 9.52015 22.9817C12.1477 22.5741 14.9155 22.5206 17.5544 23.0586C18.887 23.3302 20.1335 23.7476 21.2748 24.3294C22.3691 24.8872 23.3438 25.5083 24.2043 26.1832C25.6512 27.3178 26.7183 28.554 27.4573 29.8097C27.5721 30.0048 27.6743 30.1917 27.7649 30.3693H56.266ZM9.15396 26.6578L9.1497 30.3708H23.5365C23.1306 29.9098 22.6466 29.4513 22.0761 29.0039C21.3938 28.4688 20.6092 27.9689 19.7138 27.5124C18.865 27.0798 17.9118 26.7605 16.8701 26.5482C14.6878 26.1033 12.3048 26.1493 10.0452 26.4998C9.71815 26.5506 9.15396 26.6578 9.15396 26.6578Z" fill="white"/>
</svg>
