<svg width="70" height="70" viewBox="0 0 70 70" fill="none" xmlns="http://www.w3.org/2000/svg">
<path fill-rule="evenodd" clip-rule="evenodd" d="M20.3029 19.4553L25.241 28.1989L20.1896 34.2225C18.6227 33.3315 16.8161 32.8213 14.8962 32.8213C8.8815 32.8213 4 37.8113 4 43.9597C4 50.108 8.8815 55.098 14.8962 55.098C20.1634 55.098 24.5633 51.2687 25.5745 46.1873H30.7349C31.4889 47.5195 32.8967 48.415 34.5094 48.415C36.9152 48.415 38.8678 46.419 38.8678 43.9597C38.8678 43.4406 38.7807 42.9416 38.6216 42.4783L45.8632 33.8438L46.8787 35.6416C44.6385 37.6821 43.2263 40.6538 43.2263 43.9597C43.2263 50.108 48.1078 55.098 54.1225 55.098C60.1372 55.098 65.0187 50.108 65.0187 43.9597C65.0187 37.8113 60.1372 32.8213 54.1225 32.8213C52.9065 32.8213 51.7384 33.0263 50.6466 33.4005L44.0283 21.683H51.9433C53.1462 21.683 54.1225 22.681 54.1225 23.9107V28.366H58.481V23.9107C58.481 20.2194 55.5543 17.2277 51.9433 17.2277H40.2538C39.4737 17.2277 38.7545 17.6532 38.3666 18.3415C37.9765 19.0299 37.9765 19.8808 38.3666 20.5692L41.5113 26.1383H29.1092L25.3347 19.4553H29.3576V15H17.0754V19.4553H20.3029ZM21.0613 41.732C20.1634 39.1368 17.7401 37.2767 14.8962 37.2767C11.2874 37.2767 8.35848 40.2707 8.35848 43.9597C8.35848 47.6487 11.2874 50.6427 14.8962 50.6427C17.7401 50.6427 20.1634 48.7826 21.0613 46.1873H14.8962V41.732H21.0613ZM49.1364 39.638C48.1689 40.8053 47.5848 42.3134 47.5848 43.9597C47.5848 47.6487 50.5137 50.6427 54.1225 50.6427C57.7313 50.6427 60.6602 47.6487 60.6602 43.9597C60.6602 40.2707 57.7313 37.2767 54.1225 37.2767C53.7041 37.2767 53.2966 37.3168 52.9 37.3925L56.0097 42.8971L52.2353 45.1248L49.1364 39.638ZM32.0621 40.2751L27.5511 32.2889L23.4977 37.1252C24.5088 38.4529 25.2345 40.0212 25.5745 41.732H30.7349C31.064 41.1506 31.5194 40.6516 32.0621 40.2751ZM31.6262 30.5937L36.1416 38.5888L42.8471 30.5937H31.6262Z" fill="white"/>
</svg>
