<svg width="70" height="70" viewBox="0 0 70 70" fill="none" xmlns="http://www.w3.org/2000/svg">
<path d="M48.5397 18.8379L28.1175 13.4172L27.3677 13.8886C26.548 14.4056 25.5782 14.6891 24.5814 14.7031C23.5846 14.7171 22.6057 14.4609 21.7689 13.9671L20.905 13.4583V21.4274L21.7691 20.9249C22.6064 20.432 23.5856 20.1769 24.5823 20.192C25.5791 20.2071 26.5484 20.4917 27.3673 21.0096L28.2106 21.5521H51.1203C50.9995 20.9295 50.6958 20.3483 50.2414 19.8704C49.787 19.3924 49.1989 19.0356 48.5397 18.8379Z" fill="white"/>
<path d="M30.5886 23.2952L29.62 56.4157H38.3359L37.3673 23.2952H30.5886Z" fill="white"/>
<path d="M19.7432 13.4172H18V21.5521H19.7432V13.4172Z" fill="white"/>
</svg>
