<svg width="70" height="70" viewBox="0 0 70 70" fill="none" xmlns="http://www.w3.org/2000/svg">
<path fill-rule="evenodd" clip-rule="evenodd" d="M20.1751 45.0317C19.5888 45.0317 19.1109 44.5539 19.1109 43.9675C19.1109 43.3811 19.5888 42.9033 20.1751 42.9033C20.7615 42.9033 21.2393 43.3811 21.2393 43.9675C21.2393 44.5539 20.7615 45.0317 20.1751 45.0317ZM20.1751 40.7749C18.415 40.7749 16.9825 42.2073 16.9825 43.9675C16.9825 45.7277 18.415 47.1601 20.1751 47.1601C21.9353 47.1601 23.3677 45.7277 23.3677 43.9675C23.3677 42.2073 21.9353 40.7749 20.1751 40.7749Z" fill="white"/>
<path fill-rule="evenodd" clip-rule="evenodd" d="M53.1654 33.3256H64.8716V29.0688H53.1654V33.3256ZM40.395 33.3256H51.037V29.0688H40.395V33.3256ZM27.6246 33.3256H38.2666V29.0688H27.6246V33.3256ZM13.7901 33.3256H25.4962V29.0688H13.7901V33.3256ZM8.46906 39.7108H11.6617V29.0688H8.46906V39.7108ZM65.9358 23.7478H5.27647C4.68903 23.7478 4.21227 24.2246 4.21227 24.812V35.0134L3.45988 35.7658C3.36198 35.8637 3.28429 35.9808 3.23001 36.1117C3.1768 36.2415 3.14807 36.3798 3.14807 36.5182V37.5824H5.27647C5.8639 37.5824 6.34067 38.0591 6.34067 38.6466C6.34067 39.234 5.8639 39.7108 5.27647 39.7108H3.14807V43.9676C3.14807 44.555 3.62483 45.0318 4.21227 45.0318H14.8542C15.4417 45.0318 15.9184 44.555 15.9184 43.9676C15.9184 41.6199 17.8276 39.7108 20.1752 39.7108C22.5229 39.7108 24.432 41.6199 24.432 43.9676C24.432 44.555 24.9088 45.0318 25.4962 45.0318H44.6518C45.2392 45.0318 45.716 44.555 45.716 43.9676C45.716 41.6199 47.6252 39.7108 49.9728 39.7108C52.3204 39.7108 54.2296 41.6199 54.2296 43.9676C54.2296 44.0048 54.2466 44.0357 54.2509 44.0719C54.2541 44.107 54.2434 44.141 54.2509 44.1761C54.2583 44.2177 54.2817 44.2506 54.2945 44.29C54.3115 44.3432 54.3296 44.3932 54.3541 44.4433C54.3903 44.5135 54.435 44.5752 54.4839 44.6359C54.5169 44.6753 54.5456 44.7136 54.5829 44.7487C54.6457 44.8051 54.717 44.8477 54.7904 44.8881C54.8298 44.9094 54.8638 44.937 54.9064 44.9541C55.0288 45.002 55.1576 45.0318 55.2927 45.0318H55.2948C55.3629 45.0318 55.4332 45.0254 55.5024 45.0105L66.1443 42.8821C66.1816 42.8757 66.2082 42.8523 66.2433 42.8416C66.3135 42.8193 66.3774 42.7938 66.4402 42.7586C66.5008 42.7256 66.5541 42.6905 66.6051 42.648C66.6583 42.6033 66.7041 42.5575 66.7477 42.5043C66.7903 42.4511 66.8276 42.3979 66.8595 42.3372C66.8914 42.2787 66.9159 42.2191 66.9361 42.1531C66.9584 42.085 66.9712 42.0169 66.9787 41.9445C66.9829 41.9083 67 41.8764 67 41.8392V24.812C67 24.2246 66.5232 23.7478 65.9358 23.7478Z" fill="white"/>
<path fill-rule="evenodd" clip-rule="evenodd" d="M49.9729 45.0317C49.3865 45.0317 48.9087 44.5539 48.9087 43.9675C48.9087 43.3811 49.3865 42.9033 49.9729 42.9033C50.5592 42.9033 51.0371 43.3811 51.0371 43.9675C51.0371 44.5539 50.5592 45.0317 49.9729 45.0317ZM49.9729 40.7749C48.2127 40.7749 46.7803 42.2073 46.7803 43.9675C46.7803 45.7277 48.2127 47.1601 49.9729 47.1601C51.7331 47.1601 53.1655 45.7277 53.1655 43.9675C53.1655 42.2073 51.7331 40.7749 49.9729 40.7749Z" fill="white"/>
</svg>
