<svg width="70" height="70" viewBox="0 0 70 70" fill="none" xmlns="http://www.w3.org/2000/svg">
<path d="M36.3677 34.0938H33.0446V38.9089H36.3677V34.0938Z" fill="white"/>
<path d="M53.6514 22.1689H44.4467V17.9471C44.4467 16.3758 43.1683 15.0974 41.5978 15.0974H27.8134C26.243 15.0974 24.9647 16.3758 24.9647 17.9471V22.1689H15.7559C13.8986 22.1689 12.3807 23.6779 12.3807 25.5352V29.0209C17.7607 31.7265 25.1311 34.8715 31.2586 35.4634V33.2008C31.2586 32.7073 31.658 32.3079 32.1516 32.3079H37.2606C37.7541 32.3079 38.1535 32.7073 38.1535 33.2008V35.4609C44.5964 34.8296 52.4904 31.3013 57.0266 29.0223V25.5352C57.0266 23.6779 55.5176 22.1689 53.6514 22.1689ZM42.6608 22.1666H26.7504V17.9471C26.7504 17.3602 27.2275 16.8833 27.8134 16.8833H41.5978C42.1838 16.8833 42.6608 17.3602 42.6608 17.9471V22.1666Z" fill="white"/>
<path d="M22.7015 35.3307V54.2337H46.7101V35.3306C43.8041 36.2949 40.8706 37.0108 38.1533 37.2558V39.802C38.1533 40.2955 37.7539 40.6949 37.2603 40.6949H32.1513C31.6578 40.6949 31.2584 40.2955 31.2584 39.802V37.2559C28.5414 37.011 25.6079 36.295 22.7015 35.3307Z" fill="white"/>
<path d="M15.7559 54.2336H20.916V34.7056C17.8805 33.5961 14.9389 32.2763 12.3807 31.0166V50.8673C12.3807 52.7247 13.8986 54.2336 15.7559 54.2336Z" fill="white"/>
<path d="M48.4927 54.2338H53.648C55.5142 54.2338 57.0232 52.7248 57.0232 50.8675V31.0188C54.4663 32.2779 51.5265 33.5968 48.4927 34.7056V54.2338Z" fill="white"/>
</svg>
