<svg width="70" height="70" viewBox="0 0 70 70" fill="none" xmlns="http://www.w3.org/2000/svg">
<path d="M58.9858 28.8543H55.7609H55.5803L53.0894 20.5806C52.2645 17.8407 49.782 16 46.9118 16H22.6864C19.8163 16 17.3338 17.8407 16.5088 20.5806L14.0179 28.8543H13.8373H10.6124C9.72173 28.8543 9 29.5735 9 30.4611C9 32.1341 10.468 33.5976 12.2249 34.4607V48.1358V52.9561C12.2249 53.8437 12.9466 54.5629 13.8373 54.5629H17.0622C17.9529 54.5629 18.6747 53.8437 18.6747 52.9561V48.1358H50.9236V52.9561C50.9236 53.8437 51.6453 54.5629 52.536 54.5629H55.7609C56.6517 54.5629 57.3734 53.8437 57.3734 52.9561V48.1358V34.4607C59.1303 33.5976 60.5983 32.1341 60.5983 30.4611C60.5983 29.5735 59.8765 28.8543 58.9858 28.8543ZM19.5976 21.5036C20.0066 20.1442 21.2623 19.2136 22.6864 19.2136H46.9118C48.3359 19.2136 49.5917 20.1442 50.0006 21.5036L52.2136 28.8543H17.3847L19.5976 21.5036ZM23.512 41.7086H18.6747C16.8939 41.7086 15.4498 40.2696 15.4498 38.495C15.4498 36.7205 16.8939 35.2815 18.6747 35.2815C21.3623 35.2815 25.1245 37.4236 25.1245 40.1018C25.1245 40.9894 24.4027 41.7086 23.512 41.7086ZM50.9236 41.7086H46.0863C45.1955 41.7086 44.4738 40.9894 44.4738 40.1018C44.4738 37.4236 48.236 35.2815 50.9236 35.2815C52.7044 35.2815 54.1485 36.7205 54.1485 38.495C54.1485 40.2696 52.7044 41.7086 50.9236 41.7086Z" fill="white"/>
</svg>
