<svg width="70" height="70" viewBox="0 0 70 70" fill="none" xmlns="http://www.w3.org/2000/svg">
<path d="M51.5998 28.4877L46.4051 23.8085L48.5985 14.6811C48.6256 14.5792 48.6188 14.4434 48.5985 14.3415C48.5373 14.0766 48.3268 13.8729 48.0552 13.8254C47.7836 13.7778 47.512 13.9001 47.3626 14.1242C47.1928 14.3822 43.1865 20.3585 33.9651 17.0037C26.645 14.3415 22.4485 16.6777 20.4317 18.5996L20.391 18.4095C20.228 17.676 19.5015 17.2142 18.7749 17.3772C18.0415 17.5402 17.5798 18.2668 17.7427 18.9935L25.5653 54.2808C25.7079 54.9124 26.2647 55.347 26.8894 55.347C26.9845 55.347 27.0864 55.3402 27.1814 55.3131C27.9148 55.1501 28.3766 54.4234 28.2136 53.6967L23.9967 34.6813C25.382 33.0446 29.1439 30.0293 36.7152 32.7797C46.9959 36.5217 51.6745 29.4316 51.7221 29.3569C51.8986 29.0785 51.8511 28.7118 51.6066 28.4877H51.5998Z" fill="white"/>
</svg>
