<svg width="70" height="70" viewBox="0 0 70 70" fill="none" xmlns="http://www.w3.org/2000/svg">
<path d="M55.5606 11H14.8588C13.2834 11 12 12.2767 12 13.8591V14.5043C12 15.7607 13.0186 16.7793 14.2748 16.7793H56.1378C57.3941 16.7793 58.4126 15.7607 58.4126 14.5043V13.8591C58.4126 12.2835 57.136 11 55.5538 11H55.5606Z" fill="white"/>
<path d="M16.9435 45.1465H34.1912V50.661C32.1676 51.1228 30.6602 52.9361 30.6602 55.0957C30.6602 57.6085 32.7041 59.6458 35.2098 59.6458C37.7154 59.6458 39.7593 57.6017 39.7593 55.0957C39.7593 52.9361 38.2451 51.1296 36.2283 50.661V45.1465H53.476V18.8169H16.9435V45.1465ZM32.0522 28.9562C32.2423 28.7593 32.5004 28.6506 32.772 28.6506C33.0436 28.6506 33.3016 28.7593 33.4918 28.9494L38.5167 33.9953L44.8589 27.761H42.6656C42.2922 27.761 41.9866 27.4554 41.9866 27.0818V26.4027C41.9866 26.0292 42.2922 25.7236 42.6656 25.7236H47.4529C48.0165 25.7236 48.4715 26.1786 48.4715 26.7423V31.0751C48.4715 31.4486 48.1659 31.7542 47.7924 31.7542H47.1134C46.7399 31.7542 46.4343 31.4486 46.4343 31.0751V29.0717L39.2229 36.1549C38.8223 36.5488 38.184 36.542 37.7901 36.1481L32.7788 31.1158L24.5352 39.4826C24.2704 39.7475 23.8426 39.7543 23.5777 39.4894L23.0956 39.0141C22.8308 38.7492 22.824 38.3213 23.0888 38.0565L32.0522 28.9562Z" fill="white"/>
</svg>
