<svg width="70" height="70" viewBox="0 0 70 70" fill="none" xmlns="http://www.w3.org/2000/svg">
<path d="M55.274 20.0374C55.6475 20.0374 55.9531 19.7318 55.9531 19.3582V18.6791C55.9531 18.3056 55.6475 18 55.274 18H15.679C15.3056 18 15 18.3056 15 18.6791V19.3582C15 19.7318 15.3056 20.0374 15.679 20.0374H18.144V41.7422H15.679C15.3056 41.7422 15 42.0478 15 42.4213V43.1004C15 43.4739 15.3056 43.7796 15.679 43.7796H27.1345L22.6189 51.8815C22.3676 52.3365 22.6936 52.8934 23.2096 52.8934H23.9905C24.235 52.8934 24.4659 52.7576 24.5813 52.547L29.4636 43.7863H41.4759L46.3582 52.547C46.4804 52.7644 46.7045 52.8934 46.949 52.8934H47.7299C48.246 52.8934 48.5787 52.3365 48.3207 51.8815L43.805 43.7796H55.2673C55.6407 43.7796 55.9463 43.4739 55.9463 43.1004V42.4213C55.9463 42.0478 55.6407 41.7422 55.2673 41.7422H52.8023V20.0374H55.2673H55.274ZM47.7163 27.6707L38.4881 34.5706C38.101 34.8627 37.5578 34.8355 37.1979 34.5095L32.5533 30.3397L23.7868 37.3482C23.4948 37.5859 23.067 37.5384 22.8294 37.2464L22.4084 36.7167C22.1707 36.4246 22.2182 35.9968 22.5102 35.7591L31.9557 28.2072C32.3428 27.9016 32.8996 27.9152 33.2731 28.248L37.9381 32.4382L46.5008 26.0408C46.7996 25.8167 47.2274 25.8778 47.4515 26.1767L47.8589 26.72C48.083 27.0256 48.0151 27.4466 47.7163 27.6707Z" fill="white"/>
</svg>
