<svg width="70" height="70" viewBox="0 0 70 70" fill="none" xmlns="http://www.w3.org/2000/svg">
<path d="M57.1257 15.3534C58.9065 15.3534 60.3506 13.9144 60.3506 12.1398C60.3506 10.3653 58.9065 8.92627 57.1257 8.92627H50.6759C50.6759 10.7008 52.1201 12.1398 53.9008 12.1398C52.1201 12.1398 50.5076 12.859 49.3402 14.0224C44.3642 18.9809 38.364 24.9942 31.3266 24.9942C23.1399 24.9942 16.9391 15.3534 8.75235 15.3534C8.75235 17.4108 9.57276 19.3845 11.033 20.8396L15.2021 24.9942L8.75235 21.7806C8.75235 23.8379 9.57276 25.8117 11.033 27.2668L15.2021 31.4213C15.2021 40.7343 25.7321 50.0446 26.4486 50.6674L24.8259 57.1351C23.0689 57.1627 21.6519 58.5863 21.6519 60.3435H34.5515C34.5515 58.569 33.1074 57.1299 31.3266 57.1299H28.1514L29.7638 50.7028H31.3266C33.3628 50.7028 35.3409 50.4605 37.2417 50.0157L40.82 57.1479C39.125 57.2437 37.7764 58.6307 37.7764 60.3435H50.6759C50.6759 58.569 49.2318 57.1299 47.4511 57.1299H44.4164L40.3737 49.0735C50.1587 45.4209 57.1257 36.0199 57.1257 24.9942H58.07C59.3296 24.9942 60.3506 23.9767 60.3506 22.7215C60.3506 22.1186 60.1107 21.5408 59.6824 21.1147L57.1257 18.567H60.3506L57.1257 15.3534ZM55.5133 18.085C54.8902 18.085 54.3846 17.5811 54.3846 16.9602C54.3846 16.3393 54.8902 15.8355 55.5133 15.8355C56.1363 15.8355 56.642 16.3393 56.642 16.9602C56.642 17.5811 56.1363 18.085 55.5133 18.085Z" fill="white"/>
</svg>
