<svg width="70" height="70" viewBox="0 0 70 70" fill="none" xmlns="http://www.w3.org/2000/svg">
<path d="M21.6596 26.7675C25.0984 26.7675 27.8862 23.9798 27.8862 20.541C27.8862 17.1022 25.0984 14.3145 21.6596 14.3145C18.2208 14.3145 15.4331 17.1022 15.4331 20.541C15.4331 23.9798 18.2208 26.7675 21.6596 26.7675Z" fill="white"/>
<path d="M63.2995 26.0671C64.2335 25.1331 64.2335 23.7321 63.2995 22.7981C62.3655 21.8642 60.9646 21.8642 60.0306 22.7981L53.9597 28.869H42.752L36.6811 22.7981C35.7471 21.8642 34.3462 21.8642 33.4122 22.7981L27.3413 28.869H16.1336L10.0627 22.7981C9.12876 21.8642 7.72779 21.8642 6.79381 22.7981C5.85983 23.7321 5.85983 25.1331 6.79381 26.0671L15.5109 34.7842V43.3457V49.5722V53.6194C15.5109 54.8647 16.6006 55.9544 17.8459 55.9544C19.0912 55.9544 20.1808 54.8647 20.1808 53.6194V49.5722V46.6146C20.1808 45.6806 20.8035 45.058 21.7375 45.058C22.6714 45.058 23.2941 45.6806 23.2941 46.6146V49.5722V53.6194C23.2941 54.8647 24.3837 55.9544 25.629 55.9544C26.8743 55.9544 27.964 54.8647 27.964 53.6194V49.5722V43.19V34.6285L35.1245 27.7794L42.1293 34.7842L37.4594 49.2609H42.1293V53.6194C42.1293 54.8647 43.219 55.9544 44.4643 55.9544C45.7096 55.9544 46.7992 54.8647 46.7992 53.6194V49.2609H49.9125V53.6194C49.9125 54.8647 51.0021 55.9544 52.2474 55.9544C53.4927 55.9544 54.5824 54.8647 54.5824 53.6194V49.2609H59.2523L54.5824 34.7842L63.2995 26.0671Z" fill="white"/>
<path d="M48.1223 26.7675C51.5611 26.7675 54.3488 23.9798 54.3488 20.541C54.3488 17.1022 51.5611 14.3145 48.1223 14.3145C44.6835 14.3145 41.8958 17.1022 41.8958 20.541C41.8958 23.9798 44.6835 26.7675 48.1223 26.7675Z" fill="white"/>
</svg>
