<svg width="70" height="70" viewBox="0 0 70 70" fill="none" xmlns="http://www.w3.org/2000/svg">
<path fill-rule="evenodd" clip-rule="evenodd" d="M28.1547 57.127C29.2679 57.127 30.1702 56.2485 30.1702 55.1649V19.8482C30.1702 18.7646 29.2679 17.8861 28.1547 17.8861H10.0155C8.90236 17.8861 8 18.7646 8 19.8482V55.1649C8 56.2485 8.90236 57.127 10.0155 57.127H28.1547ZM13.0387 47.3075V45.3639C13.0387 44.8087 13.491 44.3737 14.0489 44.3737H24.1213C24.6722 44.3737 25.1315 44.8171 25.1315 45.3639V47.3075C25.1315 47.8628 24.6792 48.2978 24.1213 48.2978H14.0489C13.498 48.2978 13.0387 47.8544 13.0387 47.3075ZM13.0387 38.4783V36.5347C13.0387 35.9795 13.491 35.5445 14.0489 35.5445H24.1213C24.6722 35.5445 25.1315 35.9879 25.1315 36.5347V38.4783C25.1315 39.0336 24.6792 39.4686 24.1213 39.4686H14.0489C13.498 39.4686 13.0387 39.0252 13.0387 38.4783ZM13.0387 29.6492V27.7056C13.0387 27.1503 13.491 26.7153 14.0489 26.7153H24.1213C24.6722 26.7153 25.1315 27.1587 25.1315 27.7056V29.6492C25.1315 30.2044 24.6792 30.6394 24.1213 30.6394H14.0489C13.498 30.6394 13.0387 30.196 13.0387 29.6492ZM41.2553 57.127H36.2166C35.1035 57.127 34.2012 56.2485 34.2012 55.1649V13.962C34.2012 12.8784 35.1035 12 36.2166 12H60.4023C61.5154 12 62.4178 12.8784 62.4178 13.962V55.1649C62.4178 56.2485 61.5154 57.127 60.4023 57.127H55.3636V45.3547C55.3636 44.2711 54.4613 43.3927 53.3482 43.3927H43.2708C42.1577 43.3927 41.2553 44.2711 41.2553 45.3547V57.127ZM38.2321 37.4973C38.2321 38.0442 38.6887 38.4876 39.2369 38.4876H45.2893C45.8442 38.4876 46.294 38.0526 46.294 37.4973V35.5537C46.294 35.0068 45.8375 34.5635 45.2893 34.5635H39.2369C38.6819 34.5635 38.2321 34.9984 38.2321 35.5537V37.4973ZM50.325 37.4973C50.325 38.0442 50.7815 38.4876 51.3297 38.4876H57.3821C57.937 38.4876 58.3869 38.0526 58.3869 37.4973V35.5537C58.3869 35.0068 57.9303 34.5635 57.3821 34.5635H51.3297C50.7748 34.5635 50.325 34.9984 50.325 35.5537V37.4973ZM38.2321 21.801C38.2321 22.3479 38.6887 22.7912 39.2369 22.7912H45.2893C45.8442 22.7912 46.294 22.3563 46.294 21.801V19.8574C46.294 19.3105 45.8375 18.8671 45.2893 18.8671H39.2369C38.6819 18.8671 38.2321 19.3021 38.2321 19.8574V21.801ZM50.325 21.801C50.325 22.3479 50.7815 22.7912 51.3297 22.7912H57.3821C57.937 22.7912 58.3869 22.3563 58.3869 21.801V19.8574C58.3869 19.3105 57.9303 18.8671 57.3821 18.8671H51.3297C50.7748 18.8671 50.325 19.3021 50.325 19.8574V21.801ZM38.2321 29.6492C38.2321 30.196 38.6887 30.6394 39.2369 30.6394H45.2893C45.8442 30.6394 46.294 30.2044 46.294 29.6492V27.7056C46.294 27.1587 45.8375 26.7153 45.2893 26.7153H39.2369C38.6819 26.7153 38.2321 27.1503 38.2321 27.7056V29.6492ZM50.325 29.6492C50.325 30.196 50.7815 30.6394 51.3297 30.6394H57.3821C57.937 30.6394 58.3869 30.2044 58.3869 29.6492V27.7056C58.3869 27.1587 57.9303 26.7153 57.3821 26.7153H51.3297C50.7748 26.7153 50.325 27.1503 50.325 27.7056V29.6492ZM51.3327 47.3168V57.127H45.2863V47.3168H51.3327Z" fill="white"/>
</svg>
