<svg width="70" height="70" viewBox="0 0 70 70" fill="none" xmlns="http://www.w3.org/2000/svg">
<path d="M11 13.3031V57.8059C11 58.3523 11.4434 58.7816 11.9853 58.7816H45.8508C46.3927 58.7816 46.8361 58.3523 46.8361 57.8059V13.3031C46.8361 12.7665 46.3927 12.3274 45.8508 12.3274H40.2443V15.6253C40.2443 17.2353 38.9142 18.5525 37.2884 18.5525H20.5576C18.9319 18.5525 17.6017 17.2353 17.6017 15.6253V12.3274H11.9853C11.4434 12.3274 11 12.7665 11 13.3031ZM17.5623 24.9337H40.2739C40.8158 24.9337 41.2592 25.3728 41.2592 25.9095C41.2592 26.4559 40.8158 26.8852 40.2739 26.8852H17.5623C17.0203 26.8852 16.5769 26.4559 16.5769 25.9095C16.5769 25.3728 17.0203 24.9337 17.5623 24.9337ZM17.5623 33.2372H40.2739C40.8158 33.2372 41.2592 33.6664 41.2592 34.2129C41.2592 34.7495 40.8158 35.1886 40.2739 35.1886H17.5623C17.0203 35.1886 16.5769 34.7495 16.5769 34.2129C16.5769 33.6664 17.0203 33.2372 17.5623 33.2372ZM17.5623 41.5308H40.2739C40.8158 41.5308 41.2592 41.9699 41.2592 42.5065C41.2592 43.0432 40.8158 43.4823 40.2739 43.4823H17.5623C17.0203 43.4823 16.5769 43.0432 16.5769 42.5065C16.5769 41.9699 17.0203 41.5308 17.5623 41.5308ZM17.5623 49.8245H40.2739C40.8158 49.8245 41.2592 50.2636 41.2592 50.8002C41.2592 51.3369 40.8158 51.7759 40.2739 51.7759H17.5623C17.0203 51.7759 16.5769 51.3369 16.5769 50.8002C16.5769 50.2636 17.0203 49.8245 17.5623 49.8245Z" fill="white"/>
<path d="M58.7816 16.1789C58.7816 14.0571 56.9935 12.3274 54.7998 12.3274C52.6062 12.3274 50.818 14.0571 50.818 16.1789V22.9455H58.7816V16.1789Z" fill="white"/>
<path d="M58.7816 25.6001H50.818V50.8181H58.7816V25.6001Z" fill="white"/>
<path d="M52.1451 52.145L54.5853 58.2052C54.7175 58.5563 55.0762 58.7813 55.4633 58.7813C55.8503 58.7813 56.209 58.5563 56.3413 58.2052L58.7815 52.145H52.1451Z" fill="white"/>
<rect x="19" y="9" width="20" height="8" rx="2" fill="white"/>
</svg>
