<svg width="70" height="70" viewBox="0 0 70 70" fill="none" xmlns="http://www.w3.org/2000/svg">
<path d="M52.2225 18.0545H42.1043C42.4343 16.9519 42.5093 15.7368 42.2243 14.4693C41.5942 11.7091 39.3066 9.53391 36.5014 9.09138C32.1136 8.39383 28.3183 11.7841 28.3183 16.0444C28.3183 16.7419 28.4233 17.417 28.6183 18.0545H18.5001C17.675 18.0545 17 18.7296 17 19.5546V23.0874H53.7226V19.5546C53.7226 18.7296 53.0475 18.0545 52.2225 18.0545ZM35.3613 18.6696C33.9137 18.6696 32.7361 17.492 32.7361 16.0444C32.7361 14.5968 33.9137 13.4192 35.3613 13.4192C36.8089 13.4192 37.9865 14.5968 37.9865 16.0444C37.9865 17.492 36.8089 18.6696 35.3613 18.6696Z" fill="white"/>
<path d="M17.2561 60.2748C17.2561 61.0998 17.9312 61.7749 18.7562 61.7749H51.9761C52.8011 61.7749 53.4762 61.0998 53.4762 60.2748V27.0549H17.2561V60.2748ZM22.589 32.3878H48.1433V36.5581H22.589V32.3878ZM22.589 40.0534H48.1433V44.2236H22.589V40.0534ZM22.589 47.7189H35.3699V51.8892H22.589V47.7189Z" fill="white"/>
</svg>
