<svg width="70" height="70" viewBox="0 0 70 70" fill="none" xmlns="http://www.w3.org/2000/svg">
<path d="M34.6269 8C19.9408 8 8 19.9483 8 34.6269C8 49.3054 19.9408 61.2538 34.6269 61.2538C49.3129 61.2538 61.2538 49.3054 61.2538 34.6269C61.2538 19.9483 49.3129 8 34.6269 8ZM34.6269 14.0604C36.0745 14.0604 37.2521 15.238 37.2521 16.6856C37.2521 18.1332 36.0745 19.3108 34.6269 19.3108C33.1793 19.3108 32.0017 18.1332 32.0017 16.6856C32.0017 15.238 33.1793 14.0604 34.6269 14.0604ZM16.6856 37.2521C15.238 37.2521 14.0604 36.0745 14.0604 34.6269C14.0604 33.1793 15.238 32.0017 16.6856 32.0017C18.1332 32.0017 19.3108 33.1793 19.3108 34.6269C19.3108 36.0745 18.1332 37.2521 16.6856 37.2521ZM23.7961 49.1704C22.7685 50.198 21.1109 50.198 20.0834 49.1704C19.0558 48.1429 19.0558 46.4852 20.0834 45.4577C21.1109 44.4301 22.7685 44.4301 23.7961 45.4577C24.8237 46.4852 24.8237 48.1429 23.7961 49.1704ZM23.7961 23.7961C22.7685 24.8237 21.1109 24.8237 20.0834 23.7961C19.0558 22.7685 19.0558 21.1109 20.0834 20.0833C21.1109 19.0558 22.7685 19.0558 23.7961 20.0833C24.8237 21.1109 24.8237 22.7685 23.7961 23.7961ZM25.8513 25.9638C26.7363 25.2587 28.0264 25.4012 28.7315 26.2863L34.6794 33.7268L45.1501 21.5085C45.8852 20.6459 47.1828 20.5484 48.0453 21.2834C48.9079 22.0185 49.0054 23.3161 48.2704 24.1787L36.187 38.2796C36.187 38.2796 36.127 38.3322 36.097 38.3622C36.037 38.4222 35.977 38.4897 35.9095 38.5497C35.902 38.5572 35.887 38.5647 35.8795 38.5722C35.842 38.6022 35.8045 38.6172 35.7745 38.6472C35.692 38.6997 35.617 38.7522 35.5345 38.7897C35.497 38.8122 35.452 38.8272 35.4069 38.8422C35.3169 38.8797 35.2269 38.9097 35.1369 38.9322C35.0994 38.9397 35.0619 38.9547 35.0244 38.9622C34.8969 38.9847 34.7619 39.0072 34.6344 39.0072C34.5069 39.0072 34.3569 38.9922 34.2294 38.9622C34.1919 38.9547 34.1544 38.9397 34.1169 38.9322C34.0193 38.9097 33.9293 38.8797 33.8393 38.8347C33.7943 38.8197 33.7493 38.7972 33.7118 38.7747C33.6293 38.7297 33.5468 38.6772 33.4643 38.6247C33.4268 38.5947 33.3893 38.5722 33.3518 38.5422C33.3368 38.5347 33.3218 38.5272 33.3068 38.5122C33.2318 38.4447 33.1643 38.3697 33.1043 38.2947C33.0818 38.2722 33.0593 38.2571 33.0443 38.2346L25.5437 28.859C24.8387 27.9739 24.9812 26.6838 25.8663 25.9788L25.8513 25.9638ZM34.6269 55.2008C33.1793 55.2008 32.0017 54.0233 32.0017 52.5757C32.0017 51.128 33.1793 49.9505 34.6269 49.9505C36.0745 49.9505 37.2521 51.128 37.2521 52.5757C37.2521 54.0233 36.0745 55.2008 34.6269 55.2008ZM49.1704 49.1779C48.1428 50.2055 46.4852 50.2055 45.4577 49.1779C44.4301 48.1503 44.4301 46.4927 45.4577 45.4652C46.4852 44.4376 48.1428 44.4376 49.1704 45.4652C50.198 46.4927 50.198 48.1503 49.1704 49.1779ZM52.5682 37.2596C51.1206 37.2596 49.943 36.082 49.943 34.6344C49.943 33.1868 51.1206 32.0092 52.5682 32.0092C54.0158 32.0092 55.1933 33.1868 55.1933 34.6344C55.1933 36.082 54.0158 37.2596 52.5682 37.2596Z" fill="white"/>
</svg>
