<svg width="70" height="70" viewBox="0 0 70 70" fill="none" xmlns="http://www.w3.org/2000/svg">
<path d="M19.4755 21.8808C22.7563 21.8808 25.4159 19.2212 25.4159 15.9404C25.4159 12.6596 22.7563 10 19.4755 10C16.1947 10 13.5351 12.6596 13.5351 15.9404C13.5351 19.2212 16.1947 21.8808 19.4755 21.8808Z" fill="white"/>
<path d="M50.0005 21.8808C53.2813 21.8808 55.941 19.2212 55.941 15.9404C55.941 12.6596 53.2813 10 50.0005 10C46.7197 10 44.0601 12.6596 44.0601 15.9404C44.0601 19.2212 46.7197 21.8808 50.0005 21.8808Z" fill="white"/>
<path d="M34.7402 36.9419C38.018 36.9419 40.6806 34.2792 40.6806 31.0015C40.6806 27.7237 38.018 25.061 34.7402 25.061C31.4625 25.061 28.7998 27.7237 28.7998 31.0015C28.7998 34.2792 31.4625 36.9419 34.7402 36.9419Z" fill="white"/>
<path d="M56.5587 26.1336C54.8411 25.3761 52.966 25.061 51.0908 25.061H48.9232C47.198 25.061 45.4804 25.3461 43.8828 25.9761C44.7079 27.4687 45.1729 29.1788 45.1729 31.0015C45.1729 33.0116 44.5954 34.8867 43.6053 36.4843C49.2457 39.042 52.4784 43.8124 52.4784 49.6178V53.9606C56.8737 50.3828 60.1665 45.515 61.7716 39.9271C62.2741 38.187 62.4916 36.3718 62.4916 34.5567C62.4916 30.4464 59.9864 27.6412 56.5662 26.1336H56.5587Z" fill="white"/>
<path d="M24.3112 31.0015C24.3112 29.1788 24.7838 27.4687 25.6013 25.9761C24.0037 25.3461 22.2786 25.061 20.561 25.061H18.3933C16.5182 25.061 14.643 25.3761 12.9254 26.1336C9.50517 27.6412 7 30.4464 7 34.5567C7 36.3718 7.21751 38.187 7.72004 39.9271C9.32516 45.515 12.6179 50.3903 17.0132 53.9606V49.6178C17.0132 43.8124 20.2459 39.042 25.8863 36.4843C24.8963 34.8942 24.3187 33.0191 24.3187 31.0015H24.3112Z" fill="white"/>
<path d="M41.298 41.2022C39.5804 40.4447 37.7052 40.1296 35.8301 40.1296H33.6624C31.7873 40.1296 29.9122 40.4447 28.1945 41.2022C24.7743 42.7098 22.2691 45.515 22.2691 49.6253V57.3434C26.0344 59.211 30.2647 60.2611 34.75 60.2611C39.2353 60.2611 43.4731 59.2035 47.2309 57.3434V49.6253C47.2309 45.515 44.7257 42.7098 41.3055 41.2022H41.298Z" fill="white"/>
</svg>
