<svg width="70" height="70" viewBox="0 0 70 70" fill="none" xmlns="http://www.w3.org/2000/svg">
<path fill-rule="evenodd" clip-rule="evenodd" d="M34.6486 12C22.3347 12.4181 12.4203 22.3351 12 34.6486H17.489C17.9363 34.6502 18.2988 35.0141 18.2971 35.4614C18.2955 35.9064 17.934 36.268 17.489 36.2695H12C12.418 48.585 22.3331 58.5001 34.6486 58.9181V53.4291C34.6502 52.9841 35.0117 52.6225 35.4567 52.621C35.904 52.6194 36.268 52.9818 36.2695 53.4291V58.9181C48.5829 58.4977 58.5 48.5834 58.9181 36.2695H53.4291C52.9841 36.2679 52.6225 35.9064 52.621 35.4614C52.6194 35.0141 52.9818 34.6501 53.4291 34.6486H58.9181C58.4976 22.3367 48.5814 12.4205 36.2695 12V17.489C36.2679 17.9363 35.904 18.2988 35.4567 18.2971C35.0117 18.2954 34.6501 17.934 34.6486 17.489V12ZM45.1316 24.9231C45.2681 24.9137 45.4049 24.939 45.529 24.9968C45.6531 25.0546 45.7605 25.1429 45.8412 25.2535C45.9219 25.364 45.9733 25.4933 45.9905 25.6291C46.0077 25.7649 45.9902 25.9028 45.9397 26.03L40.4649 40.0047C40.4242 40.1091 40.3623 40.2039 40.2831 40.2831C40.2039 40.3623 40.1091 40.4242 40.0047 40.4649L26.03 45.9396C25.883 45.9981 25.7222 46.0122 25.5672 45.9802C25.4123 45.9483 25.2702 45.8716 25.1583 45.7598C25.0465 45.6479 24.9698 45.5058 24.9378 45.3508C24.9059 45.1959 24.92 45.035 24.9784 44.888L30.4532 30.9133C30.4939 30.809 30.5558 30.7142 30.635 30.635C30.7142 30.5558 30.809 30.4939 30.9133 30.4532L44.888 24.9784C44.9659 24.9475 45.048 24.9288 45.1316 24.9231Z" fill="white"/>
</svg>
