<svg width="70" height="70" viewBox="0 0 70 70" fill="none" xmlns="http://www.w3.org/2000/svg">
<path d="M47.1031 23.7173C50.8865 23.7173 53.961 20.6425 53.961 16.8587C53.961 13.0749 50.8865 10 47.1031 10C43.3198 10 40.2453 13.0749 40.2453 16.8587C40.2453 17.6792 40.3967 18.4678 40.6675 19.2007L26.904 29.5245C25.765 28.6881 24.3712 28.1942 22.8578 28.1942C19.0745 28.1942 16 31.269 16 35.0528C16 38.8366 19.0745 41.9115 22.8578 41.9115C24.3712 41.9115 25.765 41.4096 26.904 40.5812L40.6675 50.905C40.4046 51.6379 40.2453 52.4186 40.2453 53.247C40.2453 57.0308 43.3198 60.1057 47.1031 60.1057C50.8865 60.1057 53.961 57.0308 53.961 53.247C53.961 49.4632 50.8865 46.3884 47.1031 46.3884C45.5898 46.3884 44.196 46.8902 43.057 47.7187L29.2935 37.3948C29.5563 36.6619 29.7157 35.8813 29.7157 35.0528C29.7157 34.2244 29.5643 33.4437 29.2935 32.7108L43.057 22.387C44.196 23.2235 45.5898 23.7173 47.1031 23.7173Z" fill="white"/>
</svg>
