<svg width="70" height="70" viewBox="0 0 70 70" fill="none" xmlns="http://www.w3.org/2000/svg">
<path d="M44.4747 16.2136L41.2498 13L34.8 16.2136V19.4272L38.0249 22.6407L44.4747 19.4272V16.2136Z" fill="white"/>
<path d="M57.3751 19.4272L50.9253 16.2136L44.4755 22.6408H57.3751V19.4272Z" fill="white"/>
<path d="M24.1796 25.8542L17.7298 19.427H9V22.6406H16.3947L21.7841 28.0111L18.7469 45.9384C18.7089 46.1627 18.6708 46.4339 18.6708 46.7424C18.6708 49.4007 20.8405 51.5628 23.5081 51.5628C25.2025 51.5628 26.7446 50.6945 27.6276 49.2484L33.5305 39.7156L39.363 45.5277C38.5181 46.7977 38.024 48.319 38.024 49.956C38.024 54.3933 41.6333 57.9899 46.0863 57.9899C50.5392 57.9899 54.1485 54.3933 54.1485 49.956C54.1485 45.5187 50.5392 41.922 46.0863 41.922C44.4435 41.922 42.9168 42.4144 41.6424 43.2557L37.0791 38.7085H54.1485L60.5983 25.8542H24.1796ZM24.8768 47.5696C24.5788 48.0574 24.0667 48.3492 23.5075 48.3492C22.6181 48.3492 21.8951 47.6281 21.8951 46.7424C21.8951 46.6691 21.9112 46.5631 21.9267 46.4712L24.5814 30.7992L31.186 37.3806L24.8768 47.5696ZM46.0863 45.1356C48.7532 45.1356 50.9236 47.2984 50.9236 49.956C50.9236 52.6136 48.7532 54.7764 46.0863 54.7764C43.4193 54.7764 41.2489 52.6136 41.2489 49.956C41.2489 47.2984 43.4193 45.1356 46.0863 45.1356Z" fill="white"/>
<path d="M25.1245 19.427H31.5742V22.6406H25.1245V19.427Z" fill="white"/>
</svg>
