<svg width="70" height="70" viewBox="0 0 70 70" fill="none" xmlns="http://www.w3.org/2000/svg">
<path d="M58.4812 44.2484V43.6562H58.4837C60.3397 42.9097 61.6576 41.0932 61.6576 38.9806C61.6576 37.077 60.5963 35.4173 59.0318 34.5638C59.0318 34.5638 59.0293 34.5638 59.0293 34.5613L59.8414 6.93842V6.87124C59.8414 6.80405 59.8364 6.73189 59.829 6.6647C59.8265 6.63484 59.8215 6.60996 59.8165 6.58258C59.814 6.56268 59.8115 6.54028 59.8065 6.52038C59.8065 6.5154 59.804 6.51042 59.804 6.50545C59.7966 6.46314 59.7891 6.42333 59.7742 6.38103C59.7692 6.36112 59.7667 6.3437 59.7592 6.32877C59.7542 6.31384 59.7517 6.29891 59.7443 6.28398C59.7418 6.27154 59.7343 6.2591 59.7293 6.24417C59.7193 6.2168 59.7119 6.19191 59.7019 6.16454C59.7019 6.16206 59.7019 6.15957 59.6994 6.15957C59.6845 6.11478 59.6645 6.07745 59.6421 6.03515C59.6222 5.99036 59.5973 5.94806 59.5699 5.90824C59.5599 5.89083 59.5499 5.87092 59.5375 5.8535C59.535 5.85101 59.535 5.84604 59.5325 5.84604C59.4976 5.79627 59.4652 5.74899 59.4279 5.7042C59.4054 5.67434 59.383 5.64697 59.3556 5.62208C59.3357 5.59969 59.3157 5.57978 59.2958 5.55987C59.2908 5.5549 59.2859 5.54992 59.2809 5.54494C59.2186 5.48025 59.1488 5.42301 59.0766 5.36827C59.0567 5.35334 59.0367 5.3409 59.0168 5.32846C58.9844 5.30606 58.952 5.28118 58.9196 5.26376C58.9047 5.2563 58.8897 5.24386 58.8748 5.23639C58.8374 5.214 58.8 5.19658 58.7627 5.18165C58.7527 5.17667 58.7427 5.1717 58.7328 5.16672C58.7303 5.16423 58.7253 5.16423 58.7228 5.16174C58.6805 5.14184 58.6406 5.12442 58.5983 5.11198C58.5709 5.09953 58.5459 5.09207 58.5185 5.0846C58.4837 5.07465 58.4488 5.0647 58.4139 5.05723C58.4014 5.05474 58.3915 5.04977 58.3815 5.04728C58.3192 5.03235 58.2569 5.01991 58.1922 5.01493C58.1349 5.00747 58.0751 5 58.0153 5C57.9505 5 57.8832 5 57.821 5.00747C57.8085 5.00747 57.7985 5.00747 57.7836 5.01244C57.7512 5.01493 57.7213 5.02488 57.6889 5.02986C57.659 5.03484 57.6266 5.03981 57.5967 5.04728C57.4971 5.06719 57.3999 5.09456 57.3053 5.1294C57.2978 5.13188 57.2878 5.13437 57.2803 5.13686C57.2729 5.13935 57.2654 5.14184 57.2579 5.14433C57.2056 5.16672 57.1533 5.18912 57.1035 5.21898C57.0586 5.23888 57.0212 5.26128 56.9789 5.28616C56.9764 5.28865 56.9714 5.29114 56.9689 5.29363C56.954 5.30358 56.9415 5.31354 56.9266 5.32349C56.8892 5.34837 56.8518 5.37077 56.8195 5.39814C56.7796 5.42551 56.7472 5.45537 56.7123 5.48772C56.6974 5.50016 56.6824 5.5126 56.6675 5.52504C56.6376 5.55241 56.6077 5.58227 56.5803 5.61214C56.5604 5.63204 56.5429 5.64697 56.523 5.66937L29.5348 37.6246C29.1113 36.8259 28.5706 36.1291 27.9403 35.5667C27.6015 35.2681 27.1705 34.9795 26.6224 34.6834C25.2298 33.9294 23.6328 33.489 21.9587 33.3895C21.9537 33.3895 21.9462 33.3845 21.9387 33.3895H21.9338C21.9188 33.3845 21.9064 33.3845 21.8914 33.3845C21.8192 33.3696 21.7444 33.3646 21.6697 33.3646C21.6473 33.3646 21.6248 33.3646 21.6024 33.3696C21.5974 33.3646 21.5949 33.3696 21.5949 33.3696C21.4754 33.3646 21.3558 33.3646 21.2337 33.3646H14.4127C13.3763 33.3646 12.5367 34.2032 12.5367 35.2383V49.3845C12.5367 50.4197 13.3763 51.2582 14.4127 51.2582H19.7914V53.0672H13.5033C10.4689 53.0672 8 55.5282 8 58.5615V59.4598C8 62.4881 10.4689 64.9541 13.5033 64.9541H38.9047C41.9367 64.9541 44.4056 62.4881 44.4056 59.4598V58.5615C44.4056 55.5307 41.9367 53.0672 38.9047 53.0672H30.8005V51.2582H37.9927C39.0291 51.2582 39.8687 50.4197 39.8687 49.3845V41.748L55.8552 14.2168V14.2143L55.2698 34.116C53.1197 34.6957 51.5377 36.6566 51.5377 38.9807C51.5377 41.0982 52.8531 42.9147 54.7142 43.6562V45.7639C54.7142 46.799 55.5538 47.6376 56.5901 47.6376C57.3052 47.6376 57.8881 48.2174 57.8881 48.929C57.8881 49.6407 57.3052 50.2204 56.5901 50.2204C55.8751 50.2204 55.2921 49.6406 55.2921 48.929C55.2921 47.8938 54.4526 47.0553 53.4162 47.0553C52.3798 47.0553 51.5402 47.8938 51.5402 48.929C51.5402 51.7085 53.8048 53.9679 56.5901 53.9679C59.3754 53.9679 61.6401 51.7085 61.6401 48.929C61.6401 46.8114 60.3246 44.9949 58.4661 44.2509L58.4812 44.2484ZM16.2431 60.8159C15.2415 60.8159 14.4269 60.0023 14.4269 59.0069C14.4269 58.0091 15.2415 57.1979 16.2431 57.1979C17.2446 57.1979 18.0542 58.0066 18.0542 59.0069C18.0542 60.0072 17.2446 60.8159 16.2431 60.8159ZM22.8951 60.8159C21.8936 60.8159 21.0789 60.0023 21.0789 59.0069C21.0789 58.0091 21.8935 57.1979 22.8951 57.1979C23.8966 57.1979 24.7062 58.0066 24.7062 59.0069C24.7062 60.0072 23.8966 60.8159 22.8951 60.8159ZM36.1985 57.1954C37.2 57.1954 38.0096 58.0041 38.0096 59.0044C38.0096 60.0047 37.2 60.8134 36.1985 60.8134C35.197 60.8134 34.3823 59.9997 34.3823 59.0044C34.3823 58.0066 35.1969 57.1954 36.1985 57.1954ZM31.3579 59.0069C31.3579 60.0048 30.5482 60.8159 29.5467 60.8159C28.5452 60.8159 27.7305 60.0023 27.7305 59.0069C27.7305 58.0091 28.5451 57.1979 29.5467 57.1979C30.5482 57.1979 31.3579 58.0066 31.3579 59.0069ZM27.0653 53.0623H23.5575V51.2533H27.0653V53.0623ZM36.9285 39.3639H32.9748L45.6283 24.3813L36.9285 39.3639ZM55.3042 38.9782C55.3042 38.2666 55.8897 37.6843 56.6072 37.6843C56.6445 37.6843 56.6819 37.6843 56.7193 37.6918C56.7218 37.6943 56.7268 37.6943 56.7317 37.6918C56.7342 37.6943 56.7367 37.6943 56.7392 37.6918C56.789 37.6968 56.8414 37.7067 56.8862 37.7192C56.8912 37.7241 56.8987 37.7241 56.9061 37.7241C57.4791 37.856 57.9076 38.3686 57.9076 38.9783C57.9076 39.69 57.3247 40.2697 56.6122 40.2697H56.6072H56.6047C55.8897 40.2672 55.3093 39.6874 55.3093 38.9783L55.3042 38.9782Z" fill="white"/>
</svg>
