<svg width="70" height="70" viewBox="0 0 70 70" fill="none" xmlns="http://www.w3.org/2000/svg">
<path d="M63.2293 34.6818L55.5262 15.4205H61.0091L59.299 11.1377H37.3599L35.2223 9L33.0846 11.1377H11.1306L9.42045 15.4205H14.9033L7.2003 34.6818H3C3 41.7773 8.75291 47.5227 15.8409 47.5227C22.9289 47.5227 28.6818 41.7698 28.6818 34.6818H24.4815L16.7785 15.4205H33.0771V52.6531C28.3443 53.3056 24.294 56.0958 21.9163 60.0036H48.5207C46.1356 56.0883 42.0928 53.3056 37.3599 52.6531V15.4205H53.6586L45.9555 34.6818H41.7552C41.7552 41.7773 47.5082 47.5227 54.5962 47.5227C61.6842 47.5227 67.4371 41.7698 67.4371 34.6818H63.2368H63.2293ZM20.8963 34.6818H10.7856L15.8409 22.0434L20.8963 34.6818ZM49.5333 34.6818L54.5887 22.0434L59.644 34.6818H49.5333Z" fill="white"/>
</svg>
