<svg width="70" height="70" viewBox="0 0 70 70" fill="none" xmlns="http://www.w3.org/2000/svg">
<path fill-rule="evenodd" clip-rule="evenodd" d="M21.3288 46.3747C21.8643 47.8234 24.7499 55.4057 27.0186 57.6864C28.7834 59.4604 31.5493 59.6622 33.5423 58.283V65.9146C33.5423 66.5336 34.0507 67.0359 34.6721 67.0359C35.2958 67.0359 35.802 66.5336 35.802 65.9146V58.3929C37.7814 59.651 40.4479 59.411 42.1629 57.6864C44.4316 55.4057 47.3172 47.8234 47.8528 46.3747L50.8559 43.3561C51.2943 42.9143 51.2897 42.2057 50.8446 41.7706C50.4017 41.3355 49.6854 41.34 49.247 41.7818L46.2462 44.8004C44.7932 45.3521 37.1939 48.3168 34.9252 50.5975C34.8077 50.7164 34.6947 50.8397 34.5908 50.9676C34.4868 50.8397 34.3739 50.7164 34.2564 50.5975C31.9877 48.3168 24.3884 45.3521 22.9354 44.8004L19.9346 41.7818C19.4962 41.34 18.7799 41.3355 18.337 41.7706C17.8918 42.2057 17.8873 42.9143 18.3257 43.3561L21.3288 46.3747ZM21.3288 34.0403C21.8643 35.489 24.7499 43.0713 27.0186 45.3521C28.9891 47.3323 32.2114 47.3547 34.2089 45.3991C34.3445 45.2646 34.4733 45.1256 34.5908 44.9798C34.7083 45.1256 34.8371 45.2646 34.9727 45.3991C36.9702 47.3547 40.1925 47.3323 42.1629 45.3521C44.4316 43.0713 47.3172 35.489 47.8528 34.0403L50.8559 31.0217C51.2943 30.5799 51.2897 29.8713 50.8446 29.4362C50.4017 29.0011 49.6854 29.0056 49.247 29.4474L46.2462 32.466C44.7932 33.0177 37.1939 35.9824 34.9252 38.2631C34.8077 38.382 34.6947 38.5053 34.5908 38.6332C34.4868 38.5053 34.3739 38.382 34.2564 38.2631C31.9877 35.9824 24.3884 33.0177 22.9354 32.466L19.9346 29.4474C19.4962 29.0056 18.7799 29.0011 18.337 29.4362C17.8918 29.8713 17.8873 30.5799 18.3257 31.0217L21.3288 34.0403ZM46.2462 20.1316C44.7932 20.6833 37.1939 23.648 34.9252 25.9287C34.8077 26.0476 34.6947 26.171 34.5908 26.2988C34.4868 26.171 34.3739 26.0476 34.2564 25.9287C31.9877 23.648 24.3884 20.6833 22.9354 20.1316L19.9346 17.113C19.4962 16.6712 18.7799 16.6667 18.337 17.1018C17.8918 17.5369 17.8873 18.2455 18.3257 18.6873L21.3288 21.7059C21.8643 23.1546 24.7499 30.7369 27.0186 33.0177C28.9891 34.9979 32.2114 35.0203 34.2089 33.0648C34.3445 32.9302 34.4733 32.7912 34.5908 32.6454C34.7083 32.7912 34.8371 32.9302 34.9727 33.0648C36.9702 35.0203 40.1925 34.9979 42.1629 33.0177C44.4316 30.7369 47.3172 23.1546 47.8528 21.7059L50.8559 18.6873C51.2943 18.2455 51.2897 17.5369 50.8446 17.1018C50.4017 16.6667 49.6854 16.6712 49.247 17.113L46.2462 20.1316ZM33.4632 7.3711C32.8305 8.77946 29.5676 16.2092 29.5901 19.4139C29.6082 22.1993 31.9018 24.4441 34.706 24.4262C37.5125 24.4083 39.7767 22.132 39.7564 19.3467C39.7361 16.142 36.3737 8.75703 35.7229 7.3554L35.6935 3.11461C35.689 2.49565 35.1806 1.99554 34.5569 2.00003C33.9332 2.00452 33.4293 2.5091 33.4338 3.12807L33.4632 7.3711Z" fill="white"/>
</svg>
