<svg width="70" height="70" viewBox="0 0 70 70" fill="none" xmlns="http://www.w3.org/2000/svg">
<path fill-rule="evenodd" clip-rule="evenodd" d="M34.7227 7.00003C19.4119 7.00003 6.99998 19.4119 6.99998 34.7228C6.99997 50.0336 19.4119 62.4456 34.7227 62.4456C50.0336 62.4456 62.4455 50.0337 62.4455 34.7228C62.4455 19.4119 50.0336 7.00003 34.7227 7.00003ZM36.9939 41.3979L36.994 17.4456L36.9947 17.4448L31.9008 17.4448L31.9008 41.3832C31.8874 41.3898 31.8741 41.3964 31.8609 41.4029C31.8356 41.4154 31.8105 41.4278 31.7854 41.4406C30.3747 39.9781 28.9641 38.5154 27.562 37.0616C26.3588 35.814 25.1619 34.5728 23.9766 33.344C23.3702 33.9712 22.7643 34.5977 22.1628 35.2196C21.5852 35.8168 21.0117 36.4099 20.4455 36.9955C25.0957 41.8091 29.7766 46.6545 34.4058 51.4456C36.7392 49.0317 39.0771 46.613 41.4141 44.1952C43.7606 41.7676 46.1063 39.3409 48.4455 36.921C47.6589 36.1037 46.8589 35.2722 46.033 34.4138C45.6533 34.019 45.2681 33.6186 44.8762 33.2113C43.4852 34.6564 42.0916 36.1036 40.6895 37.5597C39.4655 38.8309 38.2349 40.1088 36.9939 41.3979Z" fill="white"/>
</svg>
