<svg width="70" height="70" viewBox="0 0 70 70" fill="none" xmlns="http://www.w3.org/2000/svg">
<path d="M25.9942 17.9944C29.5825 17.9944 32.4914 15.0855 32.4914 11.4972C32.4914 7.9089 29.5825 5 25.9942 5C22.4058 5 19.4969 7.9089 19.4969 11.4972C19.4969 15.0855 22.4058 17.9944 25.9942 17.9944Z" fill="white"/>
<path d="M43.2789 17.9944C46.8673 17.9944 49.7762 15.0855 49.7762 11.4972C49.7762 7.9089 46.8673 5 43.2789 5C39.6906 5 36.7817 7.9089 36.7817 11.4972C36.7817 15.0855 39.6906 17.9944 43.2789 17.9944Z" fill="white"/>
<path d="M56.2714 24.0367C56.0765 22.4124 54.777 21.2429 53.0228 21.2429H49.7742H36.7798C35.6103 21.2429 34.6357 22.2175 34.6357 23.387C34.6357 22.2175 33.6611 21.2429 32.4916 21.2429H19.4972H16.2486C14.4294 21.2429 13 22.6723 13 24.4915V42.8786C13 44.0481 13.9746 45.0227 15.1441 45.0227C16.3136 45.0227 17.2882 44.0481 17.2882 42.8786V28.8447C17.2882 28.1949 17.743 27.7401 18.3927 27.7401C19.0424 27.7401 19.4972 28.1949 19.4972 28.8447V61.3307C19.4972 62.5002 20.4718 63.4748 21.6413 63.4748H30.2826V59.3815V49.3108L24.2402 43.2035C23.5904 42.5538 23.5904 41.5792 24.2402 40.9295C24.8899 40.2797 25.8645 40.2797 26.5142 40.9295L30.7374 45.1526H34.6357H38.534L42.7572 40.9295C43.4069 40.2797 44.3815 40.2797 45.0312 40.9295C45.6809 41.5792 45.6809 42.5538 45.0312 43.2035L38.9888 49.1809V59.2516V63.4748H47.6301C48.7996 63.4748 49.7742 62.5002 49.7742 61.3307V28.8447C49.7742 28.1949 50.229 27.7401 50.8787 27.7401C51.5284 27.7401 51.9832 28.1949 51.9832 28.8447V42.9436C51.9832 44.1131 52.9578 45.0877 54.1273 45.0877C55.2968 45.0877 56.2714 44.1131 56.2714 42.9436V24.4915C56.2714 24.3616 56.2714 24.1667 56.2714 24.0367ZM34.6357 42.8786C32.0368 42.8786 29.8927 40.7345 29.8927 38.1357C29.8927 35.5368 32.0368 33.3927 34.6357 33.3927C37.2346 33.3927 39.3786 35.5368 39.3786 38.1357C39.3786 40.7345 37.2346 42.8786 34.6357 42.8786Z" fill="white"/>
<rect x="13.0022" y="25.791" width="8.44637" height="19.4916" fill="white"/>
<path d="M15.3298 40.196C15.1184 38.6546 16.1792 37.2275 17.716 36.9856V36.9856C19.1265 36.7636 20.4842 37.6171 20.8958 38.9842L26.7566 58.4529C27.5098 60.9549 25.6366 63.475 23.0237 63.475L21.9228 63.475C19.9745 63.475 18.3254 62.0366 18.0606 60.1064L15.3298 40.196Z" fill="white"/>
<rect width="6.64976" height="19.4916" transform="matrix(-1 0 0 1 56.2081 25.791)" fill="white"/>
<path d="M54.4388 39.6076C54.5698 38.3945 53.716 37.2294 52.5209 36.9905V36.9905C51.4043 36.7673 50.3614 37.4306 50.1009 38.5297L45.2924 58.8185C44.7452 61.1271 46.5868 63.475 48.9447 63.475V63.475C50.6336 63.475 51.9954 62.235 52.1796 60.5299L54.4388 39.6076Z" fill="white"/>
</svg>
