<svg width="70" height="70" viewBox="0 0 70 70" fill="none" xmlns="http://www.w3.org/2000/svg">
<path d="M28.8511 13.8329L45.2806 21.4293L52.7004 38.0355C52.877 38.3888 53.142 38.5655 53.4953 38.5655C53.5837 38.5655 53.7603 38.5655 53.8487 38.4771C54.2903 38.3005 54.467 37.7705 54.2903 37.3288L46.7822 20.4577C46.6939 20.281 46.5172 20.1043 46.3405 20.016L29.2044 12.0662C28.9394 11.9779 28.7627 11.9779 28.4977 12.0662L11.3616 20.016C11.1849 20.1043 11.0083 20.281 10.9199 20.4577L3.41181 37.3288C3.23515 37.7705 3.41181 38.2121 3.85347 38.4771C4.29512 38.6538 4.73677 38.4771 5.00177 38.0355L12.3332 21.4293L28.8511 13.8329Z" fill="white"/>
<path d="M28.8524 15.2461L14.1895 22.0476L7.388 37.2404V58.7048H15.6028L15.6911 36.6221C15.6911 36.2688 15.9561 36.0921 16.2211 36.0921H41.7487C41.9253 36.0921 42.0136 36.1805 42.1903 36.2688C42.2786 36.3571 42.367 36.5338 42.367 36.7105L42.2786 58.7931H50.3167V37.2404L43.5153 22.0476L28.8524 15.2461ZM33.7989 26.2874C33.7989 26.6408 33.5339 26.8174 33.2689 26.8174H24.6125C24.2592 26.8174 24.0825 26.5524 24.0825 26.2874V21.9592C24.0825 21.6059 24.3475 21.4292 24.6125 21.4292H33.2689C33.6222 21.4292 33.7989 21.6942 33.7989 21.9592V26.2874Z" fill="white"/>
<path d="M32.7369 22.5776H25.1404V25.7575H32.7369V22.5776Z" fill="white"/>
<path d="M40.2464 37.1521H17.2804L28.8517 46.9568L40.2464 37.1521Z" fill="white"/>
<path d="M16.749 57.4683L27.967 47.7519L16.749 38.2122V57.4683Z" fill="white"/>
<path d="M41.1276 57.4683V37.7705L29.733 47.7519L41.1276 57.4683Z" fill="white"/>
<path d="M17.0147 58.7049H40.7757L28.851 48.4585L17.0147 58.7049Z" fill="white"/>
<path d="M59.0601 15.158H58.8834C55.2618 15.158 52.2586 17.9845 51.9053 21.5178H65.9499C65.6849 17.9845 62.6816 15.158 59.0601 15.158Z" fill="white"/>
<path d="M51.9053 22.7544V28.2309L55.7035 36.7106C55.9685 37.329 55.9685 37.9473 55.7918 38.5656C55.5268 39.1839 55.0852 39.6256 54.4669 39.8906C54.1135 40.0672 53.8486 40.0672 53.4952 40.0672C52.8769 40.0672 52.3469 39.8906 51.9053 39.5372V58.705H55.3502V47.9287C55.3502 47.5753 55.6152 47.3987 55.8802 47.3987H61.8866C62.24 47.3987 62.4166 47.6637 62.4166 47.9287V58.6167H61.2683V48.4586H56.4101V58.705H65.8615V22.7544H51.9053Z" fill="white"/>
</svg>
