<svg width="70" height="70" viewBox="0 0 70 70" fill="none" xmlns="http://www.w3.org/2000/svg">
<path d="M18.249 24.3582C18.2965 24.0594 18.3305 23.7538 18.3305 23.4346C18.3305 23.2852 18.3169 23.1426 18.3033 23H15.0371C13.9167 23 13 23.9168 13 25.0374V29.2887C13.4685 29.2412 13.9235 29.1393 14.3581 28.9899C16.3816 28.2904 17.9095 26.5179 18.249 24.3515V24.3582Z" fill="white"/>
<path d="M50.1029 24.3582C50.069 24.0526 50.0418 23.747 50.0418 23.4346C50.0418 23.2852 50.0554 23.1426 50.069 23H20.3405C20.3472 23.1494 20.3676 23.292 20.3676 23.4346C20.3676 23.747 20.3472 24.0526 20.3065 24.3582C19.9194 27.652 17.5088 30.3278 14.3581 31.1155C13.9167 31.2242 13.4685 31.2989 13 31.3329V39.1224C13.4685 39.1564 13.9167 39.2243 14.3581 39.3397C17.5088 40.1275 19.9262 42.8033 20.3065 46.0902C20.3404 46.3958 20.3676 46.7014 20.3676 47.0138C20.3676 47.1632 20.3472 47.3059 20.3405 47.4485H50.0757C50.069 47.3059 50.0486 47.1632 50.0486 47.0138C50.0486 46.7014 50.069 46.3958 50.1097 46.0902C50.4968 42.7965 52.9074 40.1207 56.0581 39.3397C56.4995 39.2311 56.9477 39.1564 57.4162 39.1224V31.3329C56.9477 31.2989 56.4995 31.2242 56.0581 31.1155C52.9074 30.3278 50.4968 27.652 50.1097 24.3582H50.1029ZM41.1599 35.2174C41.1599 38.5044 38.4913 41.1734 35.2047 41.1734C31.9181 41.1734 29.2495 38.5044 29.2495 35.2174C29.2495 31.9305 31.9181 29.2615 35.2047 29.2615C38.4913 29.2615 41.1599 31.9305 41.1599 35.2174Z" fill="white"/>
<path d="M14.3581 41.4519C13.9235 41.3025 13.4685 41.2006 13 41.1531V45.4044C13 46.5249 13.9167 47.4418 15.0371 47.4418H18.3033C18.3169 47.2991 18.3305 47.1565 18.3305 47.0071C18.3305 46.6947 18.2965 46.3891 18.249 46.0835C17.9027 43.9171 16.3816 42.1514 14.3581 41.4519Z" fill="white"/>
<path d="M52.1603 46.0835C52.1128 46.3823 52.0789 46.6947 52.0789 47.0071C52.0789 47.1565 52.0924 47.2991 52.106 47.4418H55.3722C56.4926 47.4418 57.4094 46.5249 57.4094 45.4044V41.1531C56.9408 41.2006 56.4859 41.3025 56.0513 41.4519C54.0277 42.1514 52.5067 43.9239 52.1603 46.0835Z" fill="white"/>
<path d="M55.3722 23H52.106C52.0924 23.1426 52.0789 23.292 52.0789 23.4346C52.0789 23.747 52.1128 24.0526 52.1603 24.3582C52.4999 26.5247 54.0277 28.2972 56.0513 28.9899C56.4859 29.1393 56.9408 29.2412 57.4094 29.2887V25.0374C57.4094 23.9168 56.4926 23 55.3722 23Z" fill="white"/>
</svg>
