<svg width="70" height="70" viewBox="0 0 70 70" fill="none" xmlns="http://www.w3.org/2000/svg">
<rect x="6.45145" y="12.4514" width="58.0579" height="44.5111" stroke="white" stroke-width="2.90289"/>
<path d="M15.3008 31.0929L14.6107 40.2025C14.5983 40.3766 14.6542 40.5445 14.7724 40.6751C14.8905 40.7994 15.0584 40.874 15.2262 40.874H16.8303L17.3215 47.2041C17.4147 48.4104 18.565 49.3556 19.9328 49.3556H21.5369C22.9109 49.3556 24.0549 48.4104 24.1482 47.2041L24.6393 40.874H26.2434C26.4175 40.874 26.5792 40.7994 26.6973 40.6751C26.8154 40.5507 26.8776 40.3766 26.859 40.2025L26.1688 31.0929C26.0445 29.4576 24.571 28.1704 22.8052 28.1704H18.652C16.8925 28.1704 15.4128 29.4514 15.2884 31.0929H15.3008Z" fill="white"/>
<path d="M24.1232 23.8055C24.1232 21.9401 22.6061 20.4229 20.7409 20.4229C18.8757 20.4229 17.3586 21.9401 17.3586 23.8055C17.3586 25.671 18.8757 27.1881 20.7409 27.1881C22.6061 27.1881 24.1232 25.671 24.1232 23.8055Z" fill="white"/>
<path d="M29.1033 31.0929L28.4132 40.2025C28.4008 40.3766 28.4567 40.5445 28.5749 40.6751C28.693 40.7994 28.8609 40.874 29.0287 40.874H30.6328L31.124 47.2041C31.2172 48.4104 32.3675 49.3556 33.7353 49.3556H35.3394C36.7134 49.3556 37.8574 48.4104 37.9507 47.2041L38.4418 40.874H40.0397C40.2138 40.874 40.3754 40.7994 40.4936 40.6751C40.6117 40.5507 40.6739 40.3766 40.6552 40.2025L39.9651 31.0929C39.8407 29.4576 38.3672 28.1704 36.6015 28.1704H32.4483C30.6888 28.1704 29.209 29.4514 29.0847 31.0929H29.1033Z" fill="white"/>
<path d="M37.9258 23.8055C37.9258 21.9401 36.4087 20.4229 34.5435 20.4229C32.6783 20.4229 31.1613 21.9401 31.1613 23.8055C31.1613 25.671 32.6783 27.1881 34.5435 27.1881C36.4087 27.1881 37.9258 25.671 37.9258 23.8055Z" fill="white"/>
<path d="M42.9122 31.0929L42.222 40.2025C42.2096 40.3766 42.2656 40.5445 42.3837 40.6751C42.5018 40.7994 42.6697 40.874 42.8376 40.874H44.4416L44.9328 47.2041C45.0261 48.4104 46.1763 49.3556 47.5441 49.3556H49.1482C50.5222 49.3556 51.6662 48.4104 51.7595 47.2041L52.2507 40.874H53.8548C54.0288 40.874 54.1905 40.7994 54.3086 40.6751C54.4268 40.5507 54.4889 40.3766 54.4703 40.2025L53.7802 31.0929C53.6558 29.4576 52.1761 28.1704 50.4165 28.1704H46.2633C44.5038 28.1704 43.0241 29.4514 42.8997 31.0929H42.9122Z" fill="white"/>
<path d="M51.7346 23.8055C51.7346 21.9401 50.2176 20.4229 48.3523 20.4229C46.4871 20.4229 44.9701 21.9401 44.9701 23.8055C44.9701 25.671 46.4871 27.1881 48.3523 27.1881C50.2176 27.1881 51.7346 25.671 51.7346 23.8055Z" fill="white"/>
</svg>
