<svg width="70" height="70" viewBox="0 0 70 70" fill="none" xmlns="http://www.w3.org/2000/svg">
<path fill-rule="evenodd" clip-rule="evenodd" d="M47.6778 25.8974V61.0832C47.6778 65.5045 41.4868 65.5045 41.4868 61.0832V25.8974C31.4732 21.2916 39.3008 6 44.5823 6C49.8613 6 57.6911 21.2914 47.6778 25.8974ZM27.8311 29.7652V61.0836C27.8311 65.5049 21.8225 65.5049 21.8225 61.0836V29.7652C19.2742 28.4759 18 25.8974 18 23.1323V8.94572C18 7.1029 20.7307 7.1029 20.7307 8.94572V17.7883C20.7307 19.6311 23.4614 19.6311 23.4614 17.7883V8.94572C23.4614 7.1029 26.1922 7.1029 26.1922 8.94572V17.7883C26.1922 19.6311 28.9229 19.6311 28.9229 17.7883V8.94572C28.9229 7.1029 31.6536 7.1029 31.6536 8.94572V23.1323C31.6536 25.8953 30.3794 28.4738 27.8311 29.7652Z" fill="white"/>
</svg>
