<svg width="70" height="70" viewBox="0 0 70 70" fill="none" xmlns="http://www.w3.org/2000/svg">
<path d="M36.1519 8.20239V33.8599H47.6683C47.3096 24.1636 43.1611 14.9273 36.1519 8.20239Z" fill="white"/>
<path d="M33.3925 33.8599V8.20239C26.3741 14.9273 22.2348 24.1636 21.8668 33.8599H33.3925Z" fill="white"/>
<path d="M33.3925 62.2866V36.6199H21.8668C22.2256 46.3162 26.3741 55.5617 33.3925 62.2866Z" fill="white"/>
<path d="M62.4227 33.8599C61.788 20.9253 52.24 10.2907 39.8037 8C46.2978 15.0469 50.0876 24.2556 50.4279 33.8599H62.4319H62.4227Z" fill="white"/>
<path d="M7.11237 36.6199C7.74706 49.5544 17.2951 60.1799 29.7222 62.4798C23.2373 55.433 19.4383 46.2242 19.1071 36.6199H7.11237Z" fill="white"/>
<path d="M39.8129 62.4798C52.2492 60.1799 61.788 49.5544 62.4319 36.6199H50.4279C50.0967 46.2334 46.2978 55.433 39.8129 62.4798Z" fill="white"/>
<path d="M36.1519 36.6199V62.2774C43.1703 55.5525 47.3096 46.3162 47.6683 36.6199H36.1519Z" fill="white"/>
<path d="M29.7222 8C17.2859 10.2999 7.74713 20.9253 7.10324 33.8599H19.098C19.4292 24.2464 23.2281 15.0469 29.713 8H29.7222Z" fill="white"/>
</svg>
