<svg width="70" height="70" viewBox="0 0 70 70" fill="none" xmlns="http://www.w3.org/2000/svg">
<path d="M48.1587 35.5315C41.7682 34.9855 37.8884 38.8579 35.7379 42.2419V30.3341C39.8509 29.775 43.0278 26.2518 43.0278 22.0038V15.1662C43.0278 14.5415 42.5273 14.0303 41.8902 14.0303H40.1951V7.13583C40.1951 6.49979 39.683 6 39.0574 6C38.4317 6 37.9197 6.49979 37.9197 7.13583V14.0303H31.2757V7.13583C31.2757 6.49979 30.7752 6 30.1381 6C29.5123 6 29.0004 6.49979 29.0004 7.13583V14.0303H27.3053C26.6796 14.0303 26.1676 14.5415 26.1676 15.1662V22.0038C26.1676 26.2528 29.3554 29.7766 33.4626 30.3344V42.2353C31.3154 38.8585 27.443 34.9994 21.0481 35.5315C20.6613 35.5656 20.3314 35.7813 20.138 36.1107C19.9559 36.4515 19.9559 36.849 20.1266 37.1898C20.1494 37.2124 21.7876 40.4155 22.1971 42.7326C22.584 44.9133 23.733 46.6285 25.4964 47.7188C26.9071 48.5707 28.6932 49.0136 30.65 49.0136C31.5611 49.0136 32.5081 48.9095 33.4626 48.7172V61.9365C33.4626 62.5644 33.9714 63.0723 34.6003 63.0723C35.2291 63.0723 35.7379 62.5644 35.7379 61.9365V48.7167C36.6967 48.9094 37.6448 49.0136 38.5568 49.0136C40.5022 49.0136 42.2997 48.5707 43.699 47.7188C45.4738 46.6285 46.6114 44.9133 46.9983 42.7326C47.4192 40.4155 49.0574 37.2124 49.0688 37.1898C49.2508 36.849 49.2395 36.4515 49.0574 36.1107C48.8754 35.7813 48.5341 35.5656 48.1587 35.5315Z" fill="white"/>
</svg>
