<svg width="70" height="70" viewBox="0 0 70 70" fill="none" xmlns="http://www.w3.org/2000/svg">
<path d="M32.0704 13.514C32.0704 10.8345 29.8905 8.65454 27.211 8.65454C24.532 8.65454 22.3521 10.8345 22.3521 13.514C22.3521 16.1929 24.532 18.3729 27.211 18.3729C29.8905 18.3729 32.0704 16.1929 32.0704 13.514Z" fill="white"/>
<path d="M48.6102 13.514C48.6102 10.8345 46.4302 8.65454 43.7508 8.65454C41.0718 8.65454 38.8918 10.8345 38.8918 13.514C38.8918 16.1929 41.0718 18.3729 43.7508 18.3729C46.4302 18.3729 48.6102 16.1929 48.6102 13.514Z" fill="white"/>
<path d="M14.0804 26.2937C14.0804 28.9732 16.2604 31.1532 18.9399 31.1532C21.6194 31.1532 23.7994 28.9732 23.7994 26.2937C23.7994 23.6148 21.6194 21.4348 18.9399 21.4348C16.2604 21.4348 14.0804 23.6148 14.0804 26.2937Z" fill="white"/>
<path d="M17.1996 60.8072H20.6806C22.1489 60.8072 23.3432 59.6123 23.3432 58.1439V49.1823C24.6326 48.9981 25.627 47.8866 25.627 46.5469V39.0774C25.627 36.3898 23.44 34.2029 20.7524 34.2029H17.1289C14.4413 34.2029 12.2544 36.3898 12.2544 39.0774V46.5469C12.2544 47.8866 13.2488 48.9981 14.5381 49.1823V58.1439C14.5375 59.6123 15.7318 60.8072 17.1996 60.8072Z" fill="white"/>
<path d="M30.6201 26.0546C30.6201 28.7335 32.8001 30.9135 35.479 30.9135C38.1585 30.9135 40.3385 28.7335 40.3385 26.0546C40.3385 23.3751 38.1585 21.1951 35.479 21.1951C32.7995 21.1951 30.6201 23.3751 30.6201 26.0546Z" fill="white"/>
<path d="M33.7394 60.5674H37.2203C38.6887 60.5674 39.883 59.3731 39.883 57.9048V48.9432C41.173 48.7589 42.1673 47.6475 42.1673 46.3077V38.8377C42.1673 36.1501 39.9804 33.9631 37.2922 33.9631H33.6687C30.9811 33.9631 28.7942 36.1501 28.7942 38.8377V46.3077C28.7942 47.6475 29.7886 48.7589 31.0779 48.9432V57.9048C31.0767 59.3731 32.271 60.5674 33.7394 60.5674Z" fill="white"/>
<path d="M52.0188 30.9135C54.6983 30.9135 56.8783 28.7335 56.8783 26.0546C56.8783 23.3751 54.6983 21.1951 52.0188 21.1951C49.3399 21.1951 47.1599 23.3751 47.1599 26.0546C47.1599 28.7335 49.3399 30.9135 52.0188 30.9135Z" fill="white"/>
<path d="M53.8325 33.9631H50.2084C47.5208 33.9631 45.3339 36.1501 45.3339 38.8377V46.3077C45.3339 47.6475 46.3282 48.7589 47.6176 48.9432V57.9048C47.6176 59.3731 48.8125 60.5674 50.2808 60.5674H53.7612C55.2296 60.5674 56.4239 59.3731 56.4239 57.9048V48.9437C57.7138 48.7595 58.7082 47.6475 58.7082 46.3077V38.8377C58.707 36.1501 56.5201 33.9631 53.8325 33.9631Z" fill="white"/>
</svg>
