<svg width="70" height="70" viewBox="0 0 70 70" fill="none" xmlns="http://www.w3.org/2000/svg">
<path fill-rule="evenodd" clip-rule="evenodd" d="M10 53.7015C10 54.4988 10.6641 55.1452 11.4834 55.1452H58.9526C59.7719 55.1452 60.436 54.4988 60.436 53.7015C60.436 47.67 58.1488 45.0393 52.2772 45.0393H18.1588C12.2872 45.0393 10 47.67 10 53.7015ZM36.7014 21.2497C49.7048 21.8041 57.4692 29.6795 57.4692 40.7083C57.4692 41.5056 56.805 42.152 55.9858 42.152H14.4502C13.631 42.152 12.9668 41.5056 12.9668 40.7083C12.9668 29.6795 20.7312 21.8041 33.7346 21.2497V16.8874H30.0267C29.6141 16.8874 29.2844 16.5612 29.2844 16.1588V14.7286C29.2844 14.32 29.6167 14 30.0267 14H40.4093C40.8219 14 41.1517 14.3262 41.1517 14.7286V16.1588C41.1517 16.5673 40.8193 16.8874 40.4093 16.8874H36.7014V21.2497Z" fill="white"/>
</svg>
