<svg width="70" height="70" viewBox="0 0 70 70" fill="none" xmlns="http://www.w3.org/2000/svg">
<path d="M61.1615 29.4463L36.0247 9.21385C35.6422 8.90496 35.0939 8.90496 34.7114 9.21385L9.57463 29.4463C9.12357 29.8094 9.05301 30.469 9.41504 30.9191C9.77813 31.3681 10.4358 31.4407 10.8879 31.0787L35.368 11.3741L59.8482 31.0787C60.0415 31.2342 60.2737 31.3098 60.5038 31.3098C60.8107 31.3098 61.1134 31.1758 61.3211 30.9191C61.6831 30.469 61.6125 29.8094 61.1615 29.4463Z" fill="white"/>
<path fill-rule="evenodd" clip-rule="evenodd" d="M56.9021 58.2487V31.3942L35.3683 14.0603L13.8344 31.3942V58.2487C13.8344 58.8352 14.3057 59.2961 14.8817 59.2961H29.0928V43H41.0381V59.2961H55.8547C56.4308 59.2961 56.9021 58.8352 56.9021 58.2487Z" fill="white"/>
</svg>
