<svg width="70" height="70" viewBox="0 0 70 70" fill="none" xmlns="http://www.w3.org/2000/svg">
<path fill-rule="evenodd" clip-rule="evenodd" d="M34.7228 62.4455C50.0336 62.4455 62.4455 50.0336 62.4455 34.7228C62.4455 19.4119 50.0336 7 34.7228 7C19.4119 7 7 19.4119 7 34.7228C7 50.0336 19.4119 62.4455 34.7228 62.4455ZM32.4515 28.0476V52L32.4508 52.0008H37.5447V28.0624C37.5581 28.0557 37.5714 28.0492 37.5846 28.0426C37.6099 28.0301 37.635 28.0177 37.6601 28.005C39.0708 29.4674 40.4814 30.9301 41.8835 32.384C43.0867 33.6316 44.2836 34.8727 45.4689 36.1016C46.0753 35.4743 46.6812 34.8479 47.2827 34.2259C47.8603 33.6287 48.4338 33.0357 49 32.4501C44.3498 27.6365 39.6689 22.7911 35.0397 18C32.7063 20.4139 30.3684 22.8326 28.0314 25.2503C25.6848 27.678 23.3392 30.1047 21 32.5245C21.7866 33.3419 22.5866 34.1734 23.4125 35.0318C23.7922 35.4265 24.1774 35.8269 24.5693 36.2342C25.9603 34.7892 27.3539 33.3419 28.756 31.8859C29.98 30.6146 31.2106 29.3367 32.4515 28.0476Z" fill="white"/>
</svg>
