<svg width="70" height="70" viewBox="0 0 70 70" fill="none" xmlns="http://www.w3.org/2000/svg">
<path d="M10.5886 45.4489C10.5886 47.519 12.2687 49.1991 14.3389 49.1991H30.8401L27.4648 55.9496H21.0894V60.4499H49.5914V55.9496H43.2159L39.8407 49.1991H56.3419C58.412 49.1991 60.0921 47.519 60.0921 45.4489V43.5737H10.5886V45.4489Z" fill="white"/>
<path d="M56.3418 8.69629H14.3388C12.2687 8.69629 10.5886 10.3764 10.5886 13.1966V39.8235H60.0921V13.1966C60.0921 10.3764 58.4119 8.69629 56.3418 8.69629ZM33.0301 33.2605L24.202 23.8474L27.9373 20.3446L33.0002 25.745L42.7058 15.2593L46.4636 18.7395L33.0226 33.2605H33.0301Z" fill="white"/>
</svg>
