<svg width="70" height="70" viewBox="0 0 70 70" fill="none" xmlns="http://www.w3.org/2000/svg">
<path d="M19.7264 61.6745H12.561C11.9192 61.6745 11.394 62.2058 11.394 62.8552C11.394 63.5164 11.9192 64.0359 12.561 64.0359H57.3384C57.9919 64.0359 58.5054 63.5164 58.5054 62.8552C58.5054 62.2058 57.9919 61.6745 57.3384 61.6745H50.1731L43.813 33.2074V28.4727H50.9784L52.8922 31.153C53.1256 31.4718 53.4757 31.637 53.8374 31.637C54.0825 31.637 54.3159 31.5662 54.526 31.4245C55.0512 31.0349 55.1678 30.3029 54.7827 29.7715L52.5304 26.5954C52.3087 26.2884 51.9586 26.1113 51.5851 26.1113H43.813V17.7636H50.9784L52.8922 20.4557C53.1256 20.7745 53.4757 20.9397 53.8374 20.9397C54.0825 20.9397 54.3159 20.8689 54.526 20.7154C55.0512 20.3376 55.1678 19.6055 54.7827 19.0742L52.5304 15.8981C52.3087 15.5911 51.9586 15.4022 51.5851 15.4022H43.2296L35.8892 5.47233C35.6674 5.17717 35.3174 5 34.9556 5C34.5821 5 34.2437 5.17717 34.022 5.47233L26.6816 15.4022H18.326C17.9526 15.4022 17.6024 15.5911 17.3808 15.8981L15.1167 19.0742C14.7433 19.6055 14.8601 20.3376 15.3853 20.7154C15.5836 20.8689 15.8286 20.9397 16.062 20.9397C16.4238 20.9397 16.7856 20.7745 17.0073 20.4557L18.9212 17.7636H26.0982V26.1113H18.326C17.9526 26.1113 17.6024 26.2884 17.3808 26.5954L15.1167 29.7715C14.7433 30.3029 14.8601 31.0349 15.3853 31.4245C15.5836 31.5662 15.8286 31.637 16.062 31.637C16.4238 31.637 16.7856 31.4718 17.0073 31.153L18.9212 28.4727H26.0982V33.2074L19.7264 61.6745ZM24.7444 49.9264L32.6216 54.5193L22.3871 60.482L24.7444 49.9264ZM26.0398 47.9546L34.9556 40.9175L43.8597 47.9546L34.9556 53.1497L26.0398 47.9546ZM25.0129 61.6745L34.9556 55.8772L44.8867 61.6745H25.0129ZM47.524 60.482L37.2895 54.5193L45.155 49.9264L47.524 60.482ZM44.0814 45.1327L36.846 39.418L41.9108 35.4153L44.0814 45.1327ZM39.2501 34.518L34.9556 37.9184L30.6494 34.518H39.2501ZM27.9887 35.4153L33.0534 39.418L25.8181 45.1327L27.9887 35.4153Z" fill="white"/>
</svg>
