<svg width="70" height="70" viewBox="0 0 70 70" fill="none" xmlns="http://www.w3.org/2000/svg">
<path d="M24.8 41.7019L25.6841 49.5324C25.8593 51.1097 26.9107 52.3922 28.3126 52.9339V52.9498H42.3309V52.9339C43.7327 52.3922 44.7841 51.1097 44.9593 49.5324L45.8275 41.8612C46.0107 40.2203 46.7276 38.7466 47.8506 37.6951C51.5304 34.2458 53.6491 29.3707 53.6491 24.3283C53.6491 19.2858 51.5464 14.4187 47.8745 10.9694C44.1549 7.47237 39.2803 5.7119 34.1588 6.0385C24.8558 6.62001 17.3209 14.3709 17.0103 23.699C16.8351 28.9246 18.906 33.9909 22.6893 37.5995C23.8841 38.7306 24.6327 40.1964 24.8 41.7099V41.7019ZM30.1047 23.1174C30.3835 22.8625 30.7738 22.751 31.1481 22.8307C33.681 23.3405 37.09 23.3405 39.591 22.8307C39.9573 22.751 40.3556 22.8625 40.6344 23.1174C40.9131 23.3723 41.0565 23.7547 41.0167 24.1291C40.3476 30.2151 39.4715 38.0137 39.4715 38.0137L39.0732 37.9659L38.4679 37.8942C37.7112 37.8066 37.1616 37.1295 37.2493 36.3727C37.4962 34.1503 38.0059 29.5858 38.4679 25.4196C36.5085 25.6586 34.2385 25.6586 32.2711 25.4196L33.4898 36.3727C33.5774 37.1295 33.0278 37.8146 32.2711 37.9022H32.2552L31.6658 37.9659L31.2676 38.0137L29.7223 24.1291C29.6825 23.7468 29.818 23.3723 30.1047 23.1174Z" fill="white"/>
<path d="M40.7379 54.543H28.3126V58.4702C28.3126 59.9757 29.3798 61.3299 30.9728 61.8477C31.3472 61.9672 31.6897 62.2779 31.9764 62.7718C32.5101 63.6799 33.4977 64.2534 34.5571 64.2534H36.0943C37.1536 64.2534 38.1334 63.6878 38.667 62.7718C38.9538 62.2779 39.2962 61.9672 39.6706 61.8477C41.2636 61.3299 42.3309 59.9757 42.3309 58.4702V54.543H40.7379Z" fill="white"/>
</svg>
