<svg width="70" height="70" viewBox="0 0 70 70" fill="none" xmlns="http://www.w3.org/2000/svg">
<path d="M57.4619 44.8884L44.4035 31.83L40.3907 33.1651L48.4162 25.1396L37.713 14.4363L21.6619 30.4874L32.3651 41.1907L37.713 35.8428L52.114 50.2438C53.5916 51.7214 56.0293 51.8264 57.5219 50.3563C57.5444 50.3338 57.5594 50.3188 57.5819 50.2963C59.052 48.8037 58.947 46.366 57.4694 44.8884H57.4619Z" fill="white"/>
<path d="M50.9059 23.767C51.6484 24.5096 52.841 24.5096 53.5836 23.767C54.3261 23.0245 54.3261 21.8319 53.5836 21.0893L41.7552 9.26102C41.0127 8.51846 39.8201 8.51846 39.0775 9.26102C38.335 10.0036 38.335 11.1962 39.0775 11.9387L50.9059 23.767Z" fill="white"/>
<path d="M28.3113 46.3662C29.0538 47.1087 30.2464 47.1087 30.989 46.3662C31.7315 45.6236 31.7315 44.431 30.989 43.6885L19.1606 31.8601C18.4181 31.1176 17.2255 31.1176 16.4829 31.8601C15.7404 32.6027 15.7404 33.7953 16.4829 34.5378L28.3113 46.3662Z" fill="white"/>
<path d="M39.9503 51.6689H17.6663V56.4393H11.6959V61.2171H45.9133V56.4393H39.9503V51.6689Z" fill="white"/>
</svg>
