<svg width="70" height="70" viewBox="0 0 70 70" fill="none" xmlns="http://www.w3.org/2000/svg">
<path d="M19.8511 9.58057H7.39267C6.07258 9.58057 5 10.6531 5 11.9732V57.4339C5 58.754 6.07258 59.8266 7.39267 59.8266H19.8511C21.1712 59.8266 22.2437 58.754 22.2437 57.4339V11.9732C22.2437 10.6531 21.1712 9.58057 19.8511 9.58057ZM13.6181 55.5213C11.233 55.5213 9.30532 53.5937 9.30532 51.2085C9.30532 48.8233 11.233 46.8957 13.6181 46.8957C16.0033 46.8957 17.9309 48.8233 17.9309 51.2085C17.9309 53.5937 16.0033 55.5213 13.6181 55.5213ZM17.9309 35.4574H9.30532V13.8934H17.9309V35.4574Z" fill="white"/>
<path d="M41.4169 9.58057H28.9585C27.6384 9.58057 26.5658 10.6531 26.5658 11.9732V57.4339C26.5658 58.754 27.6384 59.8266 28.9585 59.8266H41.4169C42.737 59.8266 43.8095 58.754 43.8095 57.4339V11.9732C43.8095 10.6531 42.737 9.58057 41.4169 9.58057ZM35.1839 55.5213C32.7988 55.5213 30.8711 53.5937 30.8711 51.2085C30.8711 48.8233 32.7988 46.8957 35.1839 46.8957C37.5691 46.8957 39.4967 48.8233 39.4967 51.2085C39.4967 53.5937 37.5691 55.5213 35.1839 55.5213ZM39.4967 35.4574H30.8711V13.8934H39.4967V35.4574Z" fill="white"/>
<path d="M62.8511 9.58057H50.3927C49.0726 9.58057 48 10.6531 48 11.9732V57.4339C48 58.754 49.0726 59.8266 50.3927 59.8266H62.8511C64.1712 59.8266 65.2437 58.754 65.2437 57.4339V11.9732C65.2437 10.6531 64.1712 9.58057 62.8511 9.58057ZM56.6181 55.5213C54.233 55.5213 52.3053 53.5937 52.3053 51.2085C52.3053 48.8233 54.233 46.8957 56.6181 46.8957C59.0033 46.8957 60.9309 48.8233 60.9309 51.2085C60.9309 53.5937 59.0033 55.5213 56.6181 55.5213ZM60.9309 35.4574H52.3053V13.8934H60.9309V35.4574Z" fill="white"/>
</svg>
