<svg width="70" height="70" viewBox="0 0 70 70" fill="none" xmlns="http://www.w3.org/2000/svg">
<path d="M34.9902 8C23.954 8 15 16.954 15 27.9902C15 38.7488 33.7408 61.1684 34.5043 62.1402C34.6432 62.3484 34.8514 62.4178 35.0596 62.4178C35.2679 62.4178 35.4761 62.3484 35.4761 62.1402C36.309 61.2378 54.9804 38.7488 54.9804 27.9902C54.9804 16.954 46.0265 8 34.9902 8ZM34.7126 35.0701C30.2009 35.0701 26.5221 31.3913 26.5221 26.8796C26.5221 22.368 30.2009 18.6892 34.7126 18.6892C39.2243 18.6892 42.903 22.368 42.903 26.8796C42.903 31.3913 39.2243 35.0701 34.7126 35.0701Z" fill="white"/>
</svg>
