<svg width="70" height="70" viewBox="0 0 70 70" fill="none" xmlns="http://www.w3.org/2000/svg">
<path fill-rule="evenodd" clip-rule="evenodd" d="M55.3332 32.5211C55.9934 35.028 56.6405 37.4853 57.3978 39.7572V39.7497C57.5103 40.0948 57.4503 40.4698 57.2403 40.7623C57.0303 41.0548 56.6928 41.2273 56.3328 41.2273H53.7376V51.6156C53.7376 52.7632 52.8075 53.6932 51.6599 53.6932H43.3493C42.2018 53.6932 41.2717 54.6233 41.2717 55.7709V62.0038H20.5027C20.5027 56.4984 19.6177 51.0305 17.8775 45.8102L14.0223 34.2519C12.0121 28.2214 13.0022 21.591 16.6775 16.4081C20.3527 11.2252 26.2781 8.09751 32.6311 8C48.8753 8 52.2467 20.8016 55.3332 32.5211ZM24.5977 31.4017C24.1555 31.9885 23.7111 32.5785 23.2604 33.1767C24.585 34.1396 25.8529 35.0619 27.1353 35.9948L27.1562 36.01C27.813 35.09 28.4583 34.1857 29.1035 33.2814C29.7491 32.3766 30.3947 31.4718 31.052 30.5512C31.9408 31.7967 32.8012 33.0016 33.6585 34.2022C34.0898 34.8062 34.5203 35.409 34.9532 36.0155L35.5343 35.5787C36.6123 34.7685 37.6659 33.9766 38.7342 33.1739C37.553 31.6047 36.4145 30.0936 35.257 28.5571L34.8493 28.016C36.5774 27.4369 38.2619 26.8721 39.9723 26.2985L41 25.9539C40.6232 24.977 40.2553 24.0246 39.8865 23.0699C39.6973 22.5799 39.5078 22.0894 39.3167 21.5946C38.3865 21.9193 37.471 22.2392 36.5525 22.5601C35.5335 22.9161 34.5107 23.2734 33.46 23.6402V17H28.514V23.6307L22.6778 21.6C22.1049 23.0892 21.5634 24.4949 21 25.9567C23.0703 26.6499 25.0777 27.3227 27.148 28.0174C26.2881 29.1578 25.4472 30.274 24.5977 31.4017Z" fill="white"/>
</svg>
