<svg width="70" height="70" viewBox="0 0 70 70" fill="none" xmlns="http://www.w3.org/2000/svg">
<path d="M41.1689 25.265C39.8584 25.265 38.7923 24.1988 38.7923 22.888V13H18.679C18.3056 13 18 13.3056 18 13.6791V55.9478C18 56.3213 18.3056 56.6269 18.679 56.6269H50.3768C50.7502 56.6269 51.0558 56.3213 51.0558 55.9478V25.265H41.1689ZM35.5465 45.3942V46.7321C35.5465 47.2958 35.0915 47.7508 34.5279 47.7508C33.9643 47.7508 33.5094 47.2958 33.5094 46.7321V45.3942C31.0648 44.9528 29.211 42.9426 29.211 40.5317C29.211 39.968 29.666 39.513 30.2296 39.513C30.7932 39.513 31.2481 39.968 31.2481 40.5317C31.2481 42.1412 32.7217 43.4451 34.5279 43.4451C36.3342 43.4451 37.8009 42.1073 37.8009 40.5317C37.8009 38.6641 35.9132 37.9035 34.331 37.5911C31.4518 36.9595 29.7474 35.2956 29.7474 33.1496C29.7474 31.0036 31.3636 29.2243 33.5094 28.7828V27.5604C33.5094 26.9968 33.9643 26.5417 34.5279 26.5417C35.0915 26.5417 35.5465 26.9968 35.5465 27.5604V28.7828C37.6923 29.2175 39.3084 31.0104 39.3084 33.1496C39.3084 33.7133 38.8534 34.1683 38.2898 34.1683C37.7262 34.1683 37.2712 33.7133 37.2712 33.1496C37.2712 31.8321 36.015 30.7184 34.5279 30.7184C33.0408 30.7184 31.7846 31.8117 31.7846 33.1496C31.7846 34.7727 33.8557 35.4043 34.7452 35.6013C37.9707 36.2328 39.8381 38.0325 39.8381 40.5385C39.8381 43.0445 37.9843 44.9528 35.5465 45.401V45.3942Z" fill="white"/>
<path d="M41.169 23.2276H50.3157L40.8295 13.7334V22.888C40.8295 23.0781 40.9789 23.2276 41.169 23.2276Z" fill="white"/>
</svg>
