<svg width="70" height="70" viewBox="0 0 70 70" fill="none" xmlns="http://www.w3.org/2000/svg">
<path d="M33.8044 40.7542L36.0249 40.7609C36.086 40.7609 36.1539 40.7609 36.215 40.7542H33.8044Z" fill="white"/>
<path d="M35.2916 16C24.6375 16 16 24.6385 16 35.2939C16 45.9494 24.6375 54.5878 35.2916 54.5878C45.9458 54.5878 54.5832 45.9494 54.5832 35.2939C54.5832 24.6385 45.9458 16 35.2916 16ZM40.8869 39.2872C40.6018 41.5215 38.7276 43.1921 36.5207 43.4366V45.9426C36.5207 46.3161 36.2151 46.6217 35.8417 46.6217H34.4836C34.1033 46.6217 33.8045 46.3161 33.8045 45.9426V43.4774H31.0136C30.6402 43.4774 30.3346 43.1718 30.3346 42.7982V41.44C30.3346 41.0597 30.6402 40.7609 31.0136 40.7609H33.8045L36.2151 40.7541C37.1522 40.6726 37.9874 40.0138 38.1708 39.0766C38.4288 37.732 37.4034 36.5503 36.1065 36.5503H34.6397C32.1952 36.5503 30.0087 34.7914 29.6963 32.3601C29.3432 29.6572 31.2581 27.3142 33.8045 26.9611V24.6453C33.8045 24.2717 34.1033 23.9661 34.4836 23.9661H35.8417C36.2151 23.9661 36.5207 24.2717 36.5207 24.6453V26.9067H38.6189C38.9924 26.9067 39.298 27.2123 39.298 27.5859V28.9441C39.298 29.3176 38.9924 29.6232 38.6189 29.6232H34.5583C33.5397 29.6232 32.6026 30.3091 32.4125 31.3075C32.1477 32.6521 33.1798 33.8338 34.4768 33.8338H36.1065C38.972 33.8338 41.2604 36.3466 40.8869 39.2872Z" fill="white"/>
<path d="M36.215 40.7542C36.1539 40.7609 36.086 40.7609 36.0249 40.7609H33.8044L36.215 40.7542Z" fill="white"/>
</svg>
