<svg width="70" height="70" viewBox="0 0 70 70" fill="none" xmlns="http://www.w3.org/2000/svg">
<path d="M37.1845 23.5586H30.5895V29.071H37.1845V23.5586Z" fill="white"/>
<path d="M57.9332 12H23.5006C21.82 12 20.458 13.3622 20.458 15.043V50.5949C20.458 52.7776 18.865 54.6416 16.8259 54.8407C15.6631 54.9522 14.5559 54.5858 13.7117 53.8051C12.8674 53.0484 12.3895 51.9571 12.3895 50.8259V31.2616H16.4198C17.0809 31.2616 17.6145 30.7279 17.6145 30.0667C17.6145 29.4055 17.0809 28.8718 16.4198 28.8718H11.1947C10.5337 28.8718 10 29.4055 10 30.0667V50.8259C10 52.6262 10.7646 54.3628 12.1027 55.5736C13.2895 56.657 14.8347 57.2464 16.4357 57.2464C16.6029 57.2464 16.7702 57.2464 16.9375 57.2225L54.8428 57.2464C58.2279 57.2464 60.9758 54.4982 60.9758 51.1206V15.043C60.9758 13.3622 59.6138 12 57.9332 12ZM28.1999 22.3637C28.1999 21.7025 28.7336 21.1688 29.3947 21.1688H38.3791C39.0323 21.1688 39.5739 21.7025 39.5739 22.3637V30.2659C39.5739 30.927 39.0323 31.4607 38.3791 31.4607H29.3947C28.7336 31.4607 28.1999 30.927 28.1999 30.2659V22.3637ZM51.8718 48.0856H29.3947C28.7336 48.0856 28.1999 47.5439 28.1999 46.8907C28.1999 46.2375 28.7336 45.6958 29.3947 45.6958H51.8718C52.5329 45.6958 53.0666 46.2296 53.0666 46.8907C53.0666 47.5519 52.5329 48.0856 51.8718 48.0856ZM51.8718 39.9046H29.3947C28.7336 39.9046 28.1999 39.3709 28.1999 38.7097C28.1999 38.0485 28.7336 37.5148 29.3947 37.5148H51.8718C52.5329 37.5148 53.0666 38.0485 53.0666 38.7097C53.0666 39.3709 52.5329 39.9046 51.8718 39.9046ZM51.8718 31.7316H45.1255C44.4644 31.7316 43.9308 31.1978 43.9308 30.5367C43.9308 29.8755 44.4644 29.3418 45.1255 29.3418H51.8718C52.5329 29.3418 53.0666 29.8755 53.0666 30.5367C53.0666 31.1978 52.5329 31.7316 51.8718 31.7316ZM51.8718 23.5586H45.1255C44.4644 23.5586 43.9308 23.0169 43.9308 22.3637C43.9308 21.7105 44.4644 21.1688 45.1255 21.1688H51.8718C52.5329 21.1688 53.0666 21.7025 53.0666 22.3637C53.0666 23.0248 52.5329 23.5586 51.8718 23.5586Z" fill="white"/>
</svg>
