<svg width="70" height="70" viewBox="0 0 70 70" fill="none" xmlns="http://www.w3.org/2000/svg">
<path d="M41.901 38.6101V30.6335L34.9922 26.6453L28.0834 30.6335V38.6101L34.9922 42.5983L41.901 38.6101Z" fill="#E0E3E6"/>
<path d="M28.2814 22.8325L28.2791 30.6511L35.1123 26.6851L28.2814 22.8325Z" fill="#C1C6CD"/>
<path d="M48.5697 34.564L41.801 30.6558L41.7965 38.4877L48.5697 34.564Z" fill="#C1C6CD"/>
<path d="M21.4971 34.5638L28.2813 38.4765V30.6445L21.4971 34.5638Z" fill="#C1C6CD"/>
<path d="M41.8032 22.7993L34.9967 26.7209L41.7987 30.6557L41.8032 22.7993Z" fill="#C1C6CD"/>
<path d="M28.1835 46.3462L35.0612 42.3758L28.2858 38.4832L28.1835 46.3462Z" fill="#C1C6CD"/>
<path d="M41.7854 46.4575L41.7965 38.4788L34.9944 42.4114L41.7854 46.4575Z" fill="#C1C6CD"/>
<path d="M41.7987 30.6558L48.5874 34.5773L64 25.6777L57.2068 13.9131L41.7987 22.8083V30.6558Z" fill="#838D9C"/>
<path d="M28.2813 30.6446L21.4926 34.5661L6.08008 25.6687L12.8733 13.9019L28.2813 22.797V30.6446Z" fill="#838D9C"/>
<path d="M28.268 34.6195C28.268 34.7129 28.2702 34.8063 28.2747 34.8997C28.3325 35.9719 28.6395 37.0462 29.2289 38.0339C29.8072 39.0015 30.5902 39.7711 31.4844 40.3294C31.5556 40.3717 31.6223 40.4161 31.6957 40.4584C31.7669 40.4984 31.8403 40.5363 31.9137 40.5741C32.8524 41.0568 33.9134 41.3348 35.0411 41.3348C36.1689 41.3348 37.2633 41.0501 38.2108 40.5541C38.2776 40.5185 38.3465 40.4806 38.4133 40.4428C38.5045 40.3917 38.5912 40.3361 38.6802 40.2805C38.8203 40.1915 38.9605 40.0981 39.0939 39.998C39.105 39.9891 39.1162 39.9802 39.1273 39.9713C39.8302 39.4352 40.4396 38.7568 40.909 37.9427C41.4829 36.9462 41.772 35.8673 41.8143 34.7952C41.8165 34.7018 41.8187 34.6084 41.8165 34.5127C41.8165 34.4193 41.8143 34.3236 41.8099 34.2302C41.752 33.1581 41.4451 32.0837 40.8556 31.0961C40.2773 30.1285 39.4965 29.3589 38.6001 28.8006C38.5289 28.7583 38.46 28.7116 38.3888 28.6716C38.3176 28.6293 38.242 28.5937 38.1686 28.5559C37.2299 28.0732 36.1689 27.7952 35.0434 27.7952C34.1047 27.7952 33.2105 27.9842 32.3964 28.3268C32.383 28.3335 32.3697 28.3379 32.3564 28.3446C32.2029 28.4113 32.0538 28.4847 31.9048 28.5626C31.8136 28.6115 31.7224 28.6604 31.6334 28.7116C31.5667 28.7494 31.5 28.7917 31.4355 28.8317C30.5324 29.4056 29.7494 30.1975 29.1777 31.1895C28.6039 32.186 28.3147 33.2648 28.2724 34.337C28.2702 34.4304 28.268 34.5238 28.2702 34.6173L28.268 34.6195Z" fill="white"/>
<path d="M35.0011 26.7186L41.7943 22.8037L41.8032 5.00667L28.2168 5L28.2079 22.7904L35.0011 26.7186Z" fill="#838D9C"/>
<path d="M41.7965 38.4877L48.5853 34.5662L63.9978 43.4658L57.2046 55.2304L41.7832 46.3308L41.7965 38.4877Z" fill="#838D9C"/>
<path d="M28.2902 38.4766L21.4971 34.564L6 43.468L12.7932 55.2327L28.2013 46.3375L28.2902 38.4766Z" fill="#838D9C"/>
<path d="M34.9945 42.4114L41.7876 46.3262L41.7965 64.1211L28.2102 64.1277L28.2013 46.3374L34.9945 42.4114Z" fill="#838D9C"/>
</svg>
