<svg width="70" height="70" viewBox="0 0 70 70" fill="none" xmlns="http://www.w3.org/2000/svg">
<path d="M34.9375 20.7458C38.1777 20.7458 40.8104 18.1207 40.8104 14.8729C40.8104 11.6252 38.1852 9 34.9375 9C31.6898 9 29.0646 11.6252 29.0646 14.8729C29.0646 18.1207 31.6898 20.7458 34.9375 20.7458Z" fill="white"/>
<path d="M47.2769 34.9744V32.5292C47.2769 28.4714 44.8017 25.6962 41.419 24.2111C39.7238 23.4686 37.8637 23.1536 36.0111 23.1536H33.8659C32.0133 23.1536 30.1531 23.4686 28.458 24.2111C25.0753 25.6962 22.6001 28.4714 22.6001 32.5292V34.9744C26.3204 36.8195 30.5057 37.8621 34.9385 37.8621C39.3713 37.8621 43.5566 36.8195 47.2769 34.9744Z" fill="white"/>
<path d="M31.3517 45.97C31.3517 47.9502 32.9569 49.5553 34.937 49.5553C36.9172 49.5553 38.5223 47.9502 38.5223 45.97C38.5223 43.9899 36.9172 42.3848 34.937 42.3848C32.9569 42.3848 31.3517 43.9899 31.3517 45.97Z" fill="white"/>
<path d="M38.8951 51.6704C37.86 51.2129 36.7274 51.0254 35.5948 51.0254H34.2823C33.1497 51.0254 32.0171 51.2204 30.982 51.6704C28.9119 52.578 27.4042 54.2731 27.4042 56.7558V58.2484C29.6769 59.3735 32.2346 60.011 34.9423 60.011C37.65 60.011 40.2077 59.3735 42.4803 58.2484V56.7558C42.4803 54.2731 40.9652 52.578 38.9026 51.6704H38.8951Z" fill="white"/>
<path d="M16.5328 49.5553C18.5129 49.5553 20.1181 47.9502 20.1181 45.97C20.1181 43.9899 18.5129 42.3848 16.5328 42.3848C14.5527 42.3848 12.9476 43.9899 12.9476 45.97C12.9476 47.9502 14.5527 49.5553 16.5328 49.5553Z" fill="white"/>
<path d="M20.4908 51.6704C19.4557 51.2129 18.3231 51.0254 17.1906 51.0254H15.878C14.7454 51.0254 13.6128 51.2204 12.5778 51.6704C10.5076 52.578 9 54.2731 9 56.7558V58.2484C11.2727 59.3735 13.8303 60.011 16.538 60.011C19.2457 60.011 21.8034 59.3735 24.076 58.2484V56.7558C24.076 54.2731 22.561 52.578 20.4983 51.6704H20.4908Z" fill="white"/>
<path d="M53.3413 49.5553C55.3214 49.5553 56.9265 47.9502 56.9265 45.97C56.9265 43.9899 55.3214 42.3848 53.3413 42.3848C51.3611 42.3848 49.756 43.9899 49.756 45.97C49.756 47.9502 51.3611 49.5553 53.3413 49.5553Z" fill="white"/>
<path d="M57.2993 51.6704C56.2642 51.2129 55.1316 51.0254 53.999 51.0254H52.6864C51.5539 51.0254 50.4213 51.2204 49.3862 51.6704C47.316 52.578 45.8085 54.2731 45.8085 56.7558V58.2484C48.0811 59.3735 50.6388 60.011 53.3465 60.011C56.0542 60.011 58.6119 59.3735 60.8845 58.2484V56.7558C60.8845 54.2731 59.3694 52.578 57.3068 51.6704H57.2993Z" fill="white"/>
</svg>
