<svg width="70" height="70" viewBox="0 0 70 70" fill="none" xmlns="http://www.w3.org/2000/svg">
<path d="M45.9147 39.7596C44.9039 38.7488 44.2659 37.5049 44.0009 36.2016H25.9991C25.7341 37.5049 25.0961 38.7488 24.0853 39.7596C21.3453 42.4996 16.9029 42.4996 14.1629 39.7596C11.4229 37.0196 11.4229 32.5771 14.1629 29.8371C16.9029 27.0971 21.3453 27.0971 24.0853 29.8371C25.0961 30.8479 25.7341 32.0919 25.9991 33.3951H44.0009C44.2659 32.0919 44.9039 30.8479 45.9147 29.8371C48.6547 27.0971 53.0971 27.0971 55.8371 29.8371C58.5771 32.5771 58.5771 37.0196 55.8371 39.7596C53.0971 42.4996 48.6547 42.4996 45.9147 39.7596Z" fill="white"/>
</svg>
