<svg width="70" height="70" viewBox="0 0 70 70" fill="none" xmlns="http://www.w3.org/2000/svg">
<path d="M57.3978 39.7572C53.1 26.8638 52.35 8 32.6311 8C26.2781 8.09751 20.3527 11.2252 16.6775 16.4081C13.0022 21.591 12.0121 28.2214 14.0223 34.2519L17.8776 45.8102C19.6177 51.0305 20.5027 56.4984 20.5027 62.0038H41.2717V55.7709C41.2717 54.6233 42.2018 53.6932 43.3493 53.6932H51.6599C52.8075 53.6932 53.7376 52.7632 53.7376 51.6156V41.2273H56.3328C56.6928 41.2273 57.0303 41.0548 57.2403 40.7623C57.4503 40.4698 57.5103 40.0948 57.3978 39.7497V39.7572Z" fill="white"/>
</svg>
