<svg width="70" height="70" viewBox="0 0 70 70" fill="none" xmlns="http://www.w3.org/2000/svg">
<path d="M46.8095 10H22.9428C20.2126 10 18 12.2127 18 14.9429V55.6857C18 58.4159 20.2126 60.6286 22.9428 60.6286H46.8095C49.5397 60.6286 51.7524 58.4159 51.7524 55.6857V14.9429C51.7524 12.2127 49.5397 10 46.8095 10ZM38.0264 56.8783H31.726C30.4809 56.8783 29.4758 55.8732 29.4758 54.6282C29.4758 53.3831 30.4809 52.378 31.726 52.378H38.0264C39.2715 52.378 40.2766 53.3831 40.2766 54.6282C40.2766 55.8732 39.2715 56.8783 38.0264 56.8783ZM32.566 39.8146L23.7379 30.4014L27.4732 26.8987L32.536 32.2991L42.2417 21.8133L45.9995 25.2936L32.5585 39.8146H32.566Z" fill="white"/>
</svg>
