<svg width="70" height="70" viewBox="0 0 70 70" fill="none" xmlns="http://www.w3.org/2000/svg">
<path d="M32.832 59.4489C44.2139 59.4489 53.7799 50.5669 54.6082 39.2234C54.6241 39.0004 54.5445 38.7853 54.4011 38.626C54.2498 38.4667 54.0427 38.3711 53.8197 38.3711H32.0753V16.6241C32.0753 16.401 31.9797 16.1939 31.8204 16.0426C31.6611 15.8912 31.4381 15.8195 31.2231 15.8275C19.881 16.656 11 26.223 11 37.6063C11 49.6508 20.7969 59.4489 32.8399 59.4489H32.832Z" fill="white"/>
<path d="M37.595 11C37.1569 11 36.7985 11.3585 36.7985 11.7966V32.8426C36.7985 33.2807 37.1569 33.6392 37.595 33.6392H58.6384C59.0765 33.6392 59.4349 33.2807 59.4349 32.8426C59.4349 20.7981 49.638 11 37.595 11Z" fill="white"/>
</svg>
