<svg width="70" height="70" viewBox="0 0 70 70" fill="none" xmlns="http://www.w3.org/2000/svg">
<path d="M19.9329 44.7098V44.5598C19.9329 41.027 22.8056 38.1468 26.3459 38.1468H44.5722C51.3826 38.1468 56.918 32.6115 56.918 25.801C56.918 18.9905 51.3826 13.4551 44.5722 13.4551H33.4114V19.388H44.5722C48.1049 19.388 50.9851 22.2607 50.9851 25.801C50.9851 29.3412 48.1124 32.2139 44.5722 32.2139H26.3459C19.5354 32.2139 14 37.7493 14 44.5598V44.7098C14 51.5203 19.5354 57.0557 26.3459 57.0557H37.6642V51.1227H26.3459C22.8131 51.1227 19.9329 48.25 19.9329 44.7098Z" fill="white"/>
<path d="M17.1467 23.8361H20.3419C20.657 23.8361 20.717 23.7761 20.717 23.461V20.4158C20.717 20.1908 20.897 20.0108 21.122 20.0108H24.9697C25.1948 20.0108 25.3748 20.1908 25.3748 20.4158V23.461C25.3748 23.7236 25.3898 23.8361 25.8173 23.8361H29.1025C29.4251 23.8361 29.4776 23.7761 29.4776 23.461V17.7231C29.4776 16.8981 29.2151 15.8405 28.6525 14.3929L26.7624 9.45752C26.6574 9.165 26.5149 9 26.0573 9H20.2069C19.7269 9 19.5844 9.16503 19.4794 9.44255L17.5817 14.3854C17.0192 15.8405 16.7642 16.8981 16.7642 17.7156V23.4535C16.7642 23.7761 16.8242 23.8286 17.1392 23.8286L17.1467 23.8361ZM20.957 16.343L21.977 13.0428C22.1646 12.5928 22.4271 12.3827 22.7796 12.3827H23.3197C23.6722 12.3827 23.9347 12.5928 24.1072 13.0053L25.1423 16.343C25.1798 16.463 25.1573 16.5981 25.0823 16.7031C25.0073 16.8081 24.8873 16.868 24.7522 16.868H21.3395C21.212 16.868 21.0845 16.8081 21.0095 16.7031C20.9345 16.5981 20.912 16.463 20.9495 16.343H20.957Z" fill="white"/>
<path d="M51.7696 53.3807C51.5821 53.3657 51.4321 53.2232 51.4021 53.0357C51.3721 52.8482 51.4771 52.6682 51.6421 52.6007C52.3546 52.3006 52.6771 51.6856 52.6771 50.628V49.5854C52.6771 47.5378 51.5521 46.6677 48.9119 46.6677H41.9814C41.6589 46.6677 41.6064 46.7277 41.6064 47.0428V61.1288C41.6064 61.4513 41.6664 61.5038 41.9814 61.5038H50.3295C52.9997 61.5038 54.1397 60.5587 54.1397 58.3461V56.3434C54.1397 54.4233 53.4347 53.5307 51.7696 53.3807ZM45.6867 49.953C45.6867 49.7279 45.8667 49.5479 46.0917 49.5479H47.9368C48.7244 49.5479 49.1669 50.013 49.1669 50.823V51.4306C49.1669 52.2406 48.7169 52.7057 47.9368 52.7057H46.0917C45.8667 52.7057 45.6867 52.5256 45.6867 52.3006V49.953ZM50.1495 57.341C50.1495 58.1511 49.6995 58.6161 48.9194 58.6161H46.0917C45.8667 58.6161 45.6867 58.4361 45.6867 58.2111V55.6459C45.6867 55.4209 45.8667 55.2409 46.0917 55.2409H48.9194C49.7145 55.2409 50.1495 55.6834 50.1495 56.4934V57.341Z" fill="white"/>
</svg>
