<svg width="70" height="70" viewBox="0 0 70 70" fill="none" xmlns="http://www.w3.org/2000/svg">
<path d="M35.0855 16.1621C24.6554 16.1621 16.0723 23.9856 15.1081 34.3558C15.0945 34.5053 15.1828 34.6479 15.3254 34.7022C15.468 34.7565 15.6309 34.7022 15.7192 34.5868C17.2267 32.529 19.4064 31.3473 21.688 31.3473C24.3159 31.3473 26.7673 32.8957 28.2544 35.4968C28.3155 35.6054 28.4241 35.6666 28.5464 35.6666C28.6686 35.6666 28.784 35.5986 28.8383 35.4968C29.9859 33.4866 31.7175 32.1147 33.6663 31.5918V47.4901C33.6663 50.4171 35.8732 52.9774 38.7931 53.1744C41.9982 53.3849 44.6736 50.845 44.6736 47.6871V47.2117C44.6736 46.7227 44.2797 46.3288 43.7908 46.3288H42.8402C42.3512 46.3288 41.9575 46.7227 41.9575 47.2117V47.6871C41.9575 49.317 40.5518 50.6209 38.8882 50.4579C37.4418 50.3153 36.3825 49.0181 36.3825 47.5648V31.422C38.6302 31.7548 40.6741 33.2285 41.9778 35.4968C42.039 35.6054 42.1476 35.6666 42.2698 35.6666C42.392 35.6666 42.5075 35.5986 42.5618 35.4968C44.0421 32.8957 46.5002 31.3473 49.1281 31.3473C51.0566 31.3473 52.9172 32.1827 54.3636 33.7039C54.4654 33.8125 54.6216 33.8397 54.7574 33.7786C54.8932 33.7175 54.9679 33.5749 54.9476 33.4254C53.5691 23.5849 45.0335 16.1621 35.0787 16.1621H35.0855Z" fill="white"/>
</svg>
