<svg width="70" height="70" viewBox="0 0 70 70" fill="none" xmlns="http://www.w3.org/2000/svg">
<path d="M34.7126 27.2997C39.8879 27.2997 44.0882 23.0994 44.0882 17.924C44.0882 12.7486 39.8879 8.54834 34.7126 8.54834C29.5372 8.54834 25.3369 12.7486 25.3369 17.924C25.3369 23.0994 29.5372 27.2997 34.7126 27.2997Z" fill="white"/>
<path d="M39.2642 31.0574L35.2364 35.0852C34.9439 35.3777 34.4713 35.3777 34.1788 35.0852L30.151 31.0574C22.028 32.4 15 37.3953 15 46.0434V53.544C20.0778 58.5318 27.0308 61.607 34.7039 61.607C42.3769 61.607 49.3299 58.5318 54.4078 53.544V46.0434C54.4078 37.3953 47.3798 32.4 39.2567 31.0574H39.2642ZM47.4023 47.026C47.4023 47.4385 47.0647 47.7761 46.6522 47.7761H36.9015C36.489 47.7761 36.1515 47.4385 36.1515 47.026V44.7758C36.1515 44.3633 36.489 44.0258 36.9015 44.0258H46.6522C47.0647 44.0258 47.4023 44.3633 47.4023 44.7758V47.026Z" fill="white"/>
</svg>
