<svg width="70" height="70" viewBox="0 0 70 70" fill="none" xmlns="http://www.w3.org/2000/svg">
<path d="M49.55 41.1582C47.5265 38.2787 46.44 34.8491 46.44 31.3245V28.8796H24.0995V31.3245C24.0995 34.8424 23.013 38.2787 20.9894 41.1582C19.0745 43.8815 19.6042 47.6235 22.205 49.7016C23.434 50.6863 24.9619 51.2228 26.5373 51.2228H44.009C45.5844 51.2228 47.1123 50.6863 48.3413 49.7016C50.9353 47.6235 51.4717 43.8815 49.5568 41.1582H49.55Z" fill="white"/>
<path d="M50.168 23.9899H39.5411C40.6275 23.4941 41.388 22.4075 41.388 21.1376C41.388 19.4058 39.9824 18 38.2509 18C36.8384 18 35.6569 18.944 35.2631 20.2275C34.8692 18.944 33.6877 18 32.2752 18C30.5437 18 29.1381 19.4058 29.1381 21.1376C29.1381 22.4075 29.8986 23.5009 30.985 23.9899H20.3581C19.6111 23.9899 19 24.6011 19 25.3481V30.7064C19 31.0799 19.3056 31.3855 19.679 31.3855H21.0371C21.4106 31.3855 21.7162 31.0799 21.7162 30.7064V26.7064H48.8031V31.6776C48.8031 32.0511 49.1087 32.3567 49.4822 32.3567H50.8403C51.2137 32.3567 51.5193 32.0511 51.5193 31.6776V25.3481C51.5193 24.6011 50.9082 23.9899 50.1612 23.9899H50.168ZM35.2698 22.0476C35.5347 22.9169 36.1526 23.6231 36.9675 23.9899H33.5722C34.3871 23.6231 35.005 22.9101 35.2698 22.0476Z" fill="white"/>
</svg>
