<svg width="70" height="70" viewBox="0 0 70 70" fill="none" xmlns="http://www.w3.org/2000/svg">
<path d="M61.2983 43.343H47.0473V56.844H61.2983V43.343Z" fill="white"/>
<path d="M23.6465 35.8425H9.39551V56.844H23.6465V35.8425Z" fill="white"/>
<path d="M42.4746 28.3418H28.2236V56.8438H42.4746V28.3418Z" fill="white"/>
<path d="M34.7994 24.5916H37.9871V13.3408H32.7143V15.801H34.7994V24.5916Z" fill="white"/>
<path d="M16.2274 23.3615C17.1725 23.3615 17.645 23.789 17.645 24.4941C17.645 24.9516 17.5175 25.4541 16.6399 26.2717L12.5146 30.1345V32.0846H21.1027V29.6094H16.8499L18.9276 27.6893C20.5027 26.2417 20.8027 25.2591 20.8027 24.194C20.8027 22.1464 19.0551 20.8413 16.5199 20.8413C14.3447 20.8413 12.7846 21.7564 11.9521 23.144L14.2697 24.4341C14.7123 23.7215 15.4398 23.3615 16.2424 23.3615H16.2274Z" fill="white"/>
<path d="M53.8189 37.0724C52.7763 37.0724 51.6437 36.7574 50.7586 36.1574L49.626 38.505C50.7586 39.2176 52.3862 39.5926 53.9089 39.5926C57.2316 39.5926 58.7167 37.8 58.7167 35.9248C58.7167 34.3497 57.7416 33.1496 55.8815 32.7596L58.1692 30.2994V28.3418H50.1961V30.7495H54.5464L52.5737 32.8796V34.8523H53.8788C55.0789 34.8523 55.5664 35.2648 55.5664 35.9248C55.5664 36.6674 54.8764 37.0724 53.8189 37.0724Z" fill="white"/>
</svg>
