<svg width="70" height="70" viewBox="0 0 70 70" fill="none" xmlns="http://www.w3.org/2000/svg">
<path d="M16.7568 14.7442C15.9067 14.7359 15.1816 15.3577 15.0602 16.1991C14.9279 17.1161 14.8596 18.0527 14.8596 19.0041C14.8596 29.2978 22.8341 37.7215 32.9643 38.5752V52.6508C32.9643 53.5882 33.7242 54.3481 34.6616 54.3481C35.599 54.3481 36.3589 53.5882 36.3589 52.6508V38.5752C46.4891 37.7215 54.4636 29.2978 54.4636 19.0041C54.4636 18.0527 54.3952 17.1161 54.263 16.1991C54.1416 15.3577 53.4164 14.7359 52.5664 14.7442C44.5837 14.8227 37.7194 19.5908 34.6616 26.4157C31.6037 19.5908 24.7395 14.8227 16.7568 14.7442Z" fill="white"/>
</svg>
