<svg width="70" height="70" viewBox="0 0 70 70" fill="none" xmlns="http://www.w3.org/2000/svg">
<path d="M57.7184 11H12.4602C11.1026 11 10 12.1026 10 13.4602V42.0222C10 43.3798 11.1026 44.4824 12.4602 44.4824H23.4709L17.3655 59.7459H22.5484L28.6538 44.4824H41.5322L47.6377 59.7459H52.8205L46.7151 44.4824H57.7259C59.0835 44.4824 60.1861 43.3798 60.1861 42.0222V13.4602C60.1861 12.1026 59.0835 11 57.7259 11H57.7184ZM26.5012 37.1318H20.0882V28.6112H26.5012V37.1318ZM38.2995 37.1318H31.8865V23.4959H38.2995V37.1318ZM50.0903 37.1318H43.6774V18.3805H50.0903V37.1318Z" fill="white"/>
</svg>
