<svg width="70" height="70" viewBox="0 0 70 70" fill="none" xmlns="http://www.w3.org/2000/svg">
<path d="M59.031 51.3204L46.22 38.5095L44.2924 40.4371L41.0672 37.2119C43.1148 34.3842 44.3224 30.9115 44.3224 27.1612C44.3224 17.6805 36.6419 10 27.1612 10C17.6805 10 10 17.6805 10 27.1612C10 36.6419 17.6805 44.3224 27.1612 44.3224C30.919 44.3224 34.3917 43.1149 37.2119 41.0672L40.4371 44.2924L38.5095 46.2201L51.3204 59.031C53.4506 61.1611 56.9008 61.1611 59.0235 59.031C61.1536 56.9008 61.1536 53.4506 59.0235 51.3279L59.031 51.3204ZM27.1612 39.4096C20.3882 39.4096 14.9053 33.9192 14.9053 27.1537C14.9053 20.3882 20.3957 14.8978 27.1612 14.8978C33.9267 14.8978 39.4171 20.3882 39.4171 27.1537C39.4171 33.9192 33.9267 39.4096 27.1612 39.4096Z" fill="white"/>
</svg>
