<svg width="70" height="70" viewBox="0 0 70 70" fill="none" xmlns="http://www.w3.org/2000/svg">
<path d="M25.7954 56.5591H43.9326C45.0531 56.5591 45.9698 55.6423 45.9698 54.5217V32.9799C45.9698 32.1174 45.9223 31.2549 45.834 30.406C45.7118 29.2923 45.5149 28.1921 45.2432 27.1123C44.0685 22.4331 41.5017 18.1682 37.8145 14.922L36.2119 13.5094C36.1169 13.4279 36.015 13.3532 35.9064 13.2853C35.886 13.2717 35.8588 13.2649 35.8384 13.2513C35.7501 13.2038 35.6619 13.1563 35.5737 13.1223C35.5601 13.1223 35.5397 13.1155 35.5261 13.1087C35.1119 12.9661 34.6637 12.9661 34.2495 13.0951C34.2155 13.1087 34.1816 13.1087 34.1476 13.1223C34.0797 13.1495 34.0119 13.1834 33.9439 13.2174C33.9032 13.2378 33.8556 13.2581 33.8149 13.2785C33.713 13.3396 33.6112 13.4143 33.5161 13.4958L32.7148 14.2021L31.9136 14.9084C29.6728 16.8847 27.8462 19.2412 26.4949 21.8355C26.4813 21.8626 26.4609 21.8966 26.4473 21.9238C26.1078 22.5757 25.809 23.248 25.5306 23.9272C25.4559 24.1173 25.3812 24.3007 25.3065 24.4908C25.1028 25.0274 24.9262 25.5639 24.7633 26.114C24.2268 27.9136 23.8941 29.7744 23.7922 31.676C23.7718 32.1038 23.7583 32.5385 23.7583 32.9663V54.5081C23.7583 55.6287 24.675 56.5455 25.7954 56.5455V56.5591ZM34.8674 23.7913C37.3324 23.7913 39.3355 25.7948 39.3355 28.26C39.3355 30.7252 37.3324 32.7286 34.8674 32.7286C32.4025 32.7286 30.3994 30.7252 30.3994 28.26C30.3994 25.7948 32.4025 23.7913 34.8674 23.7913Z" fill="white"/>
<path d="M18.0067 54.5421C18.0067 54.7594 18.1085 54.9632 18.285 55.0854C18.4005 55.1737 18.5431 55.2213 18.6857 55.2213C18.7536 55.2213 18.8215 55.2145 18.8826 55.1941L22.4001 54.1075V40.2805C19.7111 41.7067 17.9999 44.5183 17.9999 47.5947V54.5421H18.0067Z" fill="white"/>
<path d="M47.3276 40.2805V54.1075L50.8451 55.1941C50.913 55.2145 50.9809 55.2213 51.0488 55.2213C51.1914 55.2213 51.334 55.1737 51.4495 55.0854C51.626 54.9564 51.7278 54.7527 51.7278 54.5421V47.5947C51.7278 44.5183 50.0166 41.7135 47.3276 40.2805Z" fill="white"/>
</svg>
