<svg width="70" height="70" viewBox="0 0 70 70" fill="none" xmlns="http://www.w3.org/2000/svg">
<path d="M53.3253 13.6203L52.7102 13.9804C51.0301 14.9704 49.11 15.488 47.1598 15.488C43.3196 15.488 39.8168 13.5303 37.8067 10.2451L37.0416 9H33.7789L33.0138 10.2451C30.9962 13.5303 27.501 15.488 23.6607 15.488C21.703 15.488 19.7829 14.9629 18.1103 13.9804L17.4952 13.6203H14V25.6812C14 50.5155 33.4264 60.5137 34.2514 60.9262L35.4215 61.5112L36.5916 60.9262C37.4167 60.5137 56.843 50.5155 56.843 25.6812V13.6203H53.3478H53.3253ZM33.0963 44.26L24.2682 34.8468L28.0035 31.3441L33.0663 36.7445L42.772 26.2587L46.5298 29.739L33.0888 44.26H33.0963Z" fill="white"/>
</svg>
