<svg width="70" height="70" viewBox="0 0 70 70" fill="none" xmlns="http://www.w3.org/2000/svg">
<path d="M8.62538 40.6348C9.54794 40.8598 13.9058 41.9099 14.8808 42.0674C15.0008 42.0899 15.1058 42.1649 15.1583 42.2774L16.5534 45.3302C16.6059 45.4427 16.5984 45.5702 16.5309 45.6752C16.0059 46.5152 13.9508 50.498 13.5157 51.3381C13.4707 51.4281 13.4857 51.5406 13.5457 51.6156L15.5559 53.9333C15.6234 54.0083 15.7284 54.0383 15.8259 54.0083C16.726 53.7008 20.9563 52.2306 21.8638 51.8256C21.9763 51.7731 22.1113 51.7881 22.2088 51.8556L25.029 53.6707C25.1341 53.7382 25.1941 53.8508 25.2016 53.9783C25.2166 54.9683 25.6366 59.4312 25.7266 60.3762C25.7341 60.4812 25.8091 60.5637 25.9066 60.5937L28.8468 61.4563C28.9443 61.4863 29.0493 61.4563 29.1168 61.3738C29.7019 60.6312 32.4696 57.0985 33.0171 56.2734C33.0846 56.1684 33.1971 56.1084 33.3246 56.1084H36.6774C36.7974 56.1084 36.9174 56.1684 36.9849 56.2734C37.5324 57.0985 40.3001 60.6237 40.8852 61.3738C40.9452 61.4563 41.0577 61.4863 41.1552 61.4563L44.0954 60.5937C44.1929 60.5637 44.2679 60.4812 44.2754 60.3762C44.3654 59.4312 44.7854 54.9683 44.8004 53.9783C44.8004 53.8583 44.8679 53.7382 44.973 53.6707L47.7931 51.8556C47.8982 51.7881 48.0257 51.7806 48.1382 51.8256C49.0457 52.2231 53.276 53.6933 54.1761 54.0083C54.2736 54.0383 54.3786 54.0083 54.4461 53.9333L56.4563 51.6156C56.5238 51.5406 56.5388 51.4281 56.4863 51.3381C56.0512 50.498 53.9961 46.5077 53.4711 45.6752C53.4036 45.5702 53.3961 45.4427 53.4486 45.3302L54.8437 42.2774C54.8962 42.1649 55.0012 42.0824 55.1212 42.0674C56.0962 41.9174 60.454 40.8598 61.3766 40.6348C61.4741 40.6123 61.5491 40.5298 61.5641 40.4248L61.9992 37.3946C62.0142 37.2896 61.9617 37.1921 61.8791 37.1396C61.0616 36.667 57.1763 34.4244 56.2763 34.0043C56.1638 33.9518 56.0887 33.8468 56.0662 33.7268L55.5862 30.4041C55.5712 30.2841 55.6162 30.1566 55.7062 30.0741C56.4488 29.414 59.539 26.1738 60.199 25.4912C60.2665 25.4162 60.289 25.3037 60.244 25.2137L58.9689 22.4235C58.9239 22.3335 58.8339 22.2735 58.7289 22.2735C57.7839 22.3185 53.306 22.536 52.3235 22.6636C52.2035 22.6786 52.076 22.6335 52.0009 22.5435L49.8033 20.0084C49.7208 19.9184 49.6908 19.7834 49.7283 19.6708C49.9983 18.7183 50.8459 14.3155 51.0259 13.3854C51.0484 13.2879 51.0034 13.1829 50.9134 13.1304L48.3332 11.4727C48.2432 11.4202 48.1382 11.4202 48.0482 11.4727C47.2756 12.0203 43.6229 14.623 42.8728 15.268C42.7753 15.3505 42.6478 15.373 42.5353 15.343L39.3176 14.398C39.1976 14.3605 39.1075 14.2705 39.07 14.1504C38.7775 13.2054 37.1199 9.04259 36.7674 8.15753C36.7299 8.06002 36.6399 8 36.5349 8H33.4671C33.3621 8 33.2721 8.06002 33.2346 8.15753C32.8821 9.03509 31.217 13.1979 30.932 14.1504C30.8945 14.2705 30.8044 14.3605 30.6844 14.398L27.4667 15.343C27.3467 15.3805 27.2192 15.3505 27.1292 15.268C26.3716 14.6305 22.7264 12.0278 21.9538 11.4727C21.8713 11.4127 21.7588 11.4127 21.6688 11.4727L19.0886 13.1304C18.9986 13.1829 18.9611 13.2879 18.9761 13.3854C19.1561 14.3155 20.0037 18.7183 20.2737 19.6708C20.3037 19.7909 20.2737 19.9184 20.1987 20.0084L18.001 22.5435C17.9185 22.6335 17.7985 22.6861 17.6785 22.6636C16.696 22.536 12.2181 22.3185 11.2731 22.2735C11.1681 22.2735 11.0781 22.326 11.0331 22.4235L9.75796 25.2137C9.71296 25.3037 9.73546 25.4162 9.80297 25.4912C10.4555 26.1813 13.5532 29.4215 14.2958 30.0741C14.3858 30.1566 14.4308 30.2766 14.4158 30.4041L13.9358 33.7268C13.9208 33.8468 13.8382 33.9518 13.7257 34.0043C12.8332 34.4244 8.9479 36.667 8.12284 37.1396C8.03284 37.1921 7.98784 37.2896 8.00284 37.3946L8.43786 40.4248C8.45286 40.5298 8.52787 40.6123 8.62538 40.6348ZM34.9972 26.3988C39.7676 26.3988 43.6379 30.2691 43.6379 35.0394C43.6379 39.8098 39.7676 43.68 34.9972 43.68C30.2269 43.68 26.3566 39.8098 26.3566 35.0394C26.3566 30.2691 30.2269 26.3988 34.9972 26.3988Z" fill="white"/>
</svg>
