<svg width="70" height="70" viewBox="0 0 70 70" fill="none" xmlns="http://www.w3.org/2000/svg">
<path fill-rule="evenodd" clip-rule="evenodd" d="M31.8665 7.08981C31.812 5.95276 32.718 5 33.8577 5H35.8696C37.0067 5 37.9153 5.95276 37.8608 7.08981L36.9392 26.4354C37.0534 26.4614 37.1703 26.4874 37.2819 26.5185L46.1554 9.31155C46.6772 8.2991 47.9389 7.92786 48.9228 8.49636L50.6648 9.50361C51.6513 10.0722 51.9628 11.3494 51.3475 12.3074L40.9295 28.5175C41.0255 28.6083 41.1216 28.6992 41.215 28.7927L57.417 18.3798C58.3749 17.7646 59.6522 18.0735 60.2233 19.06L61.228 20.8019C61.7965 21.7884 61.4279 23.0501 60.4154 23.5719L43.3461 32.3725C43.3877 32.5049 43.424 32.6425 43.4578 32.7775L62.6371 31.8663C63.7741 31.8117 64.7269 32.7177 64.7269 33.8574V35.8694C64.7269 37.0064 63.7741 37.915 62.6371 37.8605L43.4578 36.9467C43.424 37.0843 43.3877 37.2193 43.3461 37.3543L60.4154 46.1548C61.4278 46.6767 61.7965 47.9383 61.228 48.9223L60.2233 50.6642C59.6522 51.6508 58.375 51.9623 57.417 51.347L41.215 40.9341C41.1216 41.0276 41.0255 41.1185 40.9295 41.2067L51.3475 57.4168C51.9628 58.3748 51.6512 59.652 50.6674 60.2232L48.9228 61.2279C47.9389 61.7964 46.6773 61.4277 46.1554 60.4153L37.2819 43.2083C37.1702 43.2368 37.0534 43.2654 36.9392 43.2888L37.8608 62.637C37.9153 63.7741 37.0067 64.7269 35.8696 64.7269H33.8577C32.7181 64.7269 31.8121 63.7741 31.8665 62.637L32.7933 43.1824C32.6947 43.1565 32.596 43.1279 32.5 43.0968L23.5719 60.4154C23.0501 61.4278 21.7884 61.7965 20.8019 61.228L19.06 60.2233C18.0735 59.6522 17.7646 58.3749 18.3798 57.4169L28.9667 40.945C28.9044 40.8827 28.8447 40.8204 28.785 40.7581L12.3079 51.3477C11.3499 51.963 10.0727 51.6514 9.50413 50.6676L8.49688 48.923C7.92835 47.9391 8.29958 46.6774 9.31206 46.1556L26.7654 37.155C26.7447 37.0797 26.7239 37.0044 26.7057 36.9265L7.08979 37.8611C5.95275 37.9156 5 37.007 5 35.8699V33.858C5 32.7183 5.95275 31.8123 7.08979 31.8668L26.7057 32.8013C26.7239 32.7235 26.7447 32.6456 26.7654 32.5703L9.31206 23.5724C8.29963 23.0506 7.92839 21.7889 8.49688 20.8024L9.50413 19.0604C10.0727 18.0739 11.3499 17.765 12.3079 18.3802L28.785 28.9699C28.8447 28.905 28.9044 28.8427 28.9667 28.7803L18.3798 12.3084C17.7646 11.3505 18.0735 10.0732 19.06 9.50464L20.8019 8.49738C21.7884 7.92884 23.0501 8.30008 23.5719 9.31257L32.5 26.6312C32.596 26.6 32.6947 26.5715 32.7933 26.5455L31.8665 7.08981Z" fill="white"/>
</svg>
