<svg width="70" height="70" viewBox="0 0 70 70" fill="none" xmlns="http://www.w3.org/2000/svg">
<path d="M16.0203 42.0667V45.4079C16.0203 49.7 25.9547 52.6949 34.8773 52.6949C43.7999 52.6949 53.7276 49.7 53.7276 45.4079V42.0667C50.3323 45.1838 43.2499 47.2823 34.8773 47.2823C26.5047 47.2823 19.4155 45.1838 16.0203 42.0667Z" fill="white"/>
<path d="M52.5325 36.2803C52.4442 36.3415 52.3356 36.4162 52.2337 36.4773C51.7109 36.8236 51.0929 37.1768 50.4207 37.496L50.0268 37.6793C49.7009 37.8287 49.3614 37.9714 49.0151 38.114C48.8521 38.1819 48.6687 38.2498 48.4854 38.3177L48.336 38.372C48.2274 38.4128 48.1187 38.4535 48.0101 38.4875C47.8471 38.5418 47.6773 38.6029 47.5076 38.6573C47.4057 38.6912 47.2699 38.7388 47.1273 38.7795C46.9236 38.8406 46.7063 38.9086 46.489 38.9697H46.4754L46.2989 39.024C46.0952 39.0851 45.8575 39.1462 45.6198 39.2074C45.518 39.2345 45.4025 39.2549 45.2939 39.2821C44.8525 39.3907 44.4043 39.4994 43.9426 39.5945C43.8815 39.608 43.8203 39.6216 43.7592 39.6352C43.5963 39.6692 43.4265 39.6963 43.2568 39.7303C43.1956 39.7439 43.1278 39.7575 43.0666 39.7642C42.9919 39.7778 42.924 39.7914 42.8493 39.805C42.6796 39.8322 42.5506 39.8525 42.4147 39.8797C42.34 39.8933 42.2789 39.9001 42.211 39.9137C42.1975 39.9137 42.1839 39.9137 42.1703 39.9204C42.1431 39.9204 42.1228 39.9272 42.0956 39.934C42.0141 39.9476 41.9258 39.9612 41.8376 39.9748C41.7493 39.9884 41.6406 40.0087 41.5252 40.0223C41.4641 40.0291 41.4166 40.0359 41.3622 40.0427C41.2128 40.0631 41.0635 40.0834 40.9141 40.1038C40.8462 40.1174 40.7647 40.131 40.6696 40.1378L40.5338 40.1513C40.4727 40.1581 40.4048 40.1649 40.3437 40.1717C40.2011 40.1853 40.0517 40.2057 39.9023 40.2193C39.8412 40.2261 39.7733 40.2328 39.6918 40.2396C39.6578 40.2464 39.5899 40.2532 39.5085 40.2532C39.3251 40.2736 39.1418 40.2872 38.9516 40.3008C38.9381 40.3008 38.9313 40.3008 38.9177 40.3008C38.8905 40.3008 38.8633 40.3008 38.8362 40.3008C38.2047 40.3551 37.5732 40.3958 36.9213 40.423C36.8941 40.423 36.867 40.423 36.8398 40.423C36.738 40.423 36.6361 40.423 36.5342 40.4298C36.4799 40.4298 36.4324 40.4298 36.378 40.4298C36.2626 40.4366 36.1064 40.4434 35.9502 40.4434C35.5903 40.4434 35.244 40.457 34.8977 40.457C34.5514 40.457 34.1983 40.457 33.8588 40.4502C33.7026 40.4502 33.5532 40.4434 33.4106 40.4366C33.3699 40.4366 33.3223 40.4366 33.2816 40.4366C33.2001 40.4366 33.0847 40.4366 32.9557 40.4298C32.9285 40.4298 32.9014 40.4298 32.8674 40.4298C32.2495 40.4026 31.6451 40.3687 31.0476 40.3211C31.0068 40.3211 30.9661 40.3211 30.9185 40.3143C30.8914 40.3143 30.8778 40.3143 30.8574 40.3075C30.579 40.2872 30.3006 40.26 30.0222 40.2261C29.9883 40.2261 29.9475 40.2261 29.9 40.2125C29.7574 40.1989 29.6216 40.1853 29.479 40.1649C29.4111 40.1581 29.3432 40.1513 29.2753 40.1446L29.1259 40.1242C29.0647 40.1242 28.9969 40.1038 28.9358 40.097C28.7796 40.0766 28.6166 40.0563 28.4604 40.0359C28.4061 40.0291 28.3518 40.0223 28.2907 40.0155C28.2024 40.0019 28.1277 39.9884 28.0462 39.9748C27.9376 39.9612 27.8289 39.9408 27.7202 39.9272C27.6388 39.9137 27.5437 39.9001 27.4486 39.8865C27.2517 39.8525 27.1159 39.8254 26.9869 39.805C26.6406 39.7439 26.3418 39.6895 26.043 39.6284C25.9547 39.6081 25.8665 39.5877 25.7782 39.5673C25.6492 39.5401 25.5202 39.513 25.3979 39.479C25.1942 39.4315 24.9837 39.3907 24.7868 39.3432L24.2503 39.2006C24.1145 39.1666 23.9719 39.1327 23.8361 39.0919L23.3336 38.9561C23.191 38.9086 23.096 38.8814 23.0009 38.8542C22.3015 38.6369 21.7718 38.4603 21.2965 38.2838C20.9909 38.1683 20.6854 38.0529 20.3934 37.9306L19.3748 37.4688C19.1371 37.3534 18.9199 37.2447 18.7094 37.1292C18.5057 37.0206 18.3019 36.9051 18.1118 36.7897C18.0439 36.7489 17.9692 36.7082 17.9013 36.6606C17.7859 36.5859 17.6501 36.5045 17.521 36.423C17.3852 36.3347 17.2426 36.2396 17.1068 36.1377C16.9914 36.063 16.842 35.9544 16.6994 35.8389C16.4753 35.6691 16.2512 35.479 16.0475 35.2888V37.7948C16.0475 42.0936 25.9819 45.0886 34.9045 45.0886C43.8272 45.0886 53.7548 42.0936 53.7548 37.7948V35.2888C53.5375 35.4926 53.3066 35.6895 53.0553 35.8797C52.8992 36.0019 52.7294 36.1174 52.5597 36.2396L52.5325 36.2803Z" fill="white"/>
<path d="M16.0202 28.5112V31.0579C16.0202 31.1259 16.027 31.187 16.0338 31.2549C16.061 31.6012 16.1492 31.9272 16.3122 32.26L16.3597 32.3619C16.3937 32.423 16.4073 32.4569 16.4276 32.4841C16.5567 32.7014 16.6585 32.8576 16.774 33.0002C16.8079 33.041 16.8351 33.0749 16.8622 33.1089L16.9709 33.2379C17.0252 33.3058 17.0931 33.3738 17.1542 33.4417C17.2425 33.5368 17.3376 33.625 17.4259 33.7133C17.6092 33.8899 17.7925 34.0393 17.9895 34.1955C18.1049 34.2838 18.1932 34.3517 18.2883 34.4196C18.4308 34.5215 18.5463 34.5962 18.6549 34.6709C18.7704 34.7456 18.8858 34.8135 18.9944 34.8814L19.1438 34.9697C19.3204 35.0716 19.5037 35.1734 19.6939 35.2753C19.884 35.3772 20.0673 35.4723 20.2642 35.5673L20.8075 35.8118C24.515 37.401 29.8523 38.3517 34.8637 38.3517C39.875 38.3517 45.6876 37.3195 49.4088 35.5945L49.4767 35.5605C50.0471 35.2821 50.5835 34.9833 51.0588 34.6709C51.1607 34.6098 51.2286 34.5622 51.2897 34.5147C51.4391 34.4128 51.5749 34.3177 51.6971 34.2159C52.3898 33.6862 52.9059 33.1429 53.2454 32.586L53.2861 32.5249C53.2861 32.5249 53.3133 32.4705 53.3269 32.4502C53.5509 32.0427 53.6664 31.6488 53.7003 31.2685C53.7003 31.2006 53.7139 31.1326 53.7139 31.0579V28.5112C50.3187 31.6284 43.2363 33.7269 34.8569 33.7269C26.4775 33.7269 19.3951 31.6284 15.9999 28.5112H16.0202Z" fill="white"/>
<path d="M34.8771 31.574C43.7929 31.574 53.7341 28.5791 53.7341 24.287C53.7341 19.9949 43.7997 17 34.8771 17C25.9544 17 16.02 19.9949 16.02 24.287C16.02 28.5791 25.9544 31.574 34.8771 31.574Z" fill="white"/>
</svg>
