<svg width="70" height="70" viewBox="0 0 70 70" fill="none" xmlns="http://www.w3.org/2000/svg">
<path d="M39.0315 34.2393C39.0315 26.9863 45.1069 26.6562 45.1069 19.2832C45.1069 13.6053 40.5016 9 34.8237 9C29.1458 9 24.5404 13.6053 24.5404 19.2832C24.5404 26.6487 30.6159 26.9863 30.6159 34.2393C30.6159 41.4923 24.968 46.8552 18 46.8552V50.1254C18 51.6705 19.2526 52.9306 20.8052 52.9306H48.8422C50.3873 52.9306 51.6474 51.678 51.6474 50.1254V46.8552C44.6794 46.8552 39.0315 41.2073 39.0315 34.2393Z" fill="white"/>
<path d="M47.4399 56.8384H22.2081V61.5112H47.4399V56.8384Z" fill="white"/>
</svg>
