<svg width="70" height="70" viewBox="0 0 70 70" fill="none" xmlns="http://www.w3.org/2000/svg">
<path d="M51.4629 23.1161L53.9719 20.6148C54.4418 20.1448 54.4418 19.3881 53.9719 18.926C53.5019 18.456 52.7532 18.456 52.2833 18.926L49.7744 21.4273C45.8715 17.8984 40.7023 15.7556 35.0392 15.7556C29.3761 15.7556 24.1829 17.9144 20.2721 21.4512L17.787 18.9898C17.3171 18.5278 16.5604 18.5278 16.0984 18.9898C15.6365 19.4598 15.6365 20.2165 16.0984 20.6785L18.5835 23.148C15.1108 27.0433 13.0001 32.1734 13.0001 37.7893C13.0001 49.9374 22.8846 59.8231 35.0312 59.8231C47.1778 59.8231 57.0623 49.9374 57.0623 37.7893C57.0623 32.1574 54.9436 27.0115 51.455 23.1161H51.4629ZM33.8444 27.1708C33.8444 26.5096 34.3781 25.9759 35.0392 25.9759C35.7003 25.9759 36.2339 26.5096 36.2339 27.1708V36.5944H45.6564C46.3175 36.5944 46.8512 37.1282 46.8512 37.7893C46.8512 38.4505 46.3175 38.9842 45.6564 38.9842H35.0392C34.3781 38.9842 33.8444 38.4505 33.8444 37.7893V27.1708Z" fill="white"/>
<path d="M32.626 13.3898H37.4448C38.1058 13.3898 38.6395 12.8561 38.6395 12.1949C38.6395 11.5337 38.1058 11 37.4448 11H32.626C31.9649 11 31.4312 11.5337 31.4312 12.1949C31.4312 12.8561 31.9649 13.3898 32.626 13.3898Z" fill="white"/>
</svg>
