<svg width="70" height="70" viewBox="0 0 70 70" fill="none" xmlns="http://www.w3.org/2000/svg">
<path d="M56.1862 25.3688L52.4885 23.0736L53.7336 18.9033C54.1986 17.3582 53.261 16.0006 51.6484 15.8881L47.3056 15.5731L46.4731 11.3053C46.1655 9.72269 44.7029 8.95764 43.2253 9.60268L39.235 11.3428L36.5123 7.94507C35.5073 6.68498 33.8572 6.68498 32.8446 7.94507L30.1219 11.3428L26.1316 9.60268C24.654 8.95764 23.1914 9.72269 22.8839 11.3053L22.0513 15.5731L17.7085 15.8881C16.1034 16.0006 15.1658 17.3582 15.6234 18.9033L16.8685 23.0736L13.1707 25.3688C11.8056 26.2164 11.6031 27.859 12.7282 29.0066L15.7659 32.1193L13.5607 35.8695C12.7432 37.2571 13.3282 38.8022 14.8583 39.2973L18.9986 40.6399L18.7886 44.9827C18.7511 45.6952 19.0436 46.3853 19.5761 46.8578C20.1087 47.3304 20.8287 47.5329 21.5338 47.4129L25.6291 46.7078L19.0511 58.0936L26.0941 56.2035L27.9842 63.2465L34.6672 51.6732L41.3502 63.2465L43.2403 56.2035L50.2833 58.0936L43.7054 46.7078L47.8006 47.4129C49.3908 47.6829 50.6208 46.5878 50.5458 44.9827L50.3358 40.6399L54.4761 39.2973C56.0062 38.8022 56.5913 37.2571 55.7737 35.8695L53.5685 32.1193L56.6063 29.0066C57.7314 27.8515 57.5363 26.2164 56.1637 25.3688H56.1862ZM34.6897 43.0325C27.2417 43.0325 21.1813 36.9721 21.1813 29.5241C21.1813 22.0761 27.2417 16.0156 34.6897 16.0156C42.1378 16.0156 48.1982 22.0761 48.1982 29.5241C48.1982 36.9721 42.1378 43.0325 34.6897 43.0325Z" fill="white"/>
<path d="M34.6921 20.5161C29.7268 20.5161 25.684 24.5589 25.684 29.5243C25.684 34.4896 29.7268 38.5324 34.6921 38.5324C39.6575 38.5324 43.7002 34.4896 43.7002 29.5243C43.7002 24.5589 39.6575 20.5161 34.6921 20.5161Z" fill="white"/>
</svg>
