<svg width="70" height="70" viewBox="0 0 70 70" fill="none" xmlns="http://www.w3.org/2000/svg">
<path d="M34.7953 48.8889C42.3843 48.8889 48.5364 42.7368 48.5364 35.1478C48.5364 27.5588 42.3843 21.4067 34.7953 21.4067C27.2063 21.4067 21.0542 27.5588 21.0542 35.1478C21.0542 42.7368 27.2063 48.8889 34.7953 48.8889Z" fill="white"/>
<path d="M35.9648 5.948H33.2853V12.7498H35.9648V5.948Z" fill="white"/>
<path d="M21.146 9.25595L18.8256 10.5957L22.2265 16.4861L24.5469 15.1463L21.146 9.25595Z" fill="white"/>
<path d="M10.0752 19.5436L8.73547 21.864L14.6259 25.2649L15.9656 22.9445L10.0752 19.5436Z" fill="white"/>
<path d="M12.3964 33.9797H5.5946V36.6593H12.3964V33.9797Z" fill="white"/>
<path d="M14.7927 45.3938L8.90234 48.7947L10.2421 51.1151L16.1325 47.7142L14.7927 45.3938Z" fill="white"/>
<path d="M22.5906 53.9778L19.1897 59.8682L21.5102 61.2079L24.9111 55.3175L22.5906 53.9778Z" fill="white"/>
<path d="M36.307 57.5457H33.6274V64.3475H36.307V57.5457Z" fill="white"/>
<path d="M47.3277 53.7476L45.0072 55.0874L48.4081 60.9778L50.7286 59.638L47.3277 53.7476Z" fill="white"/>
<path d="M54.9629 45.0348L53.6232 47.3552L59.5136 50.7561L60.8533 48.4357L54.9629 45.0348Z" fill="white"/>
<path d="M63.9962 33.6362H57.1943V36.3157H63.9962V33.6362Z" fill="white"/>
<path d="M59.2857 19.2109L53.3953 22.6118L54.735 24.9323L60.6254 21.5314L59.2857 19.2109Z" fill="white"/>
<path d="M48.079 9.09154L44.6781 14.9819L46.9986 16.3217L50.3995 10.4313L48.079 9.09154Z" fill="white"/>
</svg>
