<svg width="70" height="70" viewBox="0 0 70 70" fill="none" xmlns="http://www.w3.org/2000/svg">
<path d="M58.1537 18.1962L54.7024 15L45.8042 24.611L41.16 19.6592L37.7313 22.8703L45.8267 31.5059L58.1537 18.1962Z" fill="white"/>
<path d="M61.132 38.7461C61.132 38.7461 61.117 38.7311 61.1095 38.7236C59.879 37.4931 57.9283 37.3581 56.5403 38.4009C49.6828 43.5403 47.1169 46.0912 41.7375 45.6185C35.3302 45.0483 32.1565 41.3345 32.1565 41.3345H38.0762C39.9068 41.3345 41.5349 39.999 41.7075 38.1834C41.9101 36.0976 40.2745 34.342 38.2262 34.342H25.2316V53.7515C41.6475 57.5028 45.7214 55.357 60.8844 43.1576C62.2574 42.0547 62.3699 39.999 61.1245 38.7536L61.132 38.7461Z" fill="white"/>
<path d="M10.0591 34.3167L29.6722 34.3319L27.4147 54.1746L26.3453 53.964C20.4402 52.801 14.6394 51.1602 9 49.0578L10.0591 34.3167Z" fill="white"/>
</svg>
