<svg width="70" height="70" viewBox="0 0 70 70" fill="none" xmlns="http://www.w3.org/2000/svg">
<path d="M34.0219 28.4213C34.2256 28.4213 34.4293 28.428 34.6262 28.4416L34.9658 28.4688C35.7127 28.5299 36.3646 27.973 36.4257 27.226L36.48 26.5469C36.5411 25.7998 35.9843 25.1411 35.2374 25.0868L34.8979 25.0596C34.6127 25.0392 34.3207 25.0256 34.0219 25.0256C27.8086 25.0256 22.7837 30.2277 23.0757 36.5096C23.3405 42.0852 27.9241 46.6693 33.499 46.9342C39.7802 47.2262 44.9816 42.2007 44.9816 35.9867V35.5317C44.9816 34.7847 44.3705 34.1734 43.6236 34.1734H42.9445C42.1976 34.1734 41.5864 34.7847 41.5864 35.5317V35.7626C41.5864 39.7015 38.6733 43.1447 34.7553 43.5182C30.26 43.9392 26.4641 40.401 26.4641 35.9867C26.4641 31.8169 29.8594 28.4213 34.0287 28.4213H34.0219Z" fill="white"/>
<path d="M32.4465 57.936C45.2872 58.8325 56.0229 48.6388 56.0229 35.9867C56.0229 34.8594 55.9483 33.8203 55.7853 32.822V32.6115C55.7853 31.8577 55.1741 31.2532 54.4204 31.2532H53.7414C52.9944 31.2532 52.3901 31.8645 52.3901 32.6115V32.9578C52.3969 33.0529 52.4036 33.148 52.4172 33.2431C52.5598 34.0988 52.6277 34.9952 52.6277 35.9867C52.6277 46.9478 43.1008 55.7289 31.8898 54.4793C23.3542 53.5285 16.4822 46.649 15.5248 38.1124C14.2754 26.9001 23.0554 17.3719 34.0152 17.3719C35.3868 17.3719 36.7313 17.5213 38.0215 17.8134L38.3542 17.8881C39.0876 18.0511 39.8142 17.5961 39.9771 16.8626L40.1266 16.1971C40.2895 15.4636 39.8346 14.7369 39.1012 14.574L38.7685 14.4992C37.2338 14.1529 35.6313 13.9763 34.0084 13.9763C21.3578 13.9763 11.1586 24.7133 12.0549 37.5555C12.8086 48.3943 21.5887 57.1754 32.433 57.936H32.4465Z" fill="white"/>
<path d="M32.6096 34.9748C32.0596 35.4841 32.0324 36.3466 32.5417 36.8967L33.0034 37.3925C33.5127 37.9425 34.3751 37.9697 34.9251 37.4604L43.9903 28.9849L48.1529 29.3652C48.1529 29.3652 48.1936 29.3652 48.214 29.3652C48.3838 29.3652 48.5535 29.2973 48.6758 29.1818L57.8904 20.5638C58.0873 20.3804 58.1552 20.102 58.0669 19.8439C57.9787 19.5926 57.7546 19.4092 57.483 19.3889L52.2543 18.9135L52.1253 13.6639C52.1253 13.399 51.9556 13.1545 51.7111 13.0526C51.4667 12.9508 51.1814 12.9983 50.9845 13.1817L41.7699 21.7998C41.6273 21.9288 41.5526 22.119 41.5526 22.3091L41.6545 26.4993L32.5892 34.968L32.6096 34.9748Z" fill="white"/>
</svg>
