<svg width="70" height="70" viewBox="0 0 70 70" fill="none" xmlns="http://www.w3.org/2000/svg">
<g clip-path="url(#clip0_1027_471)">
<path d="M23.1381 58.195L23.1383 58.225L23.1483 58.2251C23.1608 59.8865 24.6169 61.1936 26.267 61.0259C43.7878 59.2588 48.296 58.0311 56.0244 46.0644L61.0405 38.1218L64.8663 30.2424L54.3078 21.1359L43.9525 31.507L43.9446 31.4991L35.3421 40.1016C33.9862 41.4575 34.0833 43.7202 35.6192 44.9878C36.9536 46.0938 38.9289 45.9135 40.1408 44.7016L44.0596 40.7828C44.0596 40.7828 44.4545 45.3796 40.5961 50.0045C37.7285 53.4338 34.7284 53.8189 28.5476 54.6125C27.7374 54.7165 26.8725 54.8275 25.9461 54.9533C24.3263 55.1713 23.1257 56.5535 23.1381 58.195Z" fill="white"/>
<path d="M45.8619 12.4049L45.8617 12.3749L45.8517 12.3748C45.8392 10.7133 44.3831 9.40625 42.733 9.57397C25.2122 11.341 20.704 12.5687 12.9756 24.5354L7.95954 32.478L4.13374 40.3575L14.6922 49.4639L25.0475 39.0929L25.0554 39.1007L33.6579 30.4983C35.0138 29.1423 34.9167 26.8797 33.3808 25.612C32.0464 24.5061 30.0711 24.6864 28.8592 25.8983L24.9404 29.8171C24.9404 29.8171 24.5455 25.2202 28.4039 20.5954C31.2715 17.1661 34.2716 16.7809 40.4524 15.9874C41.2626 15.8834 42.1275 15.7723 43.0539 15.6465C44.6737 15.4285 45.8743 14.0464 45.8619 12.4049Z" fill="white"/>
</g>
<defs>
<clipPath id="clip0_1027_471">
<rect width="70" height="70" fill="white"/>
</clipPath>
</defs>
</svg>
