<svg width="70" height="70" viewBox="0 0 70 70" fill="none" xmlns="http://www.w3.org/2000/svg">
<path d="M57.4553 22.4285H42.1466V18.7881C42.1466 17.2506 40.8961 16 39.3589 16H30.4859C28.9487 16 27.6982 17.2506 27.6982 18.7881V22.4285H12.3895C11.0753 22.4285 10 23.5039 10 24.8183V34.0906H59.8448V24.8183C59.8448 23.5039 58.7695 22.4285 57.4553 22.4285ZM39.7571 22.4285H30.0877V18.7881C30.0877 18.565 30.2629 18.3898 30.4859 18.3898H39.3589C39.5819 18.3898 39.7571 18.565 39.7571 18.7881V22.4285Z" fill="white"/>
<path d="M42.0431 36.4883C41.4696 39.9057 38.4987 42.5185 34.9224 42.5185C31.3461 42.5185 28.3752 39.9057 27.8017 36.4883H10V51.7988C10 53.1132 11.0753 54.1886 12.3895 54.1886H57.4553C58.7695 54.1886 59.8448 53.1132 59.8448 51.7988V36.4883H42.0431Z" fill="white"/>
<path d="M39.6136 36.4883H30.2389C30.7725 38.5833 32.6682 40.1287 34.9223 40.1287C37.1764 40.1287 39.0721 38.5754 39.6057 36.4883H39.6136Z" fill="white"/>
</svg>
