<svg width="70" height="70" viewBox="0 0 70 70" fill="none" xmlns="http://www.w3.org/2000/svg">
<path d="M40.0604 29.8752C39.7967 29.8551 39.5405 29.8375 39.2893 29.8174C37.9379 29.6943 36.5364 29.5788 35.1925 29.6566C35.0192 29.6692 34.8509 29.7471 34.7178 29.8827C33.3664 31.2341 32.0101 32.505 31.2012 33.2084C30.0182 34.2382 28.4483 34.7004 26.911 34.4744C25.3688 34.2483 24.0374 33.3691 23.1684 31.9927C22.7514 31.3421 22.8469 30.468 23.3995 29.9154L33.3214 19.8983L29.001 15.4423C26.5118 12.8702 23.1937 11.4561 19.6694 11.4561C16.1451 11.4561 12.8347 12.8702 10.3455 15.4423C5.17614 20.7673 5.17614 29.4281 10.3455 34.7531L17.1101 41.7312L32.465 57.2416C32.8769 57.6661 33.3969 57.749 33.7636 57.749C34.4568 57.749 35.1777 57.4275 35.7379 56.8674C36.7401 55.8526 36.9084 54.3656 36.1096 53.5618L27.6474 45.0089C27.3912 44.7527 27.3962 44.3332 27.6549 44.0771C27.9111 43.8208 28.3306 43.8208 28.5818 44.0771L37.044 52.6222L37.5966 53.1824C38.0086 53.5993 38.5235 53.6847 38.8827 53.6847C39.5834 53.6847 40.3043 53.3708 40.862 52.8031C41.4347 52.2178 41.7361 51.4793 41.7361 50.8037C41.7361 50.3013 41.5678 49.8391 41.2337 49.4925L32.7715 40.9396C32.5203 40.6833 32.5203 40.2639 32.779 40.0077C33.0352 39.7515 33.4547 39.7515 33.7059 40.0077L42.7211 49.1129C43.1331 49.5299 43.6405 49.6153 44.0072 49.6153C44.708 49.6153 45.4213 49.3013 45.9865 48.7337C46.5592 48.1484 46.8606 47.4099 46.8606 46.7342C46.8606 46.2319 46.6923 45.7697 46.3457 45.423L37.8957 36.8778C37.6395 36.6216 37.6395 36.2021 37.8957 35.946C38.1594 35.6898 38.5714 35.6898 38.8276 35.946L47.8299 45.0435C48.6086 45.8222 50.1257 45.6489 51.0953 44.6642C51.6605 44.1041 51.9769 43.3707 51.9769 42.6698C51.9769 42.2981 51.8865 41.7756 51.462 41.3586L40.0734 29.842L40.0604 29.8752Z" fill="white"/>
<path d="M48.1117 11.5646C43.3921 12.2076 39.1094 15.9175 36.9745 18.0778L24.3249 30.8477C24.2093 30.9582 24.1892 31.1491 24.2746 31.2847C24.9428 32.3196 25.9526 32.9877 27.1105 33.1636C28.2685 33.3369 29.444 32.9827 30.3457 32.2066C31.1294 31.5183 32.4607 30.27 33.792 28.9412C34.1587 28.582 34.6284 28.3685 35.1157 28.3359C36.5625 28.2454 38.0093 28.3685 39.4109 28.4891C41.0562 28.6373 42.6261 28.7654 44.2085 28.5795C46.6701 28.2957 48.6645 26.9217 50.478 25.5377C50.7744 25.3116 51.1864 25.3694 51.3973 25.6658C51.6234 25.9546 51.5581 26.3741 51.2692 26.5926C49.2949 28.0846 47.1398 29.5766 44.349 29.8982C43.5779 29.9886 42.7916 30.0011 42.028 29.9811L52.3866 40.4431C52.5975 40.6692 52.7784 40.9254 52.914 41.2017L59.0479 34.8744C61.6276 32.2194 63.0468 28.733 63.0468 25.0882C63.0468 21.441 61.6779 18.0226 59.1686 15.4351C56.2875 12.4636 52.1609 11.0168 48.1143 11.5568L48.1117 11.5646Z" fill="white"/>
</svg>
