<svg width="70" height="70" viewBox="0 0 70 70" fill="none" xmlns="http://www.w3.org/2000/svg">
<path d="M5.89663 46.7715H7.95909C7.95909 42.791 11.2038 39.5464 15.1842 39.5464C19.1647 39.5464 22.4093 42.791 22.4093 46.7715H47.088C47.088 42.791 50.3327 39.5464 54.3131 39.5464C58.2935 39.5464 61.5382 42.791 61.5382 46.7715H63.7938C64.4693 46.7715 65 46.2407 65 45.5653V35.18C65 34.6854 64.7105 34.2512 64.2521 34.0581L57.8353 31.4286L54.8921 26.7366C54.663 26.3868 54.2769 26.1696 53.8668 26.1696H43.6142V19.2582C43.6142 18.5948 43.0713 18.052 42.408 18.052H5.89663C5.23312 18.052 4.69043 18.5948 4.69043 19.2582V45.5653C4.69043 46.2407 5.23312 46.7715 5.89663 46.7715ZM45.4235 29.3179H54.3131L56.6772 35.9519H45.4235V29.3179Z" fill="white"/>
<path d="M54.3073 51.5841C56.9653 51.5841 59.12 49.4294 59.12 46.7714C59.12 44.1135 56.9653 41.9587 54.3073 41.9587C51.6493 41.9587 49.4946 44.1135 49.4946 46.7714C49.4946 49.4294 51.6493 51.5841 54.3073 51.5841Z" fill="white"/>
<path d="M19.9935 46.7714C19.9935 44.1178 17.8344 41.9587 15.1807 41.9587C12.5272 41.9587 10.368 44.1178 10.368 46.7714C10.368 49.4251 12.5272 51.5841 15.1807 51.5841C17.8344 51.5841 19.9935 49.4251 19.9935 46.7714Z" fill="white"/>
</svg>
