<svg width="70" height="70" viewBox="0 0 70 70" fill="none" xmlns="http://www.w3.org/2000/svg">
<path d="M39.8104 37.1154C40.7339 37.1154 41.4944 36.4091 41.5895 35.5127C41.5963 35.4516 41.5963 35.3904 41.5963 35.3293C41.5963 35.2682 41.5963 35.2071 41.5895 35.1459C41.4944 34.2495 40.7339 33.5432 39.8104 33.5432C38.8258 33.5432 38.0245 34.3446 38.0245 35.3293C38.0245 36.314 38.8258 37.1154 39.8104 37.1154Z" fill="white"/>
<path d="M20.6885 46.9017H49.575V23.5806H20.6885V46.9017ZM32.6193 34.562C32.6193 34.1885 32.918 33.8829 33.2983 33.8829H35.5527C36.0077 32.5314 37.0874 31.472 38.4523 31.0374V28.7283C38.4523 28.348 38.751 28.0492 39.1313 28.0492H40.4894C40.8629 28.0492 41.1684 28.348 41.1684 28.7283V31.0374C42.5333 31.472 43.613 32.5314 44.0679 33.8829H46.3224C46.7026 33.8829 47.0014 34.1885 47.0014 34.562V35.9203C47.0014 36.2938 46.7026 36.5994 46.3224 36.5994H44.1291C43.7081 38.0323 42.5944 39.1733 41.1684 39.6215V41.7539C41.1684 42.1342 40.8629 42.4331 40.4894 42.4331H39.1313C38.751 42.4331 38.4523 42.1342 38.4523 41.7539V39.6215C37.0263 39.1733 35.9126 38.0323 35.4916 36.5994H33.2983C32.918 36.5994 32.6193 36.2938 32.6193 35.9203V34.562ZM24.6201 28.1035C24.6201 27.73 24.9257 27.4244 25.2992 27.4244H26.6573C27.0307 27.4244 27.3363 27.73 27.3363 28.1035V42.3787C27.3363 42.7522 27.0307 43.0579 26.6573 43.0579H25.2992C24.9257 43.0579 24.6201 42.7522 24.6201 42.3787V28.1035Z" fill="white"/>
<path d="M54.9056 17H15.3581C14.6043 17 14 17.6044 14 18.3582V52.1311C14 52.8781 14.6043 53.4894 15.3581 53.4894H54.9056C55.6593 53.4894 56.2636 52.8781 56.2636 52.1311V18.3582C56.2636 17.6044 55.6593 17 54.9056 17ZM52.2912 47.2957C52.2912 48.5793 51.2455 49.6183 49.9689 49.6183H20.3015C19.0181 49.6183 17.9724 48.5793 17.9724 47.2957V23.1868C17.9724 21.9033 19.0181 20.8642 20.3015 20.8642H49.9689C51.2455 20.8642 52.2912 21.9033 52.2912 23.1868V47.2957Z" fill="white"/>
</svg>
