<svg width="70" height="70" viewBox="0 0 70 70" fill="none" xmlns="http://www.w3.org/2000/svg">
<path d="M59.2735 38.0316L59.2767 38.0297L53.2042 26.6858L53.2017 26.6864C52.2987 24.9999 50.8094 23.6785 49.0054 22.9786L47.3278 18.9674L47.3266 18.9681C46.5984 17.2257 44.8743 16 42.8614 16C40.3105 16 38.2253 17.9693 38.0421 20.4643C37.1836 19.6898 36.0485 19.2136 34.7991 19.2136C33.5498 19.2136 32.4147 19.6898 31.5562 20.4643C31.373 17.9693 29.2878 16 26.7369 16C24.7239 16 22.9999 17.2257 22.2711 18.9681L22.2698 18.9674L20.5922 22.9786C18.7888 23.6779 17.2989 24.9999 16.396 26.6864L16.3934 26.6851L10.3209 38.0291L10.3241 38.031C9.48115 39.6069 9 41.4046 9 43.3154C9 49.5273 14.0534 54.5629 20.2871 54.5629C26.5208 54.5629 31.5742 49.5273 31.5742 43.3154C31.5742 42.3912 31.4504 41.4985 31.2395 40.6391C32.2599 41.3133 33.4827 41.7086 34.7991 41.7086C36.1155 41.7086 37.3384 41.3133 38.3588 40.6391C38.1479 41.4985 38.024 42.3912 38.024 43.3154C38.024 49.5273 43.0774 54.5629 49.3112 54.5629C55.5449 54.5629 60.5983 49.5273 60.5983 43.3154C60.5983 41.4046 60.1165 39.6069 59.2735 38.0316ZM20.2871 51.3494C15.8342 51.3494 12.2249 47.7527 12.2249 43.3154C12.2249 38.8781 15.8342 35.2815 20.2871 35.2815C24.7401 35.2815 28.3494 38.8781 28.3494 43.3154C28.3494 47.7527 24.7401 51.3494 20.2871 51.3494ZM34.7991 38.495C33.0184 38.495 31.5742 37.056 31.5742 35.2815C31.5742 33.5069 33.0184 32.0679 34.7991 32.0679C36.5799 32.0679 38.024 33.5069 38.024 35.2815C38.024 37.056 36.5799 38.495 34.7991 38.495ZM49.3112 51.3494C44.8582 51.3494 41.2489 47.7527 41.2489 43.3154C41.2489 38.8781 44.8582 35.2815 49.3112 35.2815C53.7641 35.2815 57.3734 38.8781 57.3734 43.3154C57.3734 47.7527 53.7641 51.3494 49.3112 51.3494Z" fill="white"/>
</svg>
