<svg width="70" height="70" viewBox="0 0 70 70" fill="none" xmlns="http://www.w3.org/2000/svg">
<path d="M52.5777 41.6038H42.8266C39.2752 41.6038 36.3893 38.7175 36.3893 35.1657C36.3893 31.6139 39.2752 28.7208 42.8266 28.7208H53.9358V22.989C53.9358 20.7208 52.0888 18.8735 49.814 18.8735H18.0619C15.7871 18.8735 13.9333 20.7208 13.9333 22.989V47.3356C13.9333 49.6039 15.7871 51.4511 18.0619 51.4511H49.814C52.0888 51.4511 53.9358 49.6039 53.9358 47.3356V41.6038H52.5777Z" fill="white"/>
<path d="M54.0919 30.7581H42.8266C40.4024 30.7581 38.4264 32.7343 38.4264 35.1656C38.4264 37.5968 40.4024 39.5663 42.8266 39.5663H54.0919C55.1852 39.5663 56.0747 38.6766 56.0747 37.59V32.7343C56.0747 31.6477 55.1852 30.7581 54.0919 30.7581ZM42.8538 36.1843H42.5957C42.0321 36.1843 41.5772 35.7224 41.5772 35.1656C41.5772 34.6087 42.0321 34.1469 42.5957 34.1469H42.8538C43.4174 34.1469 43.8723 34.6019 43.8723 35.1656C43.8723 35.7292 43.4174 36.1843 42.8538 36.1843Z" fill="white"/>
</svg>
