<svg width="70" height="70" viewBox="0 0 70 70" fill="none" xmlns="http://www.w3.org/2000/svg">
<path d="M35.8072 8.56432C35.8072 8.54762 35.7905 8.54762 35.7905 8.53093C35.7603 8.47416 35.7269 8.42407 35.6867 8.37732C35.6633 8.33391 35.6331 8.2905 35.5996 8.25711C35.5695 8.21704 35.526 8.19033 35.4791 8.1703L35.3251 8.06678C35.3084 8.06678 35.3084 8.05009 35.2916 8.05009C35.2581 8.03339 35.2247 8.05009 35.1878 8.03339C35.1276 8.01336 35.0639 8.00334 35.0003 8C34.9401 8 34.8831 8.01336 34.8296 8.03339C34.7894 8.03005 34.7459 8.03673 34.709 8.05009C34.6923 8.05009 34.6923 8.06678 34.6756 8.06678L34.5215 8.1703C34.4747 8.19033 34.4312 8.21705 34.401 8.25711C34.3675 8.29051 34.3374 8.33392 34.314 8.37732C34.2738 8.42407 34.2403 8.47416 34.2102 8.53093C34.2102 8.54762 34.1934 8.54762 34.1934 8.56432C32.0942 13.6332 29.2248 18.3479 25.6925 22.5486C21.2026 28.4657 16.9507 34.0555 17.0004 41.6456C17.0674 53.0492 24.4735 61 35 61C45.5265 61 52.9327 53.0493 52.9996 41.6456C53.0498 34.0556 48.801 28.4624 44.3075 22.5486C40.7752 18.3478 37.9065 13.6326 35.8072 8.56432ZM35.0003 55.871C27.236 55.871 22.1941 50.2811 22.1435 41.6123C22.1435 41.1415 22.5285 40.7575 23.0006 40.7575C23.4727 40.7575 23.8577 41.1415 23.8577 41.6123C23.908 49.2391 28.2807 54.1613 35.0003 54.1613C35.4724 54.1613 35.8574 54.5453 35.8574 55.0161C35.8574 55.487 35.4724 55.871 35.0003 55.871Z" fill="white"/>
</svg>
