<svg width="70" height="70" viewBox="0 0 70 70" fill="none" xmlns="http://www.w3.org/2000/svg">
<path fill-rule="evenodd" clip-rule="evenodd" d="M58.1424 47.2819L61.0293 44.6486C65.4672 40.6019 68 34.8552 68 28.829C68 27.7266 68 26.6422 68 25.6479C68 24.1645 67.3836 22.7487 66.301 21.7409C65.2185 20.7354 63.7683 20.2282 62.2979 20.3432L56.5443 20.7986L56.3067 16.8442C56.2709 16.249 55.78 15.7869 55.1883 15.7869H29.2085C28.6168 15.7869 28.1259 16.249 28.09 16.8442L27.0478 34.1315L14.5969 25.9523L11.2707 20.5483C11.078 20.2327 10.744 20.0343 10.3787 20.014C10.0133 19.996 9.65919 20.156 9.43505 20.4469L3.23765 28.4457C3.00678 28.7411 2.93954 29.1333 3.05609 29.4896C3.17265 29.848 3.45954 30.1231 3.81816 30.2245L10.1411 32.0055L26.1221 49.4755L25.8487 54.0182C25.8307 54.3293 25.9406 54.6337 26.1512 54.8591C26.3619 55.0846 26.6578 55.2131 26.9671 55.2131H57.4297C57.739 55.2131 58.0348 55.0846 58.2455 54.8591C58.4585 54.6337 58.566 54.3293 58.5481 54.0182L58.1424 47.2819ZM57.9676 44.3984L59.5231 42.9781C63.4948 39.3574 65.7586 34.2194 65.7586 28.829C65.7586 27.7266 65.7586 26.6422 65.7586 25.6479C65.7586 24.7935 65.4045 23.9774 64.7791 23.3957C64.156 22.8163 63.32 22.5255 62.4728 22.5909L56.681 23.0485L57.9676 44.3984Z" fill="white"/>
</svg>
