<svg width="70" height="70" viewBox="0 0 70 70" fill="none" xmlns="http://www.w3.org/2000/svg">
<path d="M54.6211 11H14.7483C12.6856 11 11.013 12.6726 11.013 14.7353V20.4732H58.3638V14.7353C58.3638 12.6726 56.6912 11 54.6286 11H54.6211ZM15.8358 17.9605C14.6057 17.9605 13.6157 16.9629 13.6157 15.7403C13.6157 14.5178 14.6132 13.5202 15.8358 13.5202C17.0584 13.5202 18.056 14.5178 18.056 15.7403C18.056 16.9629 17.0584 17.9605 15.8358 17.9605ZM22.2863 17.9605C21.0562 17.9605 20.0661 16.9629 20.0661 15.7403C20.0661 14.5178 21.0637 13.5202 22.2863 13.5202C23.5089 13.5202 24.5064 14.5178 24.5064 15.7403C24.5064 16.9629 23.5089 17.9605 22.2863 17.9605ZM28.5567 17.9605C27.3266 17.9605 26.3366 16.9629 26.3366 15.7403C26.3366 14.5178 27.3341 13.5202 28.5567 13.5202C29.7793 13.5202 30.7769 14.5178 30.7769 15.7403C30.7769 16.9629 29.7793 17.9605 28.5567 17.9605Z" fill="white"/>
<path d="M11.0075 56.0185C11.0075 58.0811 12.6801 59.7537 14.7428 59.7537H54.6156C56.6782 59.7537 58.3509 58.0811 58.3509 56.0185V24.1787H11V56.0185H11.0075ZM27.2836 38.0472L32.3465 43.4476L42.0522 32.9618L45.81 36.4421L32.369 50.9631L23.5409 41.5499L27.2761 38.0472H27.2836Z" fill="white"/>
</svg>
